<svg xmlns="http://www.w3.org/2000/svg" viewBox="0 0 145.69 220.42"><defs><style>.cls-1{fill:#876340;}.cls-2{fill:#fff;}.cls-3{fill:#231f20;}.cls-4{fill:#a97c50;}.cls-5{fill:#e51491;}.cls-6{fill:#000005;}.cls-7{fill:none;stroke:#000005;stroke-linecap:round;stroke-linejoin:round;stroke-width:1.14px;}</style></defs><g id="Layer_2" data-name="Layer 2"><g id="Layer_8" data-name="Layer 8"><path class="cls-1" d="M45.55,197.28v0L9.27,217v3.39h41v-3a2,2,0,1,1,4.08,0v3h7.37V197.28Z"/><path class="cls-2" d="M51.78,212.59a19.3,19.3,0,0,1-16.51-9.69L9.27,217v3.39H61.69V209.68A18.71,18.71,0,0,1,51.78,212.59Z"/><path class="cls-1" d="M100.14,197.28v0L136.42,217v3.39h-41v-3a2,2,0,0,0-4.08,0v3H84V197.28Z"/><path class="cls-2" d="M93.9,212.59a19.32,19.32,0,0,0,16.52-9.69l26,14.13v3.39H84V209.68A18.68,18.68,0,0,0,93.9,212.59Z"/><path class="cls-2" d="M45.51,189.25l7.88-80.7H92.3l7.88,80.7,8,10.31L82,211.72V135.44a9.19,9.19,0,0,0-9.19-9.19h0a9.2,9.2,0,0,0-9.19,9.19v76.28L37.47,199.56Z"/><path class="cls-3" d="M57.82,24.11H87.87l2.69-7.87A16.24,16.24,0,0,0,74.32,0H71.37A16.25,16.25,0,0,0,55.12,16.24Z"/><rect class="cls-4" x="57.95" y="24.11" width="29.78" height="19.17" transform="translate(145.69 67.39) rotate(-180)"/><polygon class="cls-2" points="41.14 115.28 104.55 115.28 129.53 50.02 16.15 50.02 41.14 115.28"/><polygon class="cls-2" points="8.78 129.81 14.51 129.75 51.76 48.9 8.78 48.9 8.78 129.81"/><polygon class="cls-2" points="136.9 129.81 131.18 129.75 93.93 48.9 136.9 48.9 136.9 129.81"/><path class="cls-2" d="M8.8,43.28H136.89a0,0,0,0,1,0,0V56.43a4,4,0,0,1-4,4H12.76a4,4,0,0,1-4-4V43.28a0,0,0,0,1,0,0Z" transform="translate(145.69 103.66) rotate(180)"/><polygon class="cls-1" points="8.78 102.64 8.78 129.81 14.51 129.75 27 102.64 8.78 102.64"/><polygon class="cls-1" points="118.69 102.64 131.18 129.75 136.9 129.81 136.9 102.64 118.69 102.64"/><path class="cls-1" d="M24.81,123.08H3.39a4.07,4.07,0,0,0-3.39,4v7.75l6.93,9.6a3.84,3.84,0,0,0,4.24,3.82,4,4,0,0,0,3.45-4V134.08A3,3,0,0,1,17.67,131h0a3,3,0,0,1,3,3.05v5.48a3.42,3.42,0,0,0,3.77,3.4,3.56,3.56,0,0,0,3.06-3.59v-13A3.41,3.41,0,0,0,24.81,123.08Z"/><path class="cls-1" d="M120.87,123.08H142.3a4.07,4.07,0,0,1,3.39,4v7.75l-6.94,9.6a3.84,3.84,0,0,1-4.23,3.82,4,4,0,0,1-3.45-4V134.08a3,3,0,0,0-3-3.05h0a3.06,3.06,0,0,0-3.05,3.05v5.48a3.42,3.42,0,0,1-3.76,3.4,3.56,3.56,0,0,1-3.06-3.59v-13A3.41,3.41,0,0,1,120.87,123.08Z"/><rect class="cls-4" x="62.45" y="12.05" width="20.78" height="13.9"/><rect class="cls-5" x="53.42" y="43.28" width="38.85" height="65.27"/><rect class="cls-2" x="3.26" y="98.33" width="28.69" height="7.15"/><rect class="cls-2" x="113.73" y="98.33" width="28.69" height="7.15"/><rect class="cls-4" x="57.95" y="28.41" width="29.78" height="31.63" rx="14.89"/><path class="cls-6" d="M60.69,25.68A6,6,0,0,0,59.2,29.6a6.51,6.51,0,0,0,13,0,6,6,0,0,0-1.49-3.92Z"/><path class="cls-6" d="M75.75,25.68a6,6,0,0,0-1.49,3.92,6.51,6.51,0,0,0,13,0,6,6,0,0,0-1.49-3.92Z"/><line class="cls-7" x1="56.07" y1="28.79" x2="90.15" y2="28.79"/></g></g></svg>