<svg xmlns="http://www.w3.org/2000/svg" viewBox="0 0 118.77 191.47"><defs><style>.cls-1{fill:#fff;}.cls-2{fill:#f9ed32;}.cls-3{fill:#5dc2a6;}.cls-4{fill:#e51491;}.cls-5,.cls-8,.cls-9{fill:none;}.cls-5{stroke:#d3c00f;stroke-width:0.82px;}.cls-5,.cls-9{stroke-miterlimit:10;}.cls-6{fill:#000005;}.cls-7{fill:#ec008c;}.cls-8{stroke:#000005;stroke-linecap:round;stroke-linejoin:round;}.cls-8,.cls-9{stroke-width:1.14px;}.cls-9{stroke:#5dc2a6;}</style></defs><g id="Layer_2" data-name="Layer 2"><g id="Layer_8" data-name="Layer 8"><polygon class="cls-1" points="32.63 188.64 32.63 191.47 55.33 191.47 55.33 180.94 32.63 188.64"/><polygon class="cls-1" points="115.94 150.68 118.77 150.68 118.77 127.98 108.25 127.98 115.94 150.68"/><path class="cls-1" d="M46.15,88.51c-.43.11-.86.2-1.28.32a12.12,12.12,0,0,0-8.46,13.74L50.78,184h4.58V107.25h0Z"/><path class="cls-1" d="M73.23,124.81l3.93-22.24A12.12,12.12,0,0,0,68.7,88.83c-.43-.12-.86-.21-1.28-.32l-9.2,18.74h0v29.86h53.12v-4.58Z"/><rect class="cls-2" x="56.78" y="105.82" height="2.86"/><path class="cls-3" d="M67.42,88.51a42.11,42.11,0,0,0-21.27,0l9.2,18.74h2.87Z"/><polygon class="cls-1" points="44.53 48.61 32.63 48.61 32.63 84.69 38.17 84.69 44.53 48.61"/><polygon class="cls-1" points="10.76 80.12 37.04 75.18 37.04 84.69 10.76 84.69 10.76 80.12"/><polygon class="cls-1" points="66.98 60.51 66.98 48.61 103.06 48.61 103.06 54.14 66.98 60.51"/><polygon class="cls-1" points="98.49 76.7 93.55 50.42 103.06 50.42 103.06 76.7 98.49 76.7"/><polygon class="cls-4" points="40.81 153.27 46.24 184.04 55.35 184.04 55.35 153.27 40.81 153.27"/><polygon class="cls-4" points="80.57 122.56 111.33 127.99 111.33 137.11 80.57 137.11 80.57 122.56"/><polygon class="cls-3" points="80.93 48.61 56.78 97.2 32.63 48.61 80.93 48.61"/><circle class="cls-2" cx="55.65" cy="22.35" r="22.35"/><rect class="cls-2" x="55.65" width="61.02" height="43.57"/><path class="cls-5" d="M63.13,34.65c4.46,0,4.46,5.18,8.92,5.18s4.46-5.18,8.92-5.18,4.46,5.18,8.92,5.18,4.46-5.18,8.92-5.18,4.47,5.18,8.93,5.18,4.47-5.18,8.93-5.18"/><path class="cls-5" d="M63.13,26.83c4.46,0,4.46,5.17,8.92,5.17s4.46-5.17,8.92-5.17S85.43,32,89.89,32s4.46-5.17,8.92-5.17S103.28,32,107.74,32s4.47-5.17,8.93-5.17"/><path class="cls-5" d="M63.13,19c4.46,0,4.46,5.18,8.92,5.18S76.51,19,81,19s4.46,5.18,8.92,5.18S94.35,19,98.81,19s4.47,5.18,8.93,5.18S112.21,19,116.67,19"/><rect class="cls-1" x="49.22" y="25.72" width="12.86" height="41.38" rx="6.43"/><path class="cls-2" d="M61.88,30.61a6.42,6.42,0,0,0-12.47,0Z"/><path class="cls-6" d="M46.94,35.65a3,3,0,0,0-.75,2,3.26,3.26,0,0,0,6.51,0,3,3,0,0,0-.75-2Z"/><path class="cls-6" d="M54.47,35.65a3,3,0,0,0-.75,2,3.26,3.26,0,0,0,6.51,0,3,3,0,0,0-.75-2Z"/><path class="cls-7" d="M51,43a2.39,2.39,0,0,0,4.72,0Z"/><path class="cls-7" d="M53.94,43a1.61,1.61,0,0,0-3.12,0Z"/><path class="cls-7" d="M56.5,43a1.61,1.61,0,0,0-3.12,0Z"/><rect class="cls-3" x="49.22" y="29.13" width="12.86" height="4"/><line class="cls-8" x1="51.81" y1="37.2" x2="64.51" y2="37.2"/><line class="cls-9" x1="54.51" y1="67.1" x2="54.51" y2="59.42"/><polygon class="cls-1" points="0 82.2 0 84.69 14.49 84.69 14.49 75.42 0 82.2"/><polygon class="cls-1" points="8.04 76.29 8.04 75.18 14.49 75.18 14.49 79.31 8.04 76.29"/><polygon class="cls-1" points="100.57 88.87 103.06 88.87 103.06 74.37 93.79 74.37 100.57 88.87"/><polygon class="cls-1" points="94.66 80.83 93.55 80.83 93.55 74.37 97.68 74.37 94.66 80.83"/></g></g></svg>