<svg xmlns="http://www.w3.org/2000/svg" viewBox="0 0 116.57 39.53"><defs><style>.cls-1{fill:#2970e2;}.cls-2{fill:none;stroke:#2970e2;stroke-miterlimit:10;stroke-width:1.14px;}</style></defs><g id="Layer_2" data-name="Layer 2"><g id="Layer_6" data-name="Layer 6"><path class="cls-1" d="M62.82,18.44a23.65,23.65,0,0,0-46.14,0Z"/><path class="cls-2" d="M14.59,10.61H7.44A6.87,6.87,0,0,0,.57,17.47h0a6.87,6.87,0,0,0,6.87,6.87H72.78a6.87,6.87,0,0,0,6.87-6.87h0a6.87,6.87,0,0,0-6.87-6.86H64.66"/><path class="cls-1" d="M106.59,35.66a13.22,13.22,0,0,0-25.78,0Z"/><path class="cls-2" d="M79.65,31.28h-4a3.84,3.84,0,0,0-3.83,3.84h0A3.84,3.84,0,0,0,75.65,39h36.51A3.84,3.84,0,0,0,116,35.12h0a3.84,3.84,0,0,0-3.84-3.84h-4.54"/></g></g></svg>