<svg xmlns="http://www.w3.org/2000/svg" viewBox="0 0 1107.26 1497.71"><defs><style>.cls-1,.cls-2,.cls-4,.cls-5,.cls-7{fill:none;stroke-linecap:round;stroke-linejoin:round;}.cls-1,.cls-2{stroke:#809038;}.cls-1{stroke-width:7.84px;}.cls-2{stroke-width:4.01px;}.cls-3{fill:#e3272f;}.cls-4,.cls-5{stroke:#991a20;}.cls-4{stroke-width:0.68px;}.cls-5{stroke-width:1.26px;}.cls-6{fill:#64702c;}.cls-7{stroke:#3f461c;stroke-width:1.5px;}.cls-8{fill:#809038;}.cls-9{fill:#fff;}</style></defs><g id="Layer_2" data-name="Layer 2"><g id="Layer_6" data-name="Layer 6"><line class="cls-1" x1="840.83" y1="798.99" x2="840.83" y2="768.74"/><line class="cls-1" x1="840.83" y1="798.99" x2="857.72" y2="778.34"/><line class="cls-1" x1="840.83" y1="799.46" x2="865" y2="799.46"/><line class="cls-1" x1="840.83" y1="798.99" x2="857.72" y2="778.34"/><line class="cls-1" x1="840.83" y1="799.46" x2="865" y2="799.46"/><line class="cls-1" x1="840.83" y1="798.99" x2="823.94" y2="778.34"/><line class="cls-1" x1="840.83" y1="799.46" x2="816.66" y2="799.46"/><line class="cls-1" x1="211.47" y1="590.39" x2="211.47" y2="560.14"/><line class="cls-1" x1="211.47" y1="590.39" x2="228.36" y2="569.74"/><line class="cls-1" x1="211.47" y1="590.87" x2="235.64" y2="590.87"/><line class="cls-1" x1="211.47" y1="590.39" x2="228.36" y2="569.74"/><line class="cls-1" x1="211.47" y1="590.87" x2="235.64" y2="590.87"/><line class="cls-1" x1="211.47" y1="590.39" x2="194.58" y2="569.74"/><line class="cls-1" x1="211.47" y1="590.87" x2="187.3" y2="590.87"/><line class="cls-1" x1="1079.17" y1="1233.49" x2="1079.17" y2="1203.24"/><line class="cls-1" x1="1079.17" y1="1233.49" x2="1096.06" y2="1212.84"/><line class="cls-1" x1="1079.17" y1="1233.97" x2="1103.34" y2="1233.97"/><line class="cls-1" x1="1079.17" y1="1233.49" x2="1096.06" y2="1212.84"/><line class="cls-1" x1="1079.17" y1="1233.97" x2="1103.34" y2="1233.97"/><line class="cls-1" x1="1079.17" y1="1233.49" x2="1062.28" y2="1212.84"/><line class="cls-1" x1="1079.17" y1="1233.97" x2="1055" y2="1233.97"/><line class="cls-2" x1="430.3" y1="1495.33" x2="430.3" y2="1471.34"/><line class="cls-2" x1="430.3" y1="1495.33" x2="443.69" y2="1478.95"/><line class="cls-2" x1="430.3" y1="1495.71" x2="449.46" y2="1495.71"/><line class="cls-2" x1="430.3" y1="1495.33" x2="443.69" y2="1478.95"/><line class="cls-2" x1="430.3" y1="1495.71" x2="449.46" y2="1495.71"/><line class="cls-2" x1="430.3" y1="1495.33" x2="416.9" y2="1478.95"/><line class="cls-2" x1="430.3" y1="1495.71" x2="411.13" y2="1495.71"/><path class="cls-3" d="M362.55,69h69S394.91,36.62,362.55,69Z"/><path class="cls-3" d="M382.76,20.2C382.76,66,431.53,69,431.53,69S428.52,20.2,382.76,20.2Z"/><path class="cls-3" d="M431.53,0c-32.36,32.36,0,69,0,69S463.88,32.36,431.53,0Z"/><path class="cls-3" d="M480.3,20.2C434.54,20.2,431.53,69,431.53,69S480.3,66,480.3,20.2Z"/><path class="cls-3" d="M382.76,20.2C382.76,66,431.53,69,431.53,69S428.52,20.2,382.76,20.2Z"/><path class="cls-3" d="M382.76,20.2C382.76,66,431.53,69,431.53,69S428.52,20.2,382.76,20.2Z"/><path class="cls-3" d="M431.53,0c-32.36,32.36,0,69,0,69S463.88,32.36,431.53,0Z"/><path class="cls-3" d="M480.3,20.2C434.54,20.2,431.53,69,431.53,69S480.3,66,480.3,20.2Z"/><path class="cls-3" d="M500.5,69c-32.36-32.35-69,0-69,0Z"/><line class="cls-4" x1="431.16" y1="68.26" x2="431.16" y2="7.01"/><line class="cls-4" x1="389.69" y1="68.26" x2="382.32" y2="60.89"/><line class="cls-4" x1="398.25" y1="68.26" x2="390.88" y2="60.89"/><line class="cls-4" x1="406.82" y1="68.26" x2="399.45" y2="60.89"/><line class="cls-4" x1="473.36" y1="68.26" x2="480.73" y2="60.89"/><line class="cls-4" x1="464.8" y1="68.26" x2="472.17" y2="60.89"/><line class="cls-4" x1="456.24" y1="68.26" x2="463.61" y2="60.89"/><line class="cls-4" x1="424.2" y1="20.2" x2="431.53" y2="27.53"/><line class="cls-4" x1="431.53" y1="27.53" x2="438.9" y2="20.16"/><line class="cls-4" x1="424.2" y1="28.76" x2="431.53" y2="36.09"/><line class="cls-4" x1="431.53" y1="36.09" x2="438.9" y2="28.72"/><line class="cls-4" x1="424.2" y1="37.32" x2="431.53" y2="44.66"/><line class="cls-4" x1="431.53" y1="44.66" x2="438.9" y2="37.29"/><line class="cls-4" x1="431.53" y1="68.26" x2="431.53" y2="7.01"/><line class="cls-4" x1="392.36" y1="39.46" x2="402.73" y2="39.46"/><line class="cls-4" x1="402.73" y1="39.46" x2="402.73" y2="29.04"/><line class="cls-4" x1="398.42" y1="45.51" x2="408.79" y2="45.51"/><line class="cls-4" x1="408.79" y1="45.51" x2="408.79" y2="35.09"/><line class="cls-4" x1="404.47" y1="51.57" x2="414.84" y2="51.57"/><line class="cls-4" x1="414.84" y1="51.57" x2="414.84" y2="41.14"/><line class="cls-4" x1="431.53" y1="68.26" x2="388.22" y2="24.95"/><line class="cls-4" x1="460.32" y1="29.09" x2="460.32" y2="39.46"/><line class="cls-4" x1="460.32" y1="39.46" x2="470.75" y2="39.46"/><line class="cls-4" x1="454.27" y1="35.15" x2="454.27" y2="45.51"/><line class="cls-4" x1="454.27" y1="45.51" x2="464.69" y2="45.51"/><line class="cls-4" x1="448.22" y1="41.2" x2="448.22" y2="51.57"/><line class="cls-4" x1="448.22" y1="51.57" x2="458.64" y2="51.57"/><line class="cls-4" x1="431.53" y1="68.26" x2="474.83" y2="24.95"/><path class="cls-3" d="M9.17,1374.36H137S69.16,1314.37,9.17,1374.36Z"/><path class="cls-3" d="M46.63,1283.94c0,84.84,90.41,90.42,90.41,90.42S131.46,1283.94,46.63,1283.94Z"/><path class="cls-3" d="M137,1246.49c-60,60,0,127.87,0,127.87S197,1306.48,137,1246.49Z"/><path class="cls-3" d="M227.46,1283.94c-84.84,0-90.42,90.42-90.42,90.42S227.46,1368.78,227.46,1283.94Z"/><path class="cls-3" d="M46.63,1283.94c0,84.84,90.41,90.42,90.41,90.42S131.46,1283.94,46.63,1283.94Z"/><path class="cls-3" d="M46.63,1283.94c0,84.84,90.41,90.42,90.41,90.42S131.46,1283.94,46.63,1283.94Z"/><path class="cls-3" d="M137,1246.49c-60,60,0,127.87,0,127.87S197,1306.48,137,1246.49Z"/><path class="cls-3" d="M227.46,1283.94c-84.84,0-90.42,90.42-90.42,90.42S227.46,1368.78,227.46,1283.94Z"/><path class="cls-3" d="M264.91,1374.36c-60-60-127.87,0-127.87,0Z"/><line class="cls-5" x1="136.36" y1="1373.03" x2="136.36" y2="1259.48"/><line class="cls-5" x1="59.49" y1="1373.03" x2="45.82" y2="1359.36"/><line class="cls-5" x1="75.36" y1="1373.03" x2="61.69" y2="1359.36"/><line class="cls-5" x1="91.23" y1="1373.03" x2="77.57" y2="1359.36"/><line class="cls-5" x1="214.6" y1="1373.03" x2="228.26" y2="1359.36"/><line class="cls-5" x1="198.73" y1="1373.03" x2="212.39" y2="1359.36"/><line class="cls-5" x1="182.85" y1="1373.03" x2="196.52" y2="1359.36"/><line class="cls-5" x1="123.45" y1="1283.94" x2="137.04" y2="1297.53"/><line class="cls-5" x1="137.04" y1="1297.53" x2="150.71" y2="1283.87"/><line class="cls-5" x1="123.45" y1="1299.81" x2="137.04" y2="1313.4"/><line class="cls-5" x1="137.04" y1="1313.4" x2="150.71" y2="1299.74"/><line class="cls-5" x1="123.45" y1="1315.68" x2="137.04" y2="1329.27"/><line class="cls-5" x1="137.04" y1="1329.27" x2="150.71" y2="1315.61"/><line class="cls-5" x1="137.04" y1="1373.03" x2="137.04" y2="1259.48"/><line class="cls-5" x1="64.44" y1="1319.64" x2="83.66" y2="1319.64"/><line class="cls-5" x1="83.66" y1="1319.64" x2="83.66" y2="1300.32"/><line class="cls-5" x1="75.66" y1="1330.87" x2="94.88" y2="1330.87"/><line class="cls-5" x1="94.88" y1="1330.87" x2="94.88" y2="1311.54"/><line class="cls-5" x1="86.89" y1="1342.09" x2="106.1" y2="1342.09"/><line class="cls-5" x1="106.1" y1="1342.09" x2="106.1" y2="1322.77"/><line class="cls-5" x1="137.04" y1="1373.03" x2="56.75" y2="1292.74"/><line class="cls-5" x1="190.43" y1="1300.42" x2="190.43" y2="1319.64"/><line class="cls-5" x1="190.43" y1="1319.64" x2="209.75" y2="1319.64"/><line class="cls-5" x1="179.2" y1="1311.65" x2="179.2" y2="1330.87"/><line class="cls-5" x1="179.2" y1="1330.87" x2="198.53" y2="1330.87"/><line class="cls-5" x1="167.98" y1="1322.87" x2="167.98" y2="1342.09"/><line class="cls-5" x1="167.98" y1="1342.09" x2="187.3" y2="1342.09"/><line class="cls-5" x1="137.04" y1="1373.03" x2="217.33" y2="1292.74"/><path class="cls-6" d="M375.27,782.76s-40.77-70.29-111.07,0H375.27"/><path class="cls-6" d="M342.74,704.22s-78.54-20.87-78.54,78.54l78.54-78.54"/><path class="cls-6" d="M264.26,675.07s-70.3,40.78,0,111.08V675.07"/><path class="cls-6" d="M185.66,704.22s-20.88,78.54,79.72,79.95l-78.54-78.54"/><path class="cls-7" d="M264.2,782.76s7.88-48.22,49-70.26"/><polyline class="cls-7" points="285.73 721.12 285.73 735.79 307.65 735.79"/><polyline class="cls-7" points="281.47 730.03 281.47 741.55 293.24 741.55"/><polyline class="cls-7" points="270.41 751.52 270.41 762.36 279.44 762.36"/><path class="cls-7" d="M264.2,782.76s-28.53-39.67-15-84.34"/><polyline class="cls-7" points="235.83 723.95 246.2 734.33 261.7 718.82"/><polyline class="cls-7" points="239.12 733.26 247.26 741.41 255.59 733.09"/><polyline class="cls-7" points="246.5 756.28 254.16 763.94 260.55 757.55"/><path class="cls-7" d="M264.2,782.76s-48.23-7.88-70.27-49"/><polyline class="cls-7" points="202.55 761.24 217.22 761.24 217.22 739.32"/><polyline class="cls-7" points="211.46 765.49 222.98 765.49 222.98 753.72"/><polyline class="cls-7" points="232.95 776.55 243.79 776.55 243.79 767.52"/><path class="cls-7" d="M264.2,782.76S303.72,754,348.46,767.3"/><polyline class="cls-7" points="322.86 754.09 312.54 764.52 328.12 779.94"/><polyline class="cls-7" points="313.57 757.43 305.46 765.62 313.83 773.9"/><polyline class="cls-7" points="290.59 764.93 282.97 772.63 289.39 778.98"/><path class="cls-8" d="M0,782.76H133.54S62.65,720.12,0,782.76Z"/><path class="cls-8" d="M39.11,688.34c0,88.6,94.43,94.42,94.43,94.42S127.71,688.34,39.11,688.34Z"/><path class="cls-8" d="M133.54,649.22c-62.65,62.65,0,133.54,0,133.54S196.19,711.87,133.54,649.22Z"/><path class="cls-8" d="M228,688.34c-88.6,0-94.43,94.42-94.43,94.42S228,776.94,228,688.34Z"/><path class="cls-8" d="M39.11,688.34c0,88.6,94.43,94.42,94.43,94.42S127.71,688.34,39.11,688.34Z"/><path class="cls-8" d="M39.11,688.34c0,88.6,94.43,94.42,94.43,94.42S127.71,688.34,39.11,688.34Z"/><path class="cls-8" d="M133.54,649.22c-62.65,62.65,0,133.54,0,133.54S196.19,711.87,133.54,649.22Z"/><path class="cls-9" d="M86.33,716c-5.2,10.41,0,22.18,0,22.18S91.53,726.4,86.33,716Z"/><path class="cls-9" d="M102,722.49c-11,3.68-15.67,15.68-15.67,15.68S98.33,733.52,102,722.49Z"/><path class="cls-9" d="M108.5,738.17c-10.4-5.2-22.17,0-22.17,0S98.1,743.37,108.5,738.17Z"/><path class="cls-9" d="M102,753.84c-3.67-11-15.67-15.67-15.67-15.67S91,750.17,102,753.84Z"/><path class="cls-9" d="M86.33,760.34c5.2-10.4,0-22.17,0-22.17S81.13,749.94,86.33,760.34Z"/><path class="cls-9" d="M70.65,753.84c11-3.67,15.68-15.67,15.68-15.67S74.33,742.81,70.65,753.84Z"/><path class="cls-9" d="M64.16,738.17c30.22,25.73,14.37-7.52,6.49-15.68C70.65,722.49,74.56,733,64.16,738.17Z"/><path class="cls-9" d="M70.65,722.49c3.68,11,11,3.68,11,3.68Z"/><path class="cls-8" d="M228,688.34c-88.6,0-94.43,94.42-94.43,94.42S228,776.94,228,688.34Z"/><path class="cls-8" d="M267.08,782.76c-62.65-62.64-133.54,0-133.54,0Z"/><path class="cls-9" d="M161.38,684.64c-7.35,14.71,0,31.35,0,31.35S168.74,699.35,161.38,684.64Z"/><path class="cls-9" d="M183.56,693.82C168,699,161.38,716,161.38,716S178.36,709.43,183.56,693.82Z"/><path class="cls-9" d="M192.74,716c-14.71-7.35-31.36,0-31.36,0S178,723.35,192.74,716Z"/><path class="cls-9" d="M183.56,738.17c-5.2-15.61-22.18-22.18-22.18-22.18S168,733,183.56,738.17Z"/><path class="cls-9" d="M161.38,747.35c7.36-14.71,0-31.36,0-31.36S154,732.64,161.38,747.35Z"/><path class="cls-9" d="M139.21,738.17C154.82,733,161.38,716,161.38,716S144.41,722.56,139.21,738.17Z"/><path class="cls-9" d="M130,716c14.71,7.36,31.35,0,31.35,0S144.74,708.64,130,716Z"/><path class="cls-9" d="M139.21,693.82c5.2,15.61,22.17,22.17,22.17,22.17S154.82,699,139.21,693.82Z"/><path class="cls-8" d="M227.18,1496.06h71.58S260.76,1462.47,227.18,1496.06Z"/><path class="cls-8" d="M248.15,1445.44c0,47.49,50.61,50.62,50.61,50.62S295.64,1445.44,248.15,1445.44Z"/><path class="cls-8" d="M298.76,1424.47c-33.58,33.59,0,71.59,0,71.59S332.35,1458.06,298.76,1424.47Z"/><path class="cls-8" d="M349.38,1445.44c-47.49,0-50.62,50.62-50.62,50.62S349.38,1492.93,349.38,1445.44Z"/><path class="cls-8" d="M370.35,1496.06c-33.59-33.59-71.59,0-71.59,0Z"/></g></g></svg>