<svg xmlns="http://www.w3.org/2000/svg" viewBox="0 0 373.03 316.18"><defs><style>.cls-1{fill:#a97c50;}.cls-2{fill:#453321;}.cls-3{fill:#231f20;}.cls-4{fill:#006838;}.cls-5{fill:#755638;}.cls-10,.cls-6,.cls-7,.cls-8{fill:none;}.cls-6{stroke:#755638;stroke-linejoin:round;}.cls-6,.cls-7{stroke-linecap:round;}.cls-6,.cls-7,.cls-8{stroke-width:1.89px;}.cls-7,.cls-8{stroke:#453321;}.cls-7{stroke-linejoin:bevel;}.cls-10,.cls-8{stroke-miterlimit:10;}.cls-9{fill:#f15a29;}.cls-10{stroke:#a97c50;stroke-width:0.93px;}</style></defs><g id="Layer_2" data-name="Layer 2"><g id="Mask"><rect class="cls-1" x="59.43" y="83.22" width="116.22" height="80.48" rx="8.52"/><path class="cls-2" d="M122.48,0h34.63a65.43,65.43,0,0,1,65.43,65.43V83.08a0,0,0,0,1,0,0H57.06a0,0,0,0,1,0,0V65.43A65.43,65.43,0,0,1,122.48,0Z"/><path class="cls-1" d="M88,284.05l18.19-112.28h49l18.19,112.28h0l49.15,26.89h0v5.24H142.25V280.49h0V205.66c0-6.4-23.16-6.4-23.16,0v74.83h0v35.69H38.82v-5.24h0L88,284.05Z"/><path class="cls-1" d="M206.05,119.08c0-4.21-3.87-5.92-7-5.14V83.29c38,0,68.73,34.46,68.73,77,0,39.85-27.05,72.63-61.7,76.57Z"/><path class="cls-3" d="M61.85,142.33c13.61,0,24.65-12.39,24.65-27.68V83.29H193.1V236.82l-21.9-16.58-21.9,16.58-21.9-16.58-21.9,16.58L83.6,220.24,61.7,236.82V142.33Z"/><path class="cls-4" d="M72.24,83.29h0Z"/><rect class="cls-1" x="146.62" y="48.93" width="33.17" height="59.07" rx="16.59" transform="translate(326.4 156.92) rotate(-180)"/><path class="cls-5" d="M197.89,83.12h0A8.06,8.06,0,0,1,206,91.19V145.5a8.06,8.06,0,0,1-8.06,8.06H144.67a8.06,8.06,0,0,1-8.07-8.06V91.19a8.07,8.07,0,0,1,8.07-8.07h53.22Z"/><line class="cls-6" x1="172.65" y1="74.71" x2="155.39" y2="74.71"/><line class="cls-7" x1="176.11" y1="67.19" x2="150.19" y2="67.19"/><line class="cls-8" x1="205.95" y1="95.51" x2="146.59" y2="95.51"/><path class="cls-9" d="M127.65,206.05h0c12.12,0,21.94,11.4,21.94,25.46v5.09l-.29.22-21.9-16.58-21.69,16.42v-5.15C105.71,217.45,115.53,206.05,127.65,206.05Z"/><path class="cls-9" d="M157.24,177.93h0c0-9.87,6.89-17.87,15.4-17.87H193.1v35.75H172.64C164.13,195.81,157.24,187.8,157.24,177.93Z"/><path class="cls-9" d="M111.25,121.52V153c0,15.86-11.08,28.72-24.75,28.72h0c-13.67,0-24.75-12.86-24.75-28.72V142.33h.1c13.61,0,24.65-12.39,24.65-27.68V92.8h0C100.17,92.8,111.25,105.66,111.25,121.52Z"/><polygon class="cls-3" points="205.95 206.52 205.95 223.31 372.95 273.06 372.95 182.72 205.95 206.52"/><polyline class="cls-10" points="372.95 249.79 321.47 240.71 321.47 231.28 206.02 219.34"/><polyline class="cls-10" points="372.95 201.16 337.83 203.72 337.83 207.99 205.95 213.68"/><polygon class="cls-3" points="336.39 191.2 336.39 180.95 319.03 184.94 319.03 192.96 336.39 191.2"/><path class="cls-1" d="M61.7,119.08c0-4.21,3.87-5.92,7-5.14V83.29c-38,0-68.73,34.46-68.73,77,0,39.85,27.05,72.63,61.7,76.57Z"/></g></g></svg>