<svg xmlns="http://www.w3.org/2000/svg" viewBox="0 0 33.78 54.16"><defs><style>.cls-1{fill:#1d1d1b;fill-rule:evenodd;}</style></defs><g id="Layer_2" data-name="Layer 2"><g id="Layer_1-2" data-name="Layer 1"><path class="cls-1" d="M0,0H33.78V6.41H30.87c2.73,10.51-6.82,14.18-7,20.38s9.49,9.89,7,20.38c-.1,1.26,2.06.26,2.91.58v6.41H0V47.75H2.91c-.66-10,3.91-14.72,7.57-20.38C7.43,21.11,2.4,16.81,2.91,7,3,5.73.85,6.72,0,6.41ZM3.49,2.33a2.78,2.78,0,0,0,.59,1.75c8.36-.76,19.77,1.53,26.2-1.17C23.81.62,10.93,1.73,3.49,2.33ZM7,6.41c-1.94,10.84,7.8,13.57,7.57,21C14.34,34.33,5,37.24,7,47.75h19.8c2.11-10.93-7.72-13.79-7.57-21,.14-7,9.72-9.73,7.57-20.38ZM3.49,50.08a2.78,2.78,0,0,0,.59,1.75c8.36-.76,19.77,1.53,26.2-1.17C24.91,49.3,9.83,50.41,3.49,50.08Z"/><path class="cls-1" d="M9.9,12.81a43.71,43.71,0,0,0,14,0C23.8,21.74,10.07,21.44,9.9,12.81Z"/><path class="cls-1" d="M19.22,33.78c2.92,2.51,3.94,6.93,5.24,11.06-3.7,1.35-9.9.2-14.56.58C10.68,39.21,11.53,33.08,19.22,33.78Z"/></g></g></svg>