<svg xmlns="http://www.w3.org/2000/svg" 
viewBox="0 0 1225.85 1985.76"><defs>
<style>.cls-1{fill:red;}
.cls-2{fill:red; width: 20em;}
.cls-3,.cls-4,.cls-5{fill:none;stroke:#809038;stroke-linecap:round;stroke-linejoin:round;}
.cls-3{stroke-width:5px;}
.cls-4{stroke-width:3.37px;}
.cls-5{stroke-width:4.62px;}
.cls-6{fill:#fff;}
.cls-7{fill:#bcbec0;}
</style>
</defs>
<g id="Layer_2" data-name="Layer 2">
<g id="Layer_8" data-name="Layer 8">

<line class="cls-3" x1="270.66" y1="417.73" x2="270.66" y2="387.48"/>
<line class="cls-3" x1="270.66" y1="417.73" x2="287.55" y2="397.08"/>
<line class="cls-3" x1="270.66" y1="418.21" x2="294.83" y2="418.21"/>
<line class="cls-3" x1="270.66" y1="417.73" x2="287.55" y2="397.08"/>
<line class="cls-3" x1="270.66" y1="418.21" x2="294.83" y2="418.21"/>
<line class="cls-3" x1="270.66" y1="417.73" x2="253.77" y2="397.08"/>
<line class="cls-3" x1="270.66" y1="418.21" x2="246.49" y2="418.21"/>
<line class="cls-4" x1="687.59" y1="319.52" x2="687.59" y2="299.11"/>
<line class="cls-4" x1="687.59" y1="319.52" x2="698.98" y2="305.58"/>
<line class="cls-4" x1="687.59" y1="319.84" x2="703.89" y2="319.84"/>
<line class="cls-4" x1="687.59" y1="319.52" x2="698.98" y2="305.58"/>
<line class="cls-4" x1="687.59" y1="319.84" x2="703.89" y2="319.84"/>
<line class="cls-4" x1="687.59" y1="319.52" x2="676.19" y2="305.58"/>
<line class="cls-4" x1="687.59" y1="319.84" x2="671.28" y2="319.84"/>
<line class="cls-4" x1="315.49" y1="22.1" x2="315.49" y2="1.69"/>
<line class="cls-4" x1="315.49" y1="22.1" x2="326.89" y2="8.16"/>
<line class="cls-4" x1="315.49" y1="22.42" x2="331.8" y2="22.42"/>
<line class="cls-4" x1="315.49" y1="22.1" x2="326.89" y2="8.16"/>
<line class="cls-4" x1="315.49" y1="22.42" x2="331.8" y2="22.42"/>
<line class="cls-4" x1="315.49" y1="22.1" x2="304.1" y2="8.16"/>
<line class="cls-4" x1="315.49" y1="22.42" x2="299.19" y2="22.42"/>
<line class="cls-3" x1="55.48" y1="244.61" x2="55.48" y2="214.36"/>
<line class="cls-3" x1="55.48" y1="244.61" x2="72.37" y2="223.96"/>
<line class="cls-3" x1="55.48" y1="245.09" x2="79.65" y2="245.09"/>
<line class="cls-3" x1="55.48" y1="244.61" x2="72.37" y2="223.96"/>
<line class="cls-3" x1="55.48" y1="245.09" x2="79.65" y2="245.09"/>
<line class="cls-3" x1="55.48" y1="244.61" x2="38.58" y2="223.96"/>
<line class="cls-3" x1="55.48" y1="245.09" x2="31.31" y2="245.09"/>
<line class="cls-3" x1="340.11" y1="1498.6" x2="340.11" y2="1468.35"/>
<line class="cls-3" x1="340.11" y1="1498.6" x2="357" y2="1477.95"/>
<line class="cls-3" x1="340.11" y1="1499.08" x2="364.28" y2="1499.08"/>
<line class="cls-3" x1="340.11" y1="1498.6" x2="357" y2="1477.95"/>
<line class="cls-3" x1="340.11" y1="1499.08" x2="364.28" y2="1499.08"/>
<line class="cls-3" x1="340.11" y1="1498.6" x2="323.22" y2="1477.95"/>
<line class="cls-3" x1="340.11" y1="1499.08" x2="315.94" y2="1499.08"/>
<line class="cls-5" x1="938.51" y1="1016.11" x2="938.51" y2="988.13"/>
<line class="cls-5" x1="938.51" y1="1016.11" x2="954.13" y2="997.01"/>
<line class="cls-5" x1="938.51" y1="1016.55" x2="960.86" y2="1016.55"/>
<line class="cls-5" x1="938.51" y1="1016.11" x2="954.13" y2="997.01"/>
<line class="cls-5" x1="938.51" y1="1016.55" x2="960.86" y2="1016.55"/>
<line class="cls-5" x1="938.51" y1="1016.11" x2="922.9" y2="997.01"/>
<line class="cls-5" x1="938.51" y1="1016.55" x2="916.17" y2="1016.55"/>
<line class="cls-5" x1="140" y1="1622.87" x2="140" y2="1594.9"/>
<line class="cls-5" x1="140" y1="1622.87" x2="155.62" y2="1603.77"/>
<line class="cls-5" x1="140" y1="1623.31" x2="162.35" y2="1623.31"/>
<line class="cls-5" x1="140" y1="1622.87" x2="155.62" y2="1603.77"/>
<line class="cls-5" x1="140" y1="1623.31" x2="162.35" y2="1623.31"/>
<line class="cls-5" x1="140" y1="1622.87" x2="124.38" y2="1603.77"/>
<line class="cls-5" x1="140" y1="1623.31" x2="117.65" y2="1623.31"/>
<line class="cls-5" x1="97.18" y1="984.99" x2="97.18" y2="957.02"/>
<line class="cls-5" x1="97.18" y1="984.99" x2="112.79" y2="965.89"/>
<line class="cls-5" x1="97.18" y1="985.43" x2="119.52" y2="985.43"/>
<line class="cls-5" x1="97.18" y1="984.99" x2="112.79" y2="965.89"/>
<line class="cls-5" x1="97.18" y1="985.43" x2="119.52" y2="985.43"/>
<line class="cls-5" x1="97.18" y1="984.99" x2="81.56" y2="965.89"/>
<line class="cls-5" x1="97.18" y1="985.43" x2="74.83" y2="985.43"/>
<path class="cls-2" d="M846.15,1446.65v26.82a2.64,2.64,0,0,1-2.63,2.64H831.77v12h11.75a14.63,14.63,0,0,0,14.61-14.61Z"/>
<path class="cls-2" d="M782.12,1476.11H769.18a2.64,2.64,0,0,1-2.63-2.64v-26.82l-12,26.82a14.63,14.63,0,0,0,14.61,14.61h11.75v-12Z"/>
<path class="cls-6" d="M830.58,1476.11H782.12v12h-1.19v10.05a5.59,5.59,0,0,0,5.59,5.59,5.58,5.58,0,0,1,5.58,5.59v28.3h4.7v-25.42c3.31,0,6,17.59,6,20.9v1.74h7.1v-1.74c0-3.31,2.69-20.9,6-20.9v25.42h4.7v-28.3a5.58,5.58,0,0,1,5.58-5.59,5.59,5.59,0,0,0,5.59-5.59v-10.05h-1.19Z"/>
<rect class="cls-6" x="830.58" y="1476.11" width="1.19" height="11.97"/>
<rect class="cls-6" x="780.93" y="1476.11" width="1.19" height="11.97"/>
<path class="cls-7" d="M815.9,1512.19c-3.31,0-6,0-6,20.9v1.74h-7.1v-1.74c0-20.9-2.69-20.9-6-20.9v25.42h-4.7a21.15,21.15,0,0,0,28.5,0h-4.7Z"/>
<rect class="cls-7" x="782.12" y="1488.08" width="2.96" height="11.95" rx="1.48"/>
<rect class="cls-7" x="827.62" y="1488.08" width="2.96" height="11.95" rx="1.48"/>
</g>
</g>
</svg>