<svg xmlns="http://www.w3.org/2000/svg" viewBox="0 0 33.78 54.16"><defs><style>.cls-1{fill:#1d1d1b;fill-rule:evenodd;}</style></defs><g id="Layer_2" data-name="Layer 2"><g id="Layer_1-2" data-name="Layer 1"><path class="cls-1" d="M0,0H33.78V6.41H30.86c.53,9.84-3.89,14.74-7.57,20.38,3.07,6.24,8.25,10.38,7.57,20.38-.09,1.26,2.07.26,2.92.58v6.41H0V47.75H2.91C.2,37.26,9.67,33.55,9.9,27.37,10.13,21,.46,17.46,2.91,7,3,5.73.85,6.72,0,6.41ZM1.16,5.24c0,1.06,2.93-1.11,2.92,1.17-2.72,10.94,7.24,14.3,7,21-.24,6.33-9.9,10.12-7,21-1.1.25-3.51-.8-2.92,1.16V53H32.61V48.92c.26-1.62-3.17.45-2.91-1.17,2.68-10.93-7.19-14.12-7-21,.19-6.39,9.93-10.51,7-21.55,1.67-.82,3.18,1.81,2.91-.58V.58H1.16Z"/><path class="cls-1" d="M28,5.24c2.49,11.09-7.41,14.48-7.57,21.55-.16,7.26,9.79,10.38,7.57,21.55H5.82c-2.47-11,7.43-14,7.57-21,.15-7.21-10-10.72-7.57-22.13ZM7,6.41c-2,10.91,7.73,13.7,7.57,21C14.41,34.3,4.74,37.07,7,47.75h19.8c2-10.88-7.7-13.63-7.57-21,.12-7.15,9.52-9.79,7.57-20.38Z"/><path class="cls-1" d="M9.32,13.39c4.65-1,9.61.34,15.14-.58C23.5,21.19,10.76,21.72,9.32,13.39Z"/><path class="cls-1" d="M24.46,44.84c-1.87,1.46-12.37.22-15.14.58C9.83,30.79,23.15,30,24.46,44.84Z"/></g></g></svg>