<svg xmlns="http://www.w3.org/2000/svg" viewBox="0 0 41.19 60.05"><defs><style>.cls-1{fill:#1d1d1b;fill-rule:evenodd;}</style></defs><g id="Layer_2" data-name="Layer 2"><g id="Layer_1-2" data-name="Layer 1"><path class="cls-1" d="M.24,0H41.19V4.8c-1.76,12-9.82,17.72-17.65,23.66,8.06,6.75,16.33,13.3,17.65,26.79v4.8H1.56V58.49H0v-1.8c1-14.4,9.46-21.37,18.14-28.11C9.54,21.69-.19,15.92.24,0ZM3.36,3.48A21.83,21.83,0,0,0,7.69,14.89a13,13,0,0,0,2.4,2.89,22.93,22.93,0,0,0,4.8,1.56,21.35,21.35,0,0,0,11.41,0,22.47,22.47,0,0,0,5.05-1.56,11.49,11.49,0,0,0,2.4-2.89A20.14,20.14,0,0,0,38.07,3.12H3.6A.34.34,0,0,0,3.36,3.48ZM20.78,30.63C13.45,36.11,6.22,41.69,3.84,52.12c4.59-2.7,8.75-8.54,14.9-10,4.73-1.1,8.46,2,11.28,4.08,2,1.49,3.88,3,5.65,4.44.61.51,1.23,1.42,1.8,1.2C35.08,41.63,28,36,20.78,30.63Z"/></g></g></svg>