<svg xmlns="http://www.w3.org/2000/svg" viewBox="0 0 99.85 139.94"><defs><style>.cls-1{fill:#00afff;}</style></defs><g id="Layer_2" data-name="Layer 2"><g id="Layer_1-2" data-name="Layer 1"><path class="cls-1" d="M12.75,128.85v-1.56c0-13.29,3.45-22.67,8.13-29.67h0C25.55,90.62,31.37,86,35.94,82h0c3.06-2.67,5.53-5.07,6.84-7.54h0A9.27,9.27,0,0,0,43.93,70h0a10.6,10.6,0,0,0-2.55-6.65h0A52,52,0,0,0,34.6,56.6h0C29.13,51.77,22.32,46,17.78,36.6h0c-3-6.23-5-14-5-24h0V11.08H87.1v1.57C87.11,25.71,83.64,35,79,42h0c-4.66,7-10.48,11.68-15,15.77h0c-3,2.72-5.53,5.17-6.84,7.68h0A9.46,9.46,0,0,0,55.91,70h0a10.41,10.41,0,0,0,2.55,6.58h0a51.17,51.17,0,0,0,6.78,6.6h0C70.71,87.88,77.52,93.64,82.07,103h0c3,6.26,5,14.12,5,24.25h0v1.56Zm72.79-1.56v0ZM84,125.73c-.27-11.92-3.43-20.12-7.59-26.38h0c-4.36-6.53-9.87-10.94-14.53-15h0C58.74,81.61,56,79,54.31,75.91h0A12.51,12.51,0,0,1,52.79,70h0A13.8,13.8,0,0,1,56,61.41h0a54.77,54.77,0,0,1,7.2-7.16h0c5.49-4.84,11.84-10.33,16.07-19h0a49.68,49.68,0,0,0,4.7-21H15.89c.27,11.68,3.42,19.8,7.59,26.06h0c4.35,6.53,9.87,11,14.54,15.18h0c3.09,2.78,5.84,5.4,7.52,8.55h0a12.69,12.69,0,0,1,1.52,6h0a13.5,13.5,0,0,1-3.21,8.5h0a53.65,53.65,0,0,1-7.2,7h0c-5.49,4.75-11.84,10.15-16.06,18.89h0a50.53,50.53,0,0,0-4.7,21.33H84Z"/><path class="cls-1" d="M99.85.56a5.12,5.12,0,0,0,0-.56H0A5.12,5.12,0,0,0,0,.56C0,3.09,1.53,5.15,3.46,5.34,3.78,7.4,5.19,9,6.89,9H93c1.7,0,3.11-1.55,3.43-3.61C98.32,5.15,99.85,3.09,99.85.56Z"/><path class="cls-1" d="M96.39,134.6C96.07,132.54,94.66,131,93,131H6.89c-1.7,0-3.11,1.55-3.43,3.61-1.93.18-3.46,2.25-3.46,4.78a5.25,5.25,0,0,0,0,.56H99.82a5.25,5.25,0,0,0,0-.56C99.85,136.85,98.32,134.78,96.39,134.6Z"/><path class="cls-1" d="M74,123.73s-22.34-17-22.69-25.37c-.15-3.7-.51-9.23-.49-16.3,0-6.17,0-13.93,1-17.21,1.93-6.48,7.31-10,12.38-14.9,6.57-6.41,8.67-10.1,8.67-10.1H27.05s2.1,3.69,8.67,10.1c5.06,4.93,10.44,8.42,12.38,14.9,1,3.34,1,11,1,17.21,0,6.83-.32,12.24-.53,16.3-.41,7.8-22.69,25.37-22.69,25.37Z"/></g></g></svg>