<svg xmlns="http://www.w3.org/2000/svg" viewBox="0 0 131.03 157.79"><defs><style>.cls-1{fill:#64702c;}.cls-2{fill:none;stroke:#3f461c;stroke-linecap:round;stroke-linejoin:round;stroke-width:1.24px;}</style></defs><g id="Layer_2" data-name="Layer 2"><g id="Layer_6" data-name="Layer 6"><path class="cls-1" d="M91.55,66.24,131,105.72S91.55,116.22,91.55,66.24Z"/><path class="cls-1" d="M91.55,66.24V10.4S126.89,30.9,91.55,66.24Z"/><path class="cls-1" d="M91.55,157.79s-57.94-33.6,0-91.55v91.55"/><path class="cls-1" d="M26.81,131S9.61,66.24,91.55,66.24L26.81,131"/><path class="cls-1" d="M0,66.24s33.61-57.94,91.55,0H0"/><path class="cls-1" d="M26.81,1.51S91.55-15.7,91.55,66.24L26.81,1.51"/><path class="cls-2" d="M91.55,66.24s-39.75,6.5-57.92,40.4"/><polyline class="cls-2" points="40.74 83.99 52.83 83.99 52.83 102.05"/><polyline class="cls-2" points="48.08 80.48 57.58 80.48 57.58 90.18"/><polyline class="cls-2" points="65.8 71.36 74.73 71.36 74.73 78.81"/><path class="cls-2" d="M91.55,66.24S58.85,42.73,22,53.86"/><polyline class="cls-2" points="43.08 42.86 51.63 51.41 38.85 64.19"/><polyline class="cls-2" points="50.75 45.57 57.46 52.29 50.6 59.15"/><polyline class="cls-2" points="69.72 51.65 76.03 57.97 70.77 63.23"/><path class="cls-2" d="M91.55,66.24S85.06,26.49,51.15,8.32"/><polyline class="cls-2" points="73.81 15.43 73.81 27.52 55.74 27.52"/><polyline class="cls-2" points="77.32 22.77 77.32 32.27 67.61 32.27"/><polyline class="cls-2" points="86.43 40.49 86.43 49.42 78.98 49.42"/><path class="cls-2" d="M91.55,66.24S67.87,98.82,78.8,135.7"/><polyline class="cls-2" points="67.92 114.59 76.51 106.09 89.22 118.93"/><polyline class="cls-2" points="70.67 106.94 77.42 100.26 84.24 107.15"/><polyline class="cls-2" points="76.85 88 83.2 81.72 88.43 87.01"/></g></g></svg>