<svg xmlns="http://www.w3.org/2000/svg" viewBox="0 0 52.85 57.73"><defs><style>.cls-1,.cls-2{fill:#1d1d1b;}.cls-1{fill-rule:evenodd;}</style></defs><g id="Layer_2" data-name="Layer 2"><g id="Layer_1-2" data-name="Layer 1"><path class="cls-1" d="M3.38,56H5.06v1.69H3.38Z"/><path class="cls-1" d="M48,9.73v4.4c-5.61,3.67-11.25,7.31-16.49,11.36-1.47.12-3.77-.59-3.29,1.47C35.88,30,41.36,35.31,48,39.41v3.67c4.32,1.59,6,4.66,4,7.69-2.28,3.51-15.41,1.84-24.55,1.84-9.57,0-25.21,2.47-24.91-4.77.09-2.23,1.76-3.92,4.76-4.4V39.05c4.89-3.18,10-6.14,14.29-9.89H0v-15H7c.68-.79.25-2.68.37-4C2.36,9.56.09,2,6.6.57,12.44-.72,21,.57,30.41.57,37.72.57,49.9-.84,52,2.41,53.76,5,52.78,8.84,48,9.73ZM29,3.87H7.33C7,4.26,6,4,6.23,5c1.27,2.48,5.88,1.47,9.53,1.47H39.21c3.75,0,8.14,1,10.26-1.47C43.76,3,36.24,3.87,29,3.87ZM1.47,15.23V28.06H27.12V15.23ZM36.64,36.12c-3.64-2.55-6.87-6.84-12.46-4-2.29,1-4.05,2.88-6.23,4.39-1.88,1.31-5.84,2-4.76,6.23H41.77C43.2,38.92,39.17,37.88,36.64,36.12ZM29,46.74c-7.56,0-17-.28-22.35.37-.29.08-.43.31-.37.73,1.08,2.53,5.85,1.47,9.16,1.47H38.84c3.84,0,8.9,1.09,10.26-1.47C43.64,45.87,36.33,46.74,29,46.74Z"/><path class="cls-2" d="M7.94,22.1c0,2.14-.8,3.33-2.19,3.33-1.23,0-2.08-1.16-2.1-3.24s.93-3.28,2.21-3.28S7.94,20.09,7.94,22.1Zm-3.42.1c0,1.64.5,2.57,1.28,2.57s1.28-1,1.28-2.63-.39-2.57-1.28-2.57C5.06,19.57,4.52,20.48,4.52,22.2Z"/><path class="cls-2" d="M12.92,22.1c0,2.14-.8,3.33-2.19,3.33-1.23,0-2.08-1.16-2.1-3.24s.93-3.28,2.21-3.28S12.92,20.09,12.92,22.1Zm-3.42.1c0,1.64.5,2.57,1.28,2.57s1.28-1,1.28-2.63-.39-2.57-1.28-2.57C10,19.57,9.5,20.48,9.5,22.2Z"/><path class="cls-2" d="M13.78,21.4a.57.57,0,0,1,.57-.61.61.61,0,0,1,0,1.21A.56.56,0,0,1,13.78,21.4Zm0,3.43a.57.57,0,0,1,.57-.61.61.61,0,0,1,0,1.21A.56.56,0,0,1,13.78,24.83Z"/><path class="cls-2" d="M19.91,22.1c0,2.14-.81,3.33-2.19,3.33s-2.08-1.16-2.1-3.24.92-3.28,2.2-3.28S19.91,20.09,19.91,22.1Zm-3.43.1c0,1.64.51,2.57,1.29,2.57s1.28-1,1.28-2.63-.39-2.57-1.28-2.57C17,19.57,16.48,20.48,16.48,22.2Z"/><path class="cls-2" d="M24.89,22.1c0,2.14-.81,3.33-2.19,3.33s-2.08-1.16-2.1-3.24.92-3.28,2.2-3.28S24.89,20.09,24.89,22.1Zm-3.43.1c0,1.64.51,2.57,1.28,2.57s1.28-1,1.28-2.63-.38-2.57-1.28-2.57C22,19.57,21.46,20.48,21.46,22.2Z"/></g></g></svg>