<svg xmlns="http://www.w3.org/2000/svg" viewBox="0 0 99.91 175.79"><defs><style>.cls-1,.cls-5{fill:none;stroke:#ff4fc2;stroke-miterlimit:10;}.cls-1{stroke-width:2px;}.cls-2{fill:#f9ed32;}.cls-3{fill:#000005;}.cls-4{fill:#ff4fc2;}.cls-5{stroke-width:9.09px;}</style></defs><g id="Layer_2" data-name="Layer 2"><g id="Layer_7" data-name="Layer 7"><polyline class="cls-1" points="61.39 67.64 61.39 171.34 47.9 174.82"/><path class="cls-2" d="M11.44,11.63,3.29,17.54A8,8,0,0,0,.08,25.11l1.28,9.08,5.15-6.76A8,8,0,0,1,8.17,25.8l8.88-6.43Z"/><path class="cls-3" d="M5.62,23.34a12.66,12.66,0,0,1-2.39-5.75A8,8,0,0,0,.08,25.11l1.28,9.08,5.15-6.76a8.28,8.28,0,0,1,1.57-1.56A17.81,17.81,0,0,1,5.62,23.34Z"/><path class="cls-4" d="M99.91,74.55c-.15-17.92-15.64-32.4-34.72-32.4S30.63,56.63,30.47,74.55Z"/><path class="cls-5" d="M44.21,70H31a10.21,10.21,0,0,1-8.9-15.22l19.71-35A10.22,10.22,0,0,0,39.56,7h0A10.21,10.21,0,0,0,27.7,6L13.51,14.35"/><ellipse class="cls-4" cx="17.26" cy="13.76" rx="8.74" ry="7.8"/><polyline class="cls-1" points="60.97 74.55 95.81 103.28 44.16 103.28 44.16 115.16"/><ellipse class="cls-4" cx="61.31" cy="124.94" rx="2.1" ry="4.11"/><ellipse class="cls-4" cx="95.16" cy="102.82" rx="4.11" ry="2.1"/></g></g></svg>