<svg xmlns="http://www.w3.org/2000/svg" viewBox="0 0 1001.38 586.6"><defs><style>.cls-1{fill:#fbb040;}.cls-2{fill:#f7941e;}.cls-3{fill:#f15a29;}.cls-4,.cls-5,.cls-6,.cls-7,.cls-8{fill:none;}.cls-4,.cls-5{stroke:#f15a29;}.cls-4,.cls-5,.cls-6,.cls-8{stroke-miterlimit:10;}.cls-4{stroke-width:1.46px;}.cls-5{stroke-width:1.7px;}.cls-6,.cls-7,.cls-8{stroke:#5c5c5c;}.cls-6{stroke-width:10px;}.cls-7{stroke-linecap:round;stroke-linejoin:round;}.cls-7,.cls-8{stroke-width:10.42px;}</style></defs><g id="Layer_2" data-name="Layer 2"><g id="Layer_1-2" data-name="Layer 1"><polygon class="cls-1" points="794.32 2.17 1001.38 50.34 1001.38 2.17 794.32 2.17"/><polygon class="cls-2" points="717.9 2.17 676.54 441.5 748.94 441.16 733.63 586.6 1001.38 586.6 1001.38 2.17 717.9 2.17"/><polygon class="cls-3" points="786.49 2.17 757.95 2.17 717.53 441.17 748.94 441.17 786.49 2.17"/><path class="cls-4" d="M735.18,9.17c-12.82,87.73-25.82,343.9-39.06,432.24"/><polygon class="cls-1" points="843.41 2.17 802.57 586.6 851.11 586.6 863.94 2.17 843.41 2.17"/><polygon class="cls-1" points="0 8.48 0 22.6 272.73 12.88 273.29 8.48 0 8.48"/><polygon class="cls-2" points="305.5 8.48 0 8.48 0 529.84 279.11 529.84 275.89 439.16 336.02 439.71 305.5 8.48"/><polygon class="cls-3" points="245.22 8.48 278.26 529.28 278.26 439.18 301.97 439.18 271.48 8.48 245.22 8.48"/><path class="cls-5" d="M288.34,8.66c9,82.48,22.29,348,31.41,430.41"/><rect class="cls-3" x="37.26" y="8.48" width="36.68" height="521.36"/><polygon class="cls-1" points="180.64 8.48 180.64 529.84 220.95 529.84 197.37 8.48 180.64 8.48"/><line class="cls-6" y1="5" x2="1001.38" y2="5"/><polyline class="cls-7" points="345.45 423.88 345.45 6.85 391.44 46.62"/><polyline class="cls-7" points="667.02 423.88 667.02 6.85 618.02 52.07"/><path class="cls-8" d="M667,441.27V167.63A160.78,160.78,0,0,0,506.24,6.85h0A160.78,160.78,0,0,0,345.46,167.63V441.27"/><line class="cls-7" x1="345.46" y1="61.99" x2="300.81" y2="61.99"/><line class="cls-7" x1="717.62" y1="61.99" x2="666.95" y2="61.99"/><line class="cls-7" x1="315.78" y1="196.02" x2="345.46" y2="196.02"/><line class="cls-7" x1="667.66" y1="196.02" x2="697.34" y2="196.02"/></g></g></svg>