<svg xmlns="http://www.w3.org/2000/svg" viewBox="0 0 54.06 99.85"><defs><style>.cls-1{fill:#aabd40;}</style></defs><g id="Layer_2" data-name="Layer 2"><g id="Layer_8" data-name="Layer 8"><path class="cls-1" d="M33.21,99.85V5.69a5.69,5.69,0,1,0-11.37,0V99.85Z"/><path class="cls-1" d="M27.52,54.58h-18A9.49,9.49,0,0,1,0,45.1v-22a5.69,5.69,0,1,1,11.37,0V43.21H27.52a5.69,5.69,0,1,1,0,11.37Z"/><path class="cls-1" d="M44.59,62.75H27.52a5.69,5.69,0,0,1,0-11.37H42.69v-21a5.69,5.69,0,1,1,11.37,0V53.28A9.48,9.48,0,0,1,44.59,62.75Z"/></g></g></svg>