<svg xmlns="http://www.w3.org/2000/svg" viewBox="0 0 1114.59 762.77"><defs><style>.cls-1{isolation:isolate;}.cls-2,.cls-5{fill:#555560;}.cls-2{opacity:0.2;mix-blend-mode:multiply;}.cls-3{fill:#938a9a;}.cls-4{fill:#f9ed32;}</style></defs><g class="cls-1"><g id="Layer_2" data-name="Layer 2"><g id="Layer_7" data-name="Layer 7"><rect class="cls-2" y="740.17" width="1114.59" height="22.6"/><rect class="cls-3" y="333.35" width="1114.59" height="80.98"/><path class="cls-3" d="M1089.44,26.66c-1.24-11.7-16.57-20.95-35.3-20.95s-34.06,9.25-35.3,21Z"/><path class="cls-3" d="M943.67,311.5l.44-17.15c.25-10.91.6-26.5,1-45.21s.77-40.53,1.21-63.91c.21-11.69.43-23.78.64-36s.36-24.75.54-37.22c.36-24.94.72-49.88,1.05-73.27l0-1.09v-.71l0-.55.13-2.17a19.92,19.92,0,0,1,.29-2.36c.14-.81.24-1.64.42-2.42l.6-2.27c.11-.38.2-.76.32-1.13l.4-1.09.83-2.18c.34-.69.68-1.38,1-2.07A36.81,36.81,0,0,1,964.28,7.21,35.89,35.89,0,0,1,979.84.89l2-.29,2-.1c.66,0,1.35-.07,2-.08h9c9.35,0,17.92,0,25.52,0s14.23-.12,19.68-.16l12.67-.15,4.48-.08V6.51l-4.48-.08-12.67-.15c-5.45,0-12.08-.15-19.68-.17s-16.17-.05-25.52,0h-9c-.6,0-1.14.06-1.71.09l-1.71.1-1.7.27a30.52,30.52,0,0,0-22.56,16.86l-.82,1.74L956.73,27l-.32.91c-.09.31-.16.63-.24.94l-.46,1.89c-.13.62-.18,1.22-.28,1.84a13.16,13.16,0,0,0-.22,1.94l-.09,2.18,0,.55c0-.29,0,0,0,0v.41l0,1.09c.33,23.39.69,48.33,1,73.27.18,12.47.36,24.94.54,37.22s.43,24.36.64,36c.44,23.38.86,45.2,1.21,63.91s.78,34.3,1,45.21L960,311.5Z"/><path class="cls-4" d="M1039.24,26c.76,7.21,10.2,12.91,21.75,12.91s21-5.7,21.74-12.91Z"/><rect class="cls-3" x="939.52" y="283.28" width="24.36" height="69.98"/><path class="cls-3" d="M302.28,26.66C301,15,285.71,5.71,267,5.71s-34.06,9.25-35.3,21Z"/><path class="cls-3" d="M156.51,311.5l.44-17.15c.25-10.91.6-26.5,1-45.21s.77-40.53,1.21-63.91c.21-11.69.43-23.78.64-36s.36-24.75.54-37.22c.36-24.94.72-49.88,1-73.27l0-1.09v-.71l0-.55.13-2.17a19.92,19.92,0,0,1,.29-2.36c.14-.81.24-1.64.42-2.42l.6-2.27c.11-.38.2-.76.32-1.13l.4-1.09.83-2.18c.34-.69.68-1.38,1-2.07A36.81,36.81,0,0,1,177.12,7.21,35.89,35.89,0,0,1,192.68.89l2-.29,2-.1c.66,0,1.35-.07,2-.08h9c9.35,0,17.92,0,25.52,0S247.45.27,252.9.23L265.57.08,270.05,0V6.51l-4.48-.08L252.9,6.28c-5.45,0-12.08-.15-19.68-.17s-16.17-.05-25.52,0h-9c-.6,0-1.14.06-1.71.09l-1.71.1-1.7.27A30.52,30.52,0,0,0,171,23.41l-.82,1.74L169.57,27l-.32.91c-.09.31-.16.63-.24.94l-.46,1.89c-.13.62-.18,1.22-.28,1.84a13.16,13.16,0,0,0-.22,1.94L168,36.67l0,.55c0-.29,0,0,0,0v.41l0,1.09C168.3,62.08,168.66,87,169,112c.18,12.47.36,24.94.54,37.22s.43,24.36.64,36c.44,23.38.86,45.2,1.21,63.91s.78,34.3,1,45.21l.44,17.15Z"/><path class="cls-4" d="M252.08,26c.76,7.21,10.2,12.91,21.75,12.91s21-5.7,21.74-12.91Z"/><rect class="cls-3" x="152.36" y="283.28" width="24.36" height="69.98"/><rect class="cls-3" x="125.79" y="414.34" width="77.29" height="348.43"/><rect class="cls-3" x="909.76" y="414.34" width="77.29" height="348.43"/><rect class="cls-5" x="125.79" y="414.34" width="77.29" height="39.43"/><rect class="cls-5" x="909.76" y="414.34" width="77.29" height="39.43"/></g></g></g></svg>