<svg xmlns="http://www.w3.org/2000/svg" xmlns:xlink="http://www.w3.org/1999/xlink" viewBox="0 0 1474.72 3581.19"><defs><style>.cls-1,.cls-13,.cls-21,.cls-22,.cls-23,.cls-27,.cls-32,.cls-36,.cls-37,.cls-38,.cls-7,.cls-8{fill:none;}.cls-2{fill:#31b6ff;}.cls-3{fill:#2a9ddb;}.cls-4{fill:#d8ccb4;}.cls-5{fill:#c8b585;}.cls-6{fill:#b5f930;}.cls-7{stroke:#353542;stroke-width:240px;}.cls-16,.cls-17,.cls-18,.cls-20,.cls-21,.cls-22,.cls-23,.cls-27,.cls-32,.cls-7,.cls-8{stroke-miterlimit:10;}.cls-8{stroke:#f9ed32;}.cls-13,.cls-38,.cls-8{stroke-width:5px;}.cls-9{fill:url(#VM-Vintage-Wood-04.4);}.cls-10{fill:url(#New_Pattern_Swatch_2);}.cls-11{fill:#e9eaeb;}.cls-12{fill:#353542;}.cls-13{stroke:#809038;}.cls-13,.cls-36,.cls-37,.cls-38{stroke-linecap:round;stroke-linejoin:round;}.cls-14,.cls-16,.cls-18{fill:#fff;}.cls-15{fill:#5dc2a6;}.cls-16,.cls-17,.cls-18,.cls-22,.cls-23{stroke:#5dc2a6;}.cls-16,.cls-17{stroke-width:5.56px;}.cls-17,.cls-19,.cls-20{fill:#4a3745;}.cls-18{stroke-width:6.67px;}.cls-20,.cls-21{stroke:#fff;}.cls-20{stroke-width:8.15px;}.cls-21{stroke-width:11.12px;}.cls-22{stroke-width:23.38px;}.cls-23{stroke-width:23.23px;}.cls-24{fill:#bfbdfe;}.cls-25{fill:#e51491;}.cls-26{fill:#06182b;}.cls-27{stroke:#bfbdfe;stroke-width:6.78px;}.cls-28{fill:#5b6628;}.cls-29{fill:#afc639;}.cls-30{fill:#e6e7e8;}.cls-31{fill:#938a9a;}.cls-32{stroke:#5a555e;stroke-width:1.73px;}.cls-33{fill:#a97c50;}.cls-34{fill:#b06d38;}.cls-35{fill:#573218;}.cls-36{stroke:#6b3e1e;}.cls-36,.cls-37{stroke-width:1.66px;}.cls-37{stroke:#5b6628;}.cls-38{stroke:#b5f930;}</style><pattern id="VM-Vintage-Wood-04.4" data-name="VM-Vintage-Wood-04.4" width="106" height="95" patternTransform="translate(0 -144)" patternUnits="userSpaceOnUse" viewBox="0 0 106 95"><rect class="cls-1" width="106" height="95"/><rect class="cls-4" width="106" height="95"/><rect class="cls-5" width="1" height="7"/><rect class="cls-5" x="23" y="2" width="1" height="7"/><rect class="cls-5" x="4" y="16" width="1" height="7"/><rect class="cls-5" x="23" y="14" width="1" height="7"/><rect class="cls-5" x="19" y="11" width="1" height="7"/><rect class="cls-5" x="13" width="1" height="7"/><rect class="cls-5" x="7" y="4" width="1" height="3"/><rect class="cls-5" x="23" y="10" width="1" height="3"/><rect class="cls-5" y="17" width="1" height="3"/><rect class="cls-5" x="4" y="8" width="1" height="2"/><rect class="cls-5" x="13" y="17" width="1" height="2"/><rect class="cls-5" x="13" y="21" width="1" height="1"/><rect class="cls-5" x="4" y="13" width="1" height="1"/><rect class="cls-5" y="15" width="1" height="1"/><rect class="cls-5" y="8" width="1" height="1"/><rect class="cls-5" x="13" y="8" width="1" height="1"/><rect class="cls-5" x="19" y="4" width="1" height="1"/><rect class="cls-5" y="11" width="1" height="2"/><rect class="cls-5" x="19" y="7" width="1" height="2"/><rect class="cls-5" x="19" y="21" width="1" height="2"/><rect class="cls-5" x="19" width="1" height="2"/><rect class="cls-5" x="4" y="1" width="1" height="2"/><rect class="cls-5" x="10" y="10" width="1" height="5"/><rect class="cls-5" x="50" y="16" width="1" height="7"/><rect class="cls-5" x="27" y="16" width="1" height="5"/><rect class="cls-5" x="46" width="1" height="7"/><rect class="cls-5" x="27" y="2" width="1" height="4"/><rect class="cls-5" x="33" y="5" width="1" height="7"/><rect class="cls-5" x="39" y="16" width="1" height="7"/><rect class="cls-5" x="46" y="16" width="1" height="3"/><rect class="cls-5" x="27" y="8" width="1" height="3"/><rect class="cls-5" x="50" y="1" width="1" height="3"/><rect class="cls-5" x="46" y="11" width="1" height="2"/><rect class="cls-5" x="39" y="3" width="1" height="2"/><rect class="cls-5" x="39" y="1" width="1" height="1"/><rect class="cls-5" x="46" y="9" width="1" height="1"/><rect class="cls-5" x="50" y="8" width="1" height="1"/><rect class="cls-5" x="50" y="13" width="1" height="1"/><rect class="cls-5" x="36" y="13" width="1" height="1"/><rect class="cls-5" x="42" y="14" width="1" height="1"/><rect class="cls-5" x="50" y="10" width="1" height="2"/><rect class="cls-5" x="33" y="15" width="1" height="2"/><rect class="cls-5" x="33" width="1" height="2"/><rect class="cls-5" x="33" y="21" width="1" height="2"/><rect class="cls-5" x="46" y="20" width="1" height="2"/><rect class="cls-5" x="42" y="6" width="1" height="5"/><rect class="cls-5" y="22" width="1" height="7"/><rect class="cls-5" x="23" y="26" width="1" height="7"/><rect class="cls-5" x="4" y="40" width="1" height="5"/><rect class="cls-5" x="23" y="38" width="1" height="7"/><rect class="cls-5" x="19" y="35" width="1" height="7"/><rect class="cls-5" x="13" y="23" width="1" height="7"/><rect class="cls-5" x="7" y="28" width="1" height="3"/><rect class="cls-5" x="23" y="34" width="1" height="3"/><rect class="cls-5" y="41" width="1" height="3"/><rect class="cls-5" x="4" y="32" width="1" height="2"/><rect class="cls-5" x="10" y="41" width="1" height="2"/><rect class="cls-5" x="13" y="45" width="1" height="1"/><rect class="cls-5" x="7" y="36" width="1" height="1"/><rect class="cls-5" y="39" width="1" height="1"/><rect class="cls-5" y="32" width="1" height="1"/><rect class="cls-5" x="16" y="32" width="1" height="1"/><rect class="cls-5" x="30" y="27" width="1" height="1"/><rect class="cls-5" y="35" width="1" height="2"/><rect class="cls-5" x="19" y="27" width="1" height="2"/><rect class="cls-5" x="19" y="45" width="1" height="2"/><rect class="cls-5" x="23" y="23" width="1" height="2"/><rect class="cls-5" x="4" y="25" width="1" height="2"/><rect class="cls-5" x="13" y="34" width="1" height="5"/><rect class="cls-5" x="50" y="40" width="1" height="7"/><rect class="cls-5" x="27" y="43" width="1" height="5"/><rect class="cls-5" x="46" y="24" width="1" height="7"/><rect class="cls-5" x="27" y="22" width="1" height="4"/><rect class="cls-5" x="33" y="29" width="1" height="7"/><rect class="cls-5" x="39" y="38" width="1" height="7"/><rect class="cls-5" x="46" y="40" width="1" height="3"/><rect class="cls-5" x="27" y="32" width="1" height="3"/><rect class="cls-5" x="50" y="25" width="1" height="3"/><rect class="cls-5" x="46" y="35" width="1" height="2"/><rect class="cls-5" x="39" y="27" width="1" height="2"/><rect class="cls-5" x="39" y="25" width="1" height="1"/><rect class="cls-5" x="46" y="33" width="1" height="1"/><rect class="cls-5" x="50" y="32" width="1" height="1"/><rect class="cls-5" x="50" y="37" width="1" height="1"/><rect class="cls-5" x="46" y="38" width="1" height="1"/><rect class="cls-5" x="27" y="39" width="1" height="1"/><rect class="cls-5" x="50" y="34" width="1" height="2"/><rect class="cls-5" x="33" y="37" width="1" height="2"/><rect class="cls-5" x="33" y="24" width="1" height="2"/><rect class="cls-5" x="33" y="45" width="1" height="2"/><rect class="cls-5" x="46" y="44" width="1" height="2"/><rect class="cls-5" x="42" y="30" width="1" height="5"/><rect class="cls-5" y="46" width="1" height="7"/><rect class="cls-5" x="23" y="50" width="1" height="7"/><rect class="cls-5" x="4" y="64" width="1" height="7"/><rect class="cls-5" x="23" y="62" width="1" height="7"/><rect class="cls-5" x="19" y="59" width="1" height="7"/><rect class="cls-5" x="13" y="47" width="1" height="7"/><rect class="cls-5" x="7" y="52" width="1" height="3"/><rect class="cls-5" x="23" y="58" width="1" height="3"/><rect class="cls-5" y="65" width="1" height="3"/><rect class="cls-5" x="4" y="56" width="1" height="2"/><rect class="cls-5" x="13" y="65" width="1" height="2"/><rect class="cls-5" x="13" y="69" width="1" height="1"/><rect class="cls-5" x="4" y="61" width="1" height="1"/><rect class="cls-5" y="63" width="1" height="1"/><rect class="cls-5" y="56" width="1" height="1"/><rect class="cls-5" x="13" y="56" width="1" height="1"/><rect class="cls-5" x="19" y="52" width="1" height="1"/><rect class="cls-5" y="59" width="1" height="2"/><rect class="cls-5" x="19" y="55" width="1" height="2"/><rect class="cls-5" x="19" y="69" width="1" height="2"/><rect class="cls-5" x="19" y="48" width="1" height="2"/><rect class="cls-5" x="4" y="49" width="1" height="2"/><rect class="cls-5" x="10" y="58" width="1" height="5"/><rect class="cls-5" x="50" y="64" width="1" height="7"/><rect class="cls-5" x="27" y="64" width="1" height="5"/><rect class="cls-5" x="46" y="48" width="1" height="7"/><rect class="cls-5" x="27" y="50" width="1" height="4"/><rect class="cls-5" x="33" y="53" width="1" height="7"/><rect class="cls-5" x="39" y="64" width="1" height="7"/><rect class="cls-5" x="46" y="64" width="1" height="3"/><rect class="cls-5" x="27" y="56" width="1" height="3"/><rect class="cls-5" x="50" y="49" width="1" height="3"/><rect class="cls-5" x="46" y="59" width="1" height="2"/><rect class="cls-5" x="39" y="51" width="1" height="2"/><rect class="cls-5" x="39" y="49" width="1" height="1"/><rect class="cls-5" x="46" y="57" width="1" height="1"/><rect class="cls-5" x="50" y="56" width="1" height="1"/><rect class="cls-5" x="50" y="61" width="1" height="1"/><rect class="cls-5" x="36" y="61" width="1" height="1"/><rect class="cls-5" x="42" y="62" width="1" height="1"/><rect class="cls-5" x="27" y="61" width="1" height="1"/><rect class="cls-5" x="50" y="58" width="1" height="2"/><rect class="cls-5" x="33" y="63" width="1" height="2"/><rect class="cls-5" x="33" y="48" width="1" height="2"/><rect class="cls-5" x="33" y="67" width="1" height="2"/><rect class="cls-5" x="46" y="68" width="1" height="2"/><rect class="cls-5" x="42" y="54" width="1" height="5"/><rect class="cls-5" y="70" width="1" height="7"/><rect class="cls-5" x="23" y="74" width="1" height="7"/><rect class="cls-5" x="4" y="88" width="1" height="5"/><rect class="cls-5" x="23" y="86" width="1" height="7"/><rect class="cls-5" x="19" y="84" width="1" height="6"/><rect class="cls-5" x="13" y="71" width="1" height="7"/><rect class="cls-5" x="7" y="76" width="1" height="3"/><rect class="cls-5" x="23" y="82" width="1" height="3"/><rect class="cls-5" y="89" width="1" height="3"/><rect class="cls-5" x="4" y="80" width="1" height="2"/><rect class="cls-5" x="10" y="89" width="1" height="2"/><rect class="cls-5" x="13" y="93" width="1" height="1"/><rect class="cls-5" x="7" y="84" width="1" height="1"/><rect class="cls-5" y="87" width="1" height="1"/><rect class="cls-5" y="80" width="1" height="1"/><rect class="cls-5" x="16" y="80" width="1" height="1"/><rect class="cls-5" x="30" y="75" width="1" height="1"/><rect class="cls-5" y="83" width="1" height="2"/><rect class="cls-5" x="19" y="75" width="1" height="2"/><rect class="cls-5" x="19" y="93" width="1" height="2"/><rect class="cls-5" x="23" y="71" width="1" height="2"/><rect class="cls-5" x="4" y="73" width="1" height="2"/><rect class="cls-5" x="13" y="82" width="1" height="5"/><rect class="cls-5" x="50" y="88" width="1" height="7"/><rect class="cls-5" x="27" y="86" width="1" height="5"/><rect class="cls-5" x="46" y="72" width="1" height="7"/><rect class="cls-5" x="27" y="70" width="1" height="4"/><rect class="cls-5" x="33" y="77" width="1" height="7"/><rect class="cls-5" x="39" y="88" width="1" height="7"/><rect class="cls-5" x="46" y="88" width="1" height="3"/><rect class="cls-5" x="27" y="80" width="1" height="3"/><rect class="cls-5" x="50" y="73" width="1" height="3"/><rect class="cls-5" x="46" y="83" width="1" height="2"/><rect class="cls-5" x="39" y="75" width="1" height="2"/><rect class="cls-5" x="39" y="73" width="1" height="1"/><rect class="cls-5" x="46" y="81" width="1" height="1"/><rect class="cls-5" x="50" y="80" width="1" height="1"/><rect class="cls-5" x="50" y="85" width="1" height="1"/><rect class="cls-5" x="46" y="86" width="1" height="1"/><rect class="cls-5" x="42" y="85" width="1" height="1"/><rect class="cls-5" x="50" y="82" width="1" height="2"/><rect class="cls-5" x="33" y="87" width="1" height="2"/><rect class="cls-5" x="33" y="72" width="1" height="2"/><rect class="cls-5" x="30" y="92" width="1" height="2"/><rect class="cls-5" x="46" y="92" width="1" height="2"/><rect class="cls-5" x="42" y="78" width="1" height="5"/><rect class="cls-5" x="54" width="1" height="7"/><rect class="cls-5" x="77" y="2" width="1" height="7"/><rect class="cls-5" x="58" y="16" width="1" height="7"/><rect class="cls-5" x="77" y="14" width="1" height="7"/><rect class="cls-5" x="70" y="11" width="1" height="7"/><rect class="cls-5" x="67" width="1" height="7"/><rect class="cls-5" x="61" y="4" width="1" height="3"/><rect class="cls-5" x="73" y="12" width="1" height="3"/><rect class="cls-5" x="54" y="17" width="1" height="3"/><rect class="cls-5" x="58" y="8" width="1" height="2"/><rect class="cls-5" x="67" y="17" width="1" height="2"/><rect class="cls-5" x="67" y="21" width="1" height="1"/><rect class="cls-5" x="58" y="13" width="1" height="1"/><rect class="cls-5" x="54" y="15" width="1" height="1"/><rect class="cls-5" x="54" y="8" width="1" height="1"/><rect class="cls-5" x="67" y="8" width="1" height="1"/><rect class="cls-5" x="70" y="4" width="1" height="1"/><rect class="cls-5" x="54" y="11" width="1" height="2"/><rect class="cls-5" x="73" y="7" width="1" height="2"/><rect class="cls-5" x="73" y="21" width="1" height="2"/><rect class="cls-5" x="73" width="1" height="2"/><rect class="cls-5" x="58" y="1" width="1" height="2"/><rect class="cls-5" x="64" y="10" width="1" height="5"/><rect class="cls-5" x="104" y="16" width="1" height="7"/><rect class="cls-5" x="81" y="16" width="1" height="5"/><rect class="cls-5" x="100" width="1" height="7"/><rect class="cls-5" x="81" y="2" width="1" height="4"/><rect class="cls-5" x="87" y="5" width="1" height="7"/><rect class="cls-5" x="93" y="16" width="1" height="7"/><rect class="cls-5" x="100" y="16" width="1" height="3"/><rect class="cls-5" x="81" y="8" width="1" height="3"/><rect class="cls-5" x="104" y="1" width="1" height="3"/><rect class="cls-5" x="100" y="11" width="1" height="2"/><rect class="cls-5" x="93" y="3" width="1" height="2"/><rect class="cls-5" x="93" y="1" width="1" height="1"/><rect class="cls-5" x="100" y="9" width="1" height="1"/><rect class="cls-5" x="104" y="8" width="1" height="1"/><rect class="cls-5" x="104" y="13" width="1" height="1"/><rect class="cls-5" x="90" y="13" width="1" height="1"/><rect class="cls-5" x="96" y="14" width="1" height="1"/><rect class="cls-5" x="104" y="10" width="1" height="2"/><rect class="cls-5" x="87" y="15" width="1" height="2"/><rect class="cls-5" x="87" width="1" height="2"/><rect class="cls-5" x="87" y="21" width="1" height="2"/><rect class="cls-5" x="100" y="20" width="1" height="2"/><rect class="cls-5" x="96" y="6" width="1" height="5"/><rect class="cls-5" x="54" y="22" width="1" height="7"/><rect class="cls-5" x="77" y="26" width="1" height="7"/><rect class="cls-5" x="58" y="40" width="1" height="5"/><rect class="cls-5" x="70" y="56" width="1" height="7"/><rect class="cls-5" x="73" y="35" width="1" height="7"/><rect class="cls-5" x="67" y="23" width="1" height="7"/><rect class="cls-5" x="61" y="28" width="1" height="3"/><rect class="cls-5" x="70" y="48" width="1" height="3"/><rect class="cls-5" x="54" y="41" width="1" height="3"/><rect class="cls-5" x="58" y="32" width="1" height="2"/><rect class="cls-5" x="64" y="41" width="1" height="2"/><rect class="cls-5" x="67" y="45" width="1" height="1"/><rect class="cls-5" x="61" y="36" width="1" height="1"/><rect class="cls-5" x="54" y="39" width="1" height="1"/><rect class="cls-5" x="54" y="32" width="1" height="1"/><rect class="cls-5" x="70" y="32" width="1" height="1"/><rect class="cls-5" x="84" y="27" width="1" height="1"/><rect class="cls-5" x="54" y="35" width="1" height="2"/><rect class="cls-5" x="73" y="27" width="1" height="2"/><rect class="cls-5" x="73" y="45" width="1" height="2"/><rect class="cls-5" x="70" y="42" width="1" height="2"/><rect class="cls-5" x="58" y="25" width="1" height="2"/><rect class="cls-5" x="67" y="34" width="1" height="5"/><rect class="cls-5" x="104" y="40" width="1" height="7"/><rect class="cls-5" x="81" y="43" width="1" height="5"/><rect class="cls-5" x="100" y="24" width="1" height="7"/><rect class="cls-5" x="81" y="22" width="1" height="4"/><rect class="cls-5" x="87" y="29" width="1" height="7"/><rect class="cls-5" x="93" y="36" width="1" height="7"/><rect class="cls-5" x="100" y="40" width="1" height="3"/><rect class="cls-5" x="81" y="32" width="1" height="3"/><rect class="cls-5" x="104" y="25" width="1" height="3"/><rect class="cls-5" x="100" y="35" width="1" height="2"/><rect class="cls-5" x="93" y="27" width="1" height="2"/><rect class="cls-5" x="93" y="25" width="1" height="1"/><rect class="cls-5" x="100" y="33" width="1" height="1"/><rect class="cls-5" x="104" y="32" width="1" height="1"/><rect class="cls-5" x="104" y="37" width="1" height="1"/><rect class="cls-5" x="100" y="38" width="1" height="1"/><rect class="cls-5" x="81" y="39" width="1" height="1"/><rect class="cls-5" x="104" y="34" width="1" height="2"/><rect class="cls-5" x="87" y="39" width="1" height="2"/><rect class="cls-5" x="87" y="24" width="1" height="2"/><rect class="cls-5" x="87" y="42" width="1" height="2"/><rect class="cls-5" x="100" y="44" width="1" height="2"/><rect class="cls-5" x="96" y="30" width="1" height="5"/><rect class="cls-5" x="54" y="46" width="1" height="7"/><rect class="cls-5" x="77" y="50" width="1" height="7"/><rect class="cls-5" x="58" y="64" width="1" height="7"/><rect class="cls-5" x="77" y="62" width="1" height="7"/><rect class="cls-5" x="73" y="59" width="1" height="7"/><rect class="cls-5" x="67" y="47" width="1" height="7"/><rect class="cls-5" x="61" y="52" width="1" height="3"/><rect class="cls-5" x="77" y="58" width="1" height="3"/><rect class="cls-5" x="54" y="65" width="1" height="3"/><rect class="cls-5" x="58" y="56" width="1" height="2"/><rect class="cls-5" x="67" y="65" width="1" height="2"/><rect class="cls-5" x="67" y="69" width="1" height="1"/><rect class="cls-5" x="58" y="61" width="1" height="1"/><rect class="cls-5" x="54" y="63" width="1" height="1"/><rect class="cls-5" x="54" y="54" width="1" height="1"/><rect class="cls-5" x="67" y="56" width="1" height="1"/><rect class="cls-5" x="73" y="52" width="1" height="1"/><rect class="cls-5" x="54" y="59" width="1" height="2"/><rect class="cls-5" x="70" y="68" width="1" height="2"/><rect class="cls-5" x="73" y="69" width="1" height="2"/><rect class="cls-5" x="73" y="48" width="1" height="2"/><rect class="cls-5" x="58" y="49" width="1" height="2"/><rect class="cls-5" x="64" y="58" width="1" height="5"/><rect class="cls-5" x="104" y="64" width="1" height="7"/><rect class="cls-5" x="81" y="64" width="1" height="5"/><rect class="cls-5" x="100" y="48" width="1" height="7"/><rect class="cls-5" x="81" y="50" width="1" height="4"/><rect class="cls-5" x="87" y="53" width="1" height="7"/><rect class="cls-5" x="93" y="64" width="1" height="7"/><rect class="cls-5" x="100" y="64" width="1" height="3"/><rect class="cls-5" x="81" y="56" width="1" height="3"/><rect class="cls-5" x="104" y="49" width="1" height="3"/><rect class="cls-5" x="100" y="59" width="1" height="2"/><rect class="cls-5" x="93" y="51" width="1" height="2"/><rect class="cls-5" x="93" y="49" width="1" height="1"/><rect class="cls-5" x="93" y="46" width="1" height="1"/><rect class="cls-5" x="100" y="57" width="1" height="1"/><rect class="cls-5" x="104" y="56" width="1" height="1"/><rect class="cls-5" x="104" y="61" width="1" height="1"/><rect class="cls-5" x="90" y="61" width="1" height="1"/><rect class="cls-5" x="81" y="60" width="1" height="1"/><rect class="cls-5" x="96" y="62" width="1" height="1"/><rect class="cls-5" x="104" y="58" width="1" height="2"/><rect class="cls-5" x="87" y="63" width="1" height="2"/><rect class="cls-5" x="87" y="48" width="1" height="2"/><rect class="cls-5" x="87" y="67" width="1" height="2"/><rect class="cls-5" x="100" y="68" width="1" height="2"/><rect class="cls-5" x="96" y="54" width="1" height="5"/><rect class="cls-5" x="54" y="70" width="1" height="7"/><rect class="cls-5" x="77" y="74" width="1" height="7"/><rect class="cls-5" x="58" y="88" width="1" height="5"/><rect class="cls-5" x="77" y="86" width="1" height="7"/><rect class="cls-5" x="73" y="84" width="1" height="6"/><rect class="cls-5" x="67" y="71" width="1" height="7"/><rect class="cls-5" x="61" y="76" width="1" height="3"/><rect class="cls-5" x="77" y="82" width="1" height="3"/><rect class="cls-5" x="54" y="89" width="1" height="3"/><rect class="cls-5" x="58" y="80" width="1" height="2"/><rect class="cls-5" x="64" y="89" width="1" height="2"/><rect class="cls-5" x="67" y="93" width="1" height="1"/><rect class="cls-5" x="61" y="84" width="1" height="1"/><rect class="cls-5" x="54" y="87" width="1" height="1"/><rect class="cls-5" x="54" y="80" width="1" height="1"/><rect class="cls-5" x="70" y="80" width="1" height="1"/><rect class="cls-5" x="50" y="77" width="1" height="1"/><rect class="cls-5" x="84" y="75" width="1" height="1"/><rect class="cls-5" x="54" y="83" width="1" height="2"/><rect class="cls-5" x="73" y="75" width="1" height="2"/><rect class="cls-5" x="73" y="93" width="1" height="2"/><rect class="cls-5" x="77" y="71" width="1" height="2"/><rect class="cls-5" x="58" y="73" width="1" height="2"/><rect class="cls-5" x="67" y="82" width="1" height="5"/><rect class="cls-5" x="104" y="88" width="1" height="7"/><rect class="cls-5" x="81" y="86" width="1" height="5"/><rect class="cls-5" x="100" y="72" width="1" height="7"/><rect class="cls-5" x="81" y="70" width="1" height="4"/><rect class="cls-5" x="87" y="77" width="1" height="7"/><rect class="cls-5" x="93" y="88" width="1" height="7"/><rect class="cls-5" x="100" y="88" width="1" height="3"/><rect class="cls-5" x="81" y="80" width="1" height="3"/><rect class="cls-5" x="104" y="73" width="1" height="3"/><rect class="cls-5" x="100" y="83" width="1" height="2"/><rect class="cls-5" x="93" y="75" width="1" height="2"/><rect class="cls-5" x="93" y="73" width="1" height="1"/><rect class="cls-5" x="100" y="81" width="1" height="1"/><rect class="cls-5" x="104" y="80" width="1" height="1"/><rect class="cls-5" x="104" y="85" width="1" height="1"/><rect class="cls-5" x="100" y="86" width="1" height="1"/><rect class="cls-5" x="96" y="85" width="1" height="1"/><rect class="cls-5" x="104" y="82" width="1" height="2"/><rect class="cls-5" x="87" y="87" width="1" height="2"/><rect class="cls-5" x="87" y="72" width="1" height="2"/><rect class="cls-5" x="84" y="92" width="1" height="2"/><rect class="cls-5" x="100" y="92" width="1" height="2"/><rect class="cls-5" x="96" y="78" width="1" height="5"/></pattern><pattern id="New_Pattern_Swatch_2" data-name="New Pattern Swatch 2" width="83.1" height="101.19" patternTransform="translate(0 -144)" patternUnits="userSpaceOnUse" viewBox="0 0 83.09 101.19"><rect class="cls-1" width="83.1" height="101.19"/><path class="cls-2" d="M83.1,50.6h0A50.6,50.6,0,0,1,0,50.6v50.59H83.1Z"/><path class="cls-2" d="M41.55,21.72A50.53,50.53,0,0,0,83.1,0H0A50.53,50.53,0,0,0,41.55,21.72Z"/><path class="cls-3" d="M41.55,72.32A50.55,50.55,0,0,0,83.1,50.6h0V0A50.53,50.53,0,0,1,41.55,21.72,50.53,50.53,0,0,1,0,0V50.6A50.55,50.55,0,0,0,41.55,72.32Z"/></pattern></defs><g id="Layer_2" data-name="Layer 2"><g id="Layer_9" data-name="Layer 9"><rect class="cls-6" x="290.82" width="1000" height="756.72"/><polygon class="cls-6" points="1290.82 852.88 290.81 756.72 290.81 3581.19 1290.82 3581.19 1290.82 852.88"/><line class="cls-7" x1="183.01" y1="837.23" x2="1459.82" y2="837.23"/><line class="cls-7" x1="183.01" y1="1607.59" x2="1459.82" y2="1607.59"/><path class="cls-7" d="M790.6,899.48V2503.3c0,201.17-163.12,364.25-364.29,364.25H210.15"/><path class="cls-8" d="M790.6,988.41V2507.77C790.57,2709,627.48,2872,426.31,2872H210.15"/><path class="cls-9" d="M1337.85,1952.48a342.76,342.76,0,0,0-343,342.67l-.75,561.53c0,120.32-97.89,218.22-218.21,218.22H276.43V3572H1350.74V1952.48Z"/><path class="cls-10" d="M1375.77,2052.22c-156.19,0-282.84,126.54-283,282.73l-.75,561.47c0,153.66-124.56,278.22-278.22,278.22H276.43v406.55H1413.8v-1529Z"/><line class="cls-8" x1="183.01" y1="837.23" x2="1459.82" y2="837.23"/><line class="cls-8" x1="197.91" y1="1607.59" x2="1474.72" y2="1607.59"/><path class="cls-11" d="M834.79,1093.63l0-50.36a11.09,11.09,0,0,1,3.19-7.37,11.33,11.33,0,0,1,7.31-3.36c.68,0,1.37,0,2,0h16.71v12.83l34.81-20.11-34.81-20.1V1018h-17a42.45,42.45,0,0,0-4.37.17,24.79,24.79,0,0,0-22.36,22.81c0,.37,0,.73-.09,1.09l0,1.09c0,.73,0,1.47,0,2.2v48.32Z"/><rect class="cls-12" x="643.74" y="1498" width="290.07" height="223.76"/><rect class="cls-12" x="645.44" y="1507.7" width="292.95" height="199.79" transform="translate(-815.68 2399.52) rotate(-90)"/><line class="cls-13" x1="556.49" y1="2408.79" x2="556.49" y2="2378.54"/><line class="cls-13" x1="556.49" y1="2408.79" x2="573.38" y2="2388.14"/><line class="cls-13" x1="556.49" y1="2409.27" x2="580.66" y2="2409.27"/><line class="cls-13" x1="556.49" y1="2408.79" x2="573.38" y2="2388.14"/><line class="cls-13" x1="556.49" y1="2409.27" x2="580.66" y2="2409.27"/><line class="cls-13" x1="556.49" y1="2408.79" x2="539.6" y2="2388.14"/><line class="cls-13" x1="556.49" y1="2409.27" x2="532.32" y2="2409.27"/><line class="cls-13" x1="967.84" y1="1905.76" x2="967.84" y2="1875.51"/><line class="cls-13" x1="967.84" y1="1905.76" x2="984.73" y2="1885.1"/><line class="cls-13" x1="967.84" y1="1906.23" x2="992.01" y2="1906.23"/><line class="cls-13" x1="967.84" y1="1905.76" x2="984.73" y2="1885.1"/><line class="cls-13" x1="967.84" y1="1906.23" x2="992.01" y2="1906.23"/><line class="cls-13" x1="967.84" y1="1905.76" x2="950.95" y2="1885.1"/><line class="cls-13" x1="967.84" y1="1906.23" x2="943.67" y2="1906.23"/><path class="cls-14" d="M94.13,624.85H539a80.09,80.09,0,0,1,80.09,80.09V1328a0,0,0,0,1,0,0H14a0,0,0,0,1,0,0V704.94A80.09,80.09,0,0,1,94.13,624.85Z"/><rect class="cls-14" x="159.88" y="573.54" width="313.39" height="746.73"/><path class="cls-15" d="M470.49,576.32v741.16H162.67V576.32H470.49m5.57-5.56h-319v752.29h319V570.76Z"/><rect class="cls-16" x="210.15" y="535.48" width="212.86" height="583.73"/><rect class="cls-17" x="210.15" y="945.46" width="212.86" height="130.45"/><rect class="cls-18" x="279.57" y="491.91" width="74.02" height="667.63"/><rect class="cls-17" x="279.57" y="945.46" width="74.02" height="130.45"/><rect class="cls-17" x="210.15" y="743.26" width="212.86" height="130.45"/><rect class="cls-17" x="279.57" y="743.26" width="74.02" height="130.45"/><rect class="cls-17" x="116.35" y="743.26" width="74.02" height="130.45"/><rect class="cls-17" x="116.35" y="957.53" width="74.02" height="130.45"/><rect class="cls-17" x="476.42" y="743.26" width="74.02" height="130.45"/><rect class="cls-17" x="476.42" y="957.53" width="74.02" height="130.45"/><rect class="cls-19" x="86.8" y="1125.4" width="459.56" height="198.54"/><path class="cls-14" d="M542.28,1129.48v190.38H90.88V1129.48h451.4m8.16-8.16H82.72V1328H550.44V1121.32Z"/><rect class="cls-19" x="161.54" y="1125.4" width="310.08" height="198.54"/><path class="cls-14" d="M467.55,1129.48v190.38H165.61V1129.48H467.55m8.15-8.16H157.46V1328H475.7V1121.32Z"/><rect class="cls-19" x="245.32" y="1126.59" width="142.52" height="198.64"/><path class="cls-14" d="M385.06,1129.37v193.08h-137V1129.37h137m5.56-5.56H242.54V1328H390.62v-204.2Z"/><line class="cls-20" x1="83.08" y1="1159.54" x2="550.44" y2="1159.54"/><line class="cls-20" x1="83.08" y1="1205.26" x2="550.44" y2="1205.26"/><line class="cls-21" x1="316.58" y1="1119.21" x2="316.58" y2="1328.01"/><line class="cls-22" x1="633.16" y1="916.3" y2="916.3"/><line class="cls-23" x1="633.16" y1="724.83" y2="724.83"/><line class="cls-22" x1="633.16" y1="1113.97" y2="1113.97"/><rect class="cls-24" x="955.76" y="460.37" width="371.52" height="871.96"/><rect class="cls-25" x="955.76" y="460.37" width="371.52" height="31.19"/><rect class="cls-26" x="955.76" y="491.57" width="371.52" height="23.07"/><rect class="cls-26" x="955.76" y="540.51" width="371.52" height="23.07"/><rect class="cls-26" x="955.76" y="589.45" width="371.52" height="23.07"/><rect class="cls-26" x="955.76" y="638.39" width="371.52" height="23.07"/><rect class="cls-26" x="955.76" y="687.33" width="371.52" height="23.07"/><rect class="cls-26" x="955.76" y="736.27" width="371.52" height="23.07"/><rect class="cls-26" x="955.76" y="785.21" width="371.52" height="23.07"/><rect class="cls-26" x="955.76" y="834.16" width="371.52" height="23.07"/><rect class="cls-26" x="955.76" y="883.1" width="371.52" height="23.07"/><rect class="cls-26" x="955.76" y="932.04" width="371.52" height="23.07"/><rect class="cls-26" x="955.76" y="980.98" width="371.52" height="23.07"/><rect class="cls-26" x="955.76" y="1029.92" width="371.52" height="23.07"/><rect class="cls-26" x="955.76" y="1078.86" width="371.52" height="23.07"/><rect class="cls-26" x="955.76" y="1127.8" width="371.52" height="23.07"/><rect class="cls-26" x="955.76" y="1176.75" width="371.52" height="23.07"/><rect class="cls-26" x="955.76" y="1225.69" width="371.52" height="23.07"/><rect class="cls-26" x="955.76" y="1274.63" width="371.52" height="23.07"/><line class="cls-27" x1="1060.34" y1="492.14" x2="1060.34" y2="1313.82"/><line class="cls-27" x1="1220.45" y1="492.14" x2="1220.45" y2="1313.82"/><path class="cls-28" d="M377.35,1974.07h-56.1S351,1947.75,377.35,1974.07Z"/><path class="cls-29" d="M360.92,1934.4c0,37.22-39.67,39.67-39.67,39.67S323.7,1934.4,360.92,1934.4Z"/><path class="cls-29" d="M321.25,1918c26.32,26.32,0,56.11,0,56.11S294.93,1944.28,321.25,1918Z"/><path class="cls-29" d="M281.58,1934.4c37.22,0,39.67,39.67,39.67,39.67S281.58,1971.62,281.58,1934.4Z"/><path class="cls-29" d="M360.92,1934.4c0,37.22-39.67,39.67-39.67,39.67S323.7,1934.4,360.92,1934.4Z"/><path class="cls-28" d="M360.92,1934.4c0,37.22-39.67,39.67-39.67,39.67S323.7,1934.4,360.92,1934.4Z"/><path class="cls-28" d="M321.25,1918c26.32,26.32,0,56.11,0,56.11S294.93,1944.28,321.25,1918Z"/><path class="cls-28" d="M281.58,1934.4c37.22,0,39.67,39.67,39.67,39.67S281.58,1971.62,281.58,1934.4Z"/><path class="cls-28" d="M265.15,1974.07c26.32-26.32,56.1,0,56.1,0Z"/><rect class="cls-30" x="930.49" y="1487.57" width="12.4" height="240.05"/><rect class="cls-30" x="637.54" y="1487.57" width="12.4" height="240.05"/><rect class="cls-30" x="784.02" y="1341.1" width="12.4" height="240.05" transform="translate(-670.9 2251.34) rotate(-90)"/><rect class="cls-30" x="784.02" y="1634.05" width="12.4" height="240.05" transform="translate(-963.86 2544.29) rotate(-90)"/><rect class="cls-30" x="784.02" y="863.14" width="12.4" height="240.05" transform="translate(-192.95 1773.39) rotate(-90)"/><rect class="cls-31" x="283.32" y="1760.28" width="386.87" height="85.07"/><line class="cls-32" x1="583.82" y1="1760.28" x2="583.82" y2="1845.35"/><line class="cls-32" x1="378.87" y1="1760.28" x2="378.87" y2="1845.35"/><path class="cls-33" d="M1181,1925.29l.06,0-.06-.06Z"/><path class="cls-33" d="M431.36,1925.93l.06,0-.06-.06Z"/><rect class="cls-31" x="909.76" y="1760.28" width="386.87" height="85.07"/><line class="cls-32" x1="1210.26" y1="1760.28" x2="1210.26" y2="1845.35"/><line class="cls-32" x1="1005.31" y1="1760.28" x2="1005.31" y2="1845.35"/><rect class="cls-31" x="283.32" y="1369.85" width="386.87" height="85.07"/><line class="cls-32" x1="583.82" y1="1369.85" x2="583.82" y2="1454.92"/><line class="cls-32" x1="378.87" y1="1369.85" x2="378.87" y2="1454.92"/><rect class="cls-31" x="909.76" y="1369.85" width="386.87" height="85.07"/><line class="cls-32" x1="1210.26" y1="1369.85" x2="1210.26" y2="1454.92"/><line class="cls-32" x1="1005.31" y1="1369.85" x2="1005.31" y2="1454.92"/><path class="cls-28" d="M1045.34,1889.15h56.1S1071.66,1862.83,1045.34,1889.15Z"/><path class="cls-29" d="M1061.77,1849.48c0,37.22,39.67,39.67,39.67,39.67S1099,1849.48,1061.77,1849.48Z"/><path class="cls-29" d="M1101.44,1833.05c-26.32,26.32,0,56.1,0,56.1S1127.76,1859.37,1101.44,1833.05Z"/><path class="cls-29" d="M1141.11,1849.48c-37.22,0-39.67,39.67-39.67,39.67S1141.11,1886.7,1141.11,1849.48Z"/><path class="cls-29" d="M1061.77,1849.48c0,37.22,39.67,39.67,39.67,39.67S1099,1849.48,1061.77,1849.48Z"/><path class="cls-28" d="M1061.77,1849.48c0,37.22,39.67,39.67,39.67,39.67S1099,1849.48,1061.77,1849.48Z"/><path class="cls-28" d="M1101.44,1833.05c-26.32,26.32,0,56.1,0,56.1S1127.76,1859.37,1101.44,1833.05Z"/><path class="cls-28" d="M1141.11,1849.48c-37.22,0-39.67,39.67-39.67,39.67S1141.11,1886.7,1141.11,1849.48Z"/><path class="cls-28" d="M1157.54,1889.15c-26.32-26.32-56.1,0-56.1,0Z"/><polygon class="cls-34" points="1021.06 1889.15 1051.3 1665.27 1081.54 1889.15 1021.06 1889.15"/><circle class="cls-35" cx="1057.51" cy="1687.75" r="11.88"/><circle class="cls-35" cx="1038.55" cy="1685.58" r="8.81"/><path class="cls-6" d="M1052.55,1677l52.88,52.87S1119.48,1677,1052.55,1677Z"/><path class="cls-6" d="M1052.55,1677H977.78S1005.23,1724.29,1052.55,1677Z"/><path class="cls-6" d="M1175.15,1677s-45-77.6-122.6,0h122.6"/><path class="cls-6" d="M1139.25,1590.28s-86.7-23-86.7,86.69l86.7-86.69"/><path class="cls-6" d="M1052.55,1554.37s-77.59,45,0,122.6v-122.6"/><path class="cls-6" d="M965.86,1590.28s-23,86.69,86.69,86.69l-86.69-86.69"/><line class="cls-36" x1="1023.74" y1="1869.32" x2="1078.86" y2="1869.32"/><line class="cls-36" x1="1027.71" y1="1832.01" x2="1074.89" y2="1832.01"/><line class="cls-36" x1="1032.06" y1="1800.58" x2="1070.53" y2="1800.58"/><line class="cls-36" x1="1037.63" y1="1766.45" x2="1065.31" y2="1766.45"/><line class="cls-36" x1="1043.61" y1="1722.21" x2="1059.41" y2="1722.21"/><path class="cls-37" d="M1052.55,1677s8.7-53.24,54.11-77.56"/><polyline class="cls-37" points="1076.32 1608.93 1076.32 1625.12 1100.51 1625.12"/><polyline class="cls-37" points="1071.62 1618.76 1071.62 1631.47 1084.61 1631.47"/><polyline class="cls-37" points="1059.41 1642.48 1059.41 1654.44 1069.38 1654.44"/><path class="cls-37" d="M1052.55,1677s-31.49-43.79-16.58-93.1"/><polyline class="cls-37" points="1021.24 1612.05 1032.69 1623.5 1049.8 1606.39"/><polyline class="cls-37" points="1024.87 1622.33 1033.86 1631.32 1043.05 1622.13"/><polyline class="cls-37" points="1033.02 1647.73 1041.47 1656.19 1048.52 1649.14"/><path class="cls-37" d="M1052.55,1677s-53.23-8.7-77.56-54.1"/><polyline class="cls-37" points="984.51 1653.21 1000.7 1653.21 1000.7 1629.01"/><polyline class="cls-37" points="994.34 1657.9 1007.06 1657.9 1007.06 1644.91"/><polyline class="cls-37" points="1018.07 1670.11 1030.03 1670.11 1030.03 1660.14"/><path class="cls-37" d="M1052.55,1677s43.63-31.72,93-17.07"/><polyline class="cls-37" points="1117.31 1645.32 1105.92 1656.83 1123.11 1673.85"/><polyline class="cls-37" points="1107.05 1649 1098.1 1658.04 1107.34 1667.18"/><polyline class="cls-37" points="1081.69 1657.28 1073.28 1665.78 1080.36 1672.79"/><line class="cls-38" x1="336.58" y1="1843.47" x2="336.58" y2="1813.22"/><line class="cls-38" x1="336.58" y1="1843.47" x2="353.47" y2="1822.81"/><line class="cls-38" x1="336.58" y1="1843.94" x2="360.75" y2="1843.94"/><line class="cls-38" x1="336.58" y1="1843.47" x2="353.47" y2="1822.81"/><line class="cls-38" x1="336.58" y1="1843.94" x2="360.75" y2="1843.94"/><line class="cls-38" x1="336.58" y1="1843.47" x2="319.69" y2="1822.81"/><line class="cls-38" x1="336.58" y1="1843.94" x2="312.41" y2="1843.94"/><line class="cls-38" x1="1254.42" y1="1843.47" x2="1254.42" y2="1813.22"/><line class="cls-38" x1="1254.42" y1="1843.47" x2="1271.31" y2="1822.81"/><line class="cls-38" x1="1254.42" y1="1843.94" x2="1278.59" y2="1843.94"/><line class="cls-38" x1="1254.42" y1="1843.47" x2="1271.31" y2="1822.81"/><line class="cls-38" x1="1254.42" y1="1843.94" x2="1278.59" y2="1843.94"/><line class="cls-38" x1="1254.42" y1="1843.47" x2="1237.53" y2="1822.81"/><line class="cls-38" x1="1254.42" y1="1843.94" x2="1230.25" y2="1843.94"/></g></g></svg>