<svg xmlns="http://www.w3.org/2000/svg" viewBox="0 0 1035.93 249.39"><defs><style>.cls-1{fill:#fff8d4;}</style></defs><g id="Layer_2" data-name="Layer 2"><g id="Layer_8" data-name="Layer 8"><path class="cls-1" d="M997.82,38.1h0a38.11,38.11,0,0,0-71.74-17.91,39.17,39.17,0,0,0-5.45-.39,38.07,38.07,0,0,0-37.52,44.75A26.73,26.73,0,1,0,915,105.1a38.09,38.09,0,0,0,52.3-6,38.11,38.11,0,1,0,30.48-61Z"/><path class="cls-1" d="M198,176.63c0-.23,0-.46,0-.69a46.34,46.34,0,0,0-43.82-46.26A52,52,0,0,0,52,143.26h0a52,52,0,1,0,41.59,83.2A52,52,0,0,0,165,234.67a36.48,36.48,0,1,0,33-58Z"/></g></g></svg>