<svg xmlns="http://www.w3.org/2000/svg" xmlns:xlink="http://www.w3.org/1999/xlink" viewBox="0 0 1146.4 2229.9"><defs><style>.cls-1{fill:none;}.cls-2{fill:#31b6ff;}.cls-3{fill:#2a9ddb;}.cls-4{fill:#c2eb57;}.cls-5{fill:#ffef9c;}.cls-6{fill:url(#New_Pattern_Swatch_2);}</style><pattern id="New_Pattern_Swatch_2" data-name="New Pattern Swatch 2" width="83.1" height="101.19" patternTransform="translate(0 -144)" patternUnits="userSpaceOnUse" viewBox="0 0 83.09 101.19"><rect class="cls-1" width="83.1" height="101.19"/><path class="cls-2" d="M83.1,50.6h0A50.6,50.6,0,0,1,0,50.6v50.59H83.1Z"/><path class="cls-2" d="M41.55,21.72A50.53,50.53,0,0,0,83.1,0H0A50.53,50.53,0,0,0,41.55,21.72Z"/><path class="cls-3" d="M41.55,72.32A50.55,50.55,0,0,0,83.1,50.6h0V0A50.53,50.53,0,0,1,41.55,21.72,50.53,50.53,0,0,1,0,0V50.6A50.55,50.55,0,0,0,41.55,72.32Z"/></pattern></defs><g id="Layer_2" data-name="Layer 2"><g id="Layer_5" data-name="Layer 5"><rect class="cls-4" x="100.6" width="1042.33" height="1640.07"/><path class="cls-5" d="M84.07,501.67H439.2a89.48,89.48,0,0,0,89.48-89.48v-31a89.49,89.49,0,0,1,89.49-89.48H1125.1v906.6H84.07Z"/><path class="cls-4" d="M1071,955H559.17a89.48,89.48,0,0,1-89.48-89.48v-31A89.49,89.49,0,0,0,380.2,745H0V2229.9H1071Z"/><path class="cls-5" d="M394,1625.53H749.17A89.49,89.49,0,0,0,838.65,1536v-31a89.49,89.49,0,0,1,89.49-89.49h200.23v322.16H394Z"/><rect class="cls-5" x="73.08" y="1625.34" width="1070.97" height="112.38"/><path class="cls-6" d="M1146.4,1527.89h-84.12a89.5,89.5,0,0,0-89.49,89.49v31a89.49,89.49,0,0,1-89.48,89.49H528.18v112.2H1146.4Z"/><rect class="cls-6" x="73.08" y="1737.72" width="1070.97" height="467.32"/></g></g></svg>