<svg xmlns="http://www.w3.org/2000/svg" viewBox="0 0 114.15 78.32"><defs><style>.cls-1{fill:#fff;}.cls-2{fill:#231f20;}.cls-3,.cls-7{fill:none;}.cls-3{stroke:#fff;stroke-miterlimit:10;stroke-width:4.19px;}.cls-4{fill:#f7b9e1;}.cls-5{fill:#603913;}.cls-6{fill:#f784ce;}.cls-7{stroke:#7a7563;stroke-linecap:round;stroke-linejoin:round;stroke-width:1.23px;}</style></defs><g id="Layer_2" data-name="Layer 2"><g id="Layer_8" data-name="Layer 8"><rect class="cls-1" x="43.51" y="54.32" width="6.77" height="24"/><rect class="cls-1" x="85.46" y="54.32" width="6.77" height="24"/><path class="cls-2" d="M50.28,72.84H43.51L39.2,76.16a1.2,1.2,0,0,0,.73,2.16H50.28Z"/><path class="cls-2" d="M92.22,72.84H85.46l-4.32,3.32a1.21,1.21,0,0,0,.74,2.16H92.22Z"/><path class="cls-3" d="M102.39,13.42h2.69a5,5,0,0,1,5,5V58.9"/><path class="cls-2" d="M106.11,58.34c0-5.22,7.85-5.42,8-.21,0,.16,0,.32,0,.48,0,5.75-3.5,12.46-8,13.83Z"/><path class="cls-4" d="M55.41,46.19a3.81,3.81,0,0,0-3.55,5.19,17.52,17.52,0,0,0,32.58,0,3.81,3.81,0,0,0-3.55-5.19Z"/><rect class="cls-1" x="31.91" y="4.18" width="72.2" height="51.79" rx="6.45"/><rect class="cls-4" x="66.38" y="58.9" width="3.55" height="8.3" rx="1.77"/><rect class="cls-4" x="60.7" y="57.21" width="3.55" height="8.3" rx="1.77"/><rect class="cls-4" x="72.06" y="57.21" width="3.55" height="8.3" rx="1.77"/><path class="cls-5" d="M59.22,4.18H38.72V34.65A7.33,7.33,0,0,0,46.05,42h5.84a7.33,7.33,0,0,0,7.33-7.33h0a7.33,7.33,0,0,1,7.33-7.33h5.83A7.33,7.33,0,0,0,79.71,20V4.18Z"/><path class="cls-5" d="M85.68,56H96.5V39.87A3.87,3.87,0,0,0,92.63,36H89.55a3.87,3.87,0,0,0-3.87,3.87h0a3.87,3.87,0,0,1-3.87,3.87H78.72a3.88,3.88,0,0,0-3.87,3.88V56Z"/><path class="cls-1" d="M15,2.9V14.82a3.76,3.76,0,0,0,3.76,3.76h0a3.76,3.76,0,0,1,3.76,3.76V34.7H41.68V22.34a3.76,3.76,0,0,1,3.76-3.76h0a3.76,3.76,0,0,0,3.76-3.76V2.9A2.9,2.9,0,0,0,46.3,0H17.89A2.9,2.9,0,0,0,15,2.9Z"/><path class="cls-6" d="M19.36,34.7a3.81,3.81,0,0,0-3.55,5.19,17.51,17.51,0,0,0,32.57,0,3.8,3.8,0,0,0-3.54-5.19Z"/><circle class="cls-2" cx="24.43" cy="42.73" r="2.92"/><circle class="cls-2" cx="39.76" cy="42.73" r="2.92"/><line class="cls-7" x1="17.45" y1="14.61" x2="45.46" y2="14.61"/><path class="cls-1" d="M14.47,7.64,0,19.05S11.67,21.4,14.47,7.64Z"/><path class="cls-1" d="M49.2,7.64,63.68,19.05S52.58,21.4,49.2,7.64Z"/></g></g></svg>