<svg xmlns="http://www.w3.org/2000/svg" viewBox="0 0 123.06 103.68"><defs><style>.cls-1{fill:#fff;}.cls-2{fill:#231f20;}.cls-3,.cls-5{fill:none;}.cls-3{stroke:#fff;stroke-miterlimit:10;stroke-width:4.43px;}.cls-4{fill:#f784ce;}.cls-5{stroke:#7a7563;stroke-linecap:round;stroke-linejoin:round;stroke-width:1.29px;}</style></defs><g id="Layer_2" data-name="Layer 2"><g id="Layer_8" data-name="Layer 8"><rect class="cls-1" x="48.44" y="78.33" width="7.15" height="25.35"/><rect class="cls-1" x="92.75" y="78.33" width="7.15" height="25.35"/><path class="cls-2" d="M55.59,97.89H48.44l-4.56,3.51a1.27,1.27,0,0,0,.78,2.28H55.59Z"/><path class="cls-2" d="M99.9,97.89H92.75l-4.56,3.51a1.27,1.27,0,0,0,.78,2.28H99.9Z"/><path class="cls-3" d="M110.64,35.12h2.84a5.33,5.33,0,0,1,5.33,5.34v42.7"/><path class="cls-2" d="M114.57,82.58c0-5.52,8.29-5.74,8.48-.23,0,.17,0,.34,0,.5,0,6.08-3.7,13.17-8.49,14.61Z"/><rect class="cls-1" x="36.18" y="25.36" width="76.28" height="54.71" rx="6.81"/><path class="cls-2" d="M65,25.36H43.38V57.55a7.74,7.74,0,0,0,7.75,7.74h6.16A7.73,7.73,0,0,0,65,57.55h0a7.74,7.74,0,0,1,7.74-7.74h6.17a7.75,7.75,0,0,0,7.74-7.74V25.36Z"/><path class="cls-2" d="M93,80.07h11.44v-17A4.09,4.09,0,0,0,100.33,59H97.07A4.1,4.1,0,0,0,93,63.06h0a4.1,4.1,0,0,1-4.09,4.1H85.64a4.09,4.09,0,0,0-4.09,4.09v8.82Z"/><path class="cls-1" d="M63.23,29.45H54V20.94h9.2a1.87,1.87,0,0,0,1.87-1.87V0l8.51,19.07A10.39,10.39,0,0,1,63.23,29.45Z"/><path class="cls-1" d="M10.39,29.45h9.19V20.94H10.39a1.88,1.88,0,0,1-1.88-1.87V0L0,19.07A10.39,10.39,0,0,0,10.39,29.45Z"/><path class="cls-1" d="M18.73,20.94V36.6a4,4,0,0,0,4,4h0a4,4,0,0,1,4,4V57.6H46.93V44.54a4,4,0,0,1,4-4h0a4,4,0,0,0,4-4V20.94Z"/><path class="cls-4" d="M23.35,57.6a4,4,0,0,0-3.75,5.48,18.51,18.51,0,0,0,34.41,0,4,4,0,0,0-3.75-5.48Z"/><line class="cls-5" x1="21.34" y1="36.38" x2="50.92" y2="36.38"/><circle class="cls-2" cx="28.51" cy="66.09" r="3.09"/><circle class="cls-2" cx="44.7" cy="66.09" r="3.09"/><path class="cls-2" d="M18.73,29.45,3.22,41.68S15.11,44.21,18.73,29.45Z"/><path class="cls-1" d="M54.88,29.45,70.4,41.68S58.5,44.21,54.88,29.45Z"/></g></g></svg>