<svg xmlns="http://www.w3.org/2000/svg" viewBox="0 0 196.08 217.88">
<defs>
<style>.cls-1{fill:#fff;}.cls-2{fill:#5dc2a6;}.cls-3{fill:#bcbec0;}</style>
</defs><g id="Layer_2" data-name="Layer 2"><g id="Layer_1-2" data-name="Layer 1">
<path class="cls-1" 
d="M102,105.34a14.44,14.44,0,0,1,14.43-14.46h12.45a33.1,33.1,0,0,0,33.12-33v-49H34v49c0,18.22,15.16,33,33.38,33H78.28A14.71,14.71,0,0,1,93,105.34v7.2c0,8-5.77,14.34-13.76,14.34H67.42C49.2,126.88,34,141.77,34,160v48.88H162V160a33.2,33.2,0,0,0-33.12-33.12H117.47c-8,0-15.43-6.35-15.43-14.34Z"/><path class="cls-2" d="M35.54,164.15V160a31.78,31.78,0,0,1,31.88-31.62H79.28c8.7,0,15.26-6.81,15.26-15.84v-7.2a16.13,16.13,0,0,0-16.26-16H67.42a31.73,31.73,0,0,1-31.88-31.5V56.6h125v1.28a31.59,31.59,0,0,1-31.62,31.5H116.47a16,16,0,0,0-15.93,16v7.2c0,8.58,7.75,15.84,16.93,15.84h11.45A31.65,31.65,0,0,1,160.54,160v4.15Z"/><path class="cls-1" d="M159,58.1a30.1,30.1,0,0,1-30.12,29.78H116.47A17.46,17.46,0,0,0,99,105.34v7.2c0,9.4,8.44,17.34,18.43,17.34h11.45A30.15,30.15,0,0,1,159,160v2.65H37V160a29.71,29.71,0,0,1,9-21.26,30.25,30.25,0,0,1,21.41-8.86H79.28c9.55,0,16.76-7.46,16.76-17.34v-7.2A17.63,17.63,0,0,0,78.28,87.88H67.42A30.24,30.24,0,0,1,37,58.1H159m3-3H34v2.78c0,18.22,15.16,33,33.38,33H78.28A14.71,14.71,0,0,1,93,105.34v7.2c0,8-5.77,14.34-13.76,14.34H67.42C49.2,126.88,34,141.77,34,160v5.65H162V160a33.2,33.2,0,0,0-33.12-33.12H117.47c-8,0-15.43-6.35-15.43-14.34v-7.2a14.44,14.44,0,0,1,14.43-14.46h12.45a33.1,33.1,0,0,0,33.12-33V55.1Z"/><rect class="cls-3" width="196.08" height="18" rx="9"/><rect class="cls-3" y="199.88" width="196.08" height="18" rx="9" transform="translate(196.08 417.75) rotate(180)"/>
<rect class="cls-3" x="13.54" y="8.88" width="10" height="200"/>
<rect class="cls-3" x="172.54" y="8.88" width="10" height="200"/>
</g>
</g>
</svg>