<svg xmlns="http://www.w3.org/2000/svg" viewBox="0 0 107.6 164.12"><defs><style>.cls-1{fill:#4a1716;}.cls-2{fill:#010202;}.cls-3{fill:#303d5f;}.cls-12,.cls-13,.cls-4,.cls-5{fill:none;stroke-miterlimit:10;}.cls-4,.cls-5{stroke:#70706f;}.cls-4{stroke-width:1px;}.cls-5{stroke-width:0.25px;}.cls-6{fill:#70706f;}.cls-7{fill:#231f20;}.cls-8{fill:#adadac;}.cls-9{fill:#a97c50;}.cls-10{fill:#876340;}.cls-11{fill:#a63331;}.cls-12{stroke:#a97c50;stroke-width:1.29px;}.cls-13{stroke:#a63331;stroke-width:0.68px;}</style></defs><g id="Layer_2" data-name="Layer 2"><g id="Mask"><path class="cls-1" d="M101.07,48.17l-94.46,75V36.41a2.91,2.91,0,0,1,2.91-2.92H98.15a2.92,2.92,0,0,1,2.92,2.92Z"/><path class="cls-2" d="M33.62,147.06v0L6.86,161.62v2.5H37.08V161.9a1.5,1.5,0,1,1,3,0v2.22h5.44V147.06Z"/><path class="cls-2" d="M74,147.06v0l26.75,14.54v2.5H70.53V161.9a1.51,1.51,0,1,0-3,0v2.22H62.08V147.06Z"/><path class="cls-3" d="M74,141.14,68.18,81.62H39.49l-5.81,59.52-5.93,7.6,19.31,9V101.46a6.77,6.77,0,0,1,6.78-6.78h0a6.77,6.77,0,0,1,6.77,6.78V157.7l19.31-9Z"/><line class="cls-4" x1="36.48" y1="155.59" x2="47.06" y2="160.65"/><line class="cls-5" x1="46.24" y1="160.65" x2="50.6" y2="160.65"/><polygon class="cls-6" points="50.11 159.49 51 158.51 50.93 159.83 52.25 159.76 51.27 160.65 52.25 161.54 50.93 161.47 51 162.8 50.11 161.81 49.22 162.8 49.29 161.47 47.97 161.54 48.95 160.65 47.97 159.76 49.29 159.83 49.22 158.51 50.11 159.49"/><line class="cls-4" x1="71.3" y1="155.59" x2="60.72" y2="160.65"/><line class="cls-5" x1="61.54" y1="160.65" x2="57.19" y2="160.65"/><polygon class="cls-6" points="57.67 159.49 56.78 158.51 56.85 159.83 55.53 159.76 56.51 160.65 55.53 161.54 56.85 161.47 56.78 162.8 57.67 161.81 58.56 162.8 58.49 161.47 59.82 161.54 58.83 160.65 59.82 159.76 58.49 159.83 58.56 158.51 57.67 159.49"/><path class="cls-2" d="M47.78,19.35H19.1c0-5.2,6.42-9.42,14.34-9.42S47.78,14.15,47.78,19.35Z"/><rect class="cls-7" x="42.82" width="21.96" height="19.35"/><rect class="cls-8" x="42.82" y="13.68" width="21.96" height="2.45"/><rect class="cls-9" x="42.82" y="19.35" width="21.96" height="14.14"/><rect class="cls-10" x="42.82" y="19.35" width="21.96" height="1.43"/><polygon class="cls-11" points="62.7 81.63 43.72 81.63 11.4 33.49 95.02 33.49 62.7 81.63"/><path class="cls-2" d="M49.29,22.63a4.15,4.15,0,0,0-4.08,3l-.06.25s0,.07,0,.1a2.42,2.42,0,0,1-.27.64,2.86,2.86,0,0,1-3.77.95,2.55,2.55,0,0,1-1.39-2.24,2.63,2.63,0,0,1,2.14-2.52,4.54,4.54,0,0,0-.75-.07A4,4,0,0,0,37,26.64a4,4,0,0,0,4.14,3.87h8.27a4.08,4.08,0,0,0,4.14-3.94A4.08,4.08,0,0,0,49.29,22.63Z"/><path class="cls-2" d="M58.31,22.63a4.15,4.15,0,0,1,4.08,3,1.14,1.14,0,0,1,.06.25s0,.07,0,.1a2.42,2.42,0,0,0,.27.64,2.86,2.86,0,0,0,3.77.95,2.55,2.55,0,0,0,1.39-2.24,2.62,2.62,0,0,0-2.14-2.52,4.54,4.54,0,0,1,.75-.07,4,4,0,0,1,4.14,3.88,4,4,0,0,1-4.14,3.87H58.24a4.08,4.08,0,0,1-4.14-3.94A4.08,4.08,0,0,1,58.31,22.63Z"/><line class="cls-12" x1="37.13" y1="87.21" x2="73.96" y2="87.21"/><line class="cls-12" x1="37.75" y1="81.62" x2="75.16" y2="95.24"/><rect class="cls-2" x="69.39" y="102.18" width="2.59" height="2.27"/><polygon class="cls-11" points="101.04 97.3 96.82 97.26 69.35 37.63 101.04 37.63 101.04 97.3"/><path class="cls-2" d="M104.59,92.29h-1.1V78.92H84.15a2.33,2.33,0,0,0-1.83,3.78l7.58,9.59h-.09A2.51,2.51,0,0,0,87.3,94.8v9.55A2.61,2.61,0,0,0,89.55,107a2.52,2.52,0,0,0,2.78-2.51v-4a2.24,2.24,0,0,1,2.24-2.25h0a2.25,2.25,0,0,1,2.25,2.25v7.48a3,3,0,0,0,2.54,3,2.84,2.84,0,0,0,3.13-2.82L107.6,101V95.3A3,3,0,0,0,104.59,92.29Z"/><polygon class="cls-11" points="6.56 97.3 10.78 97.26 38.25 37.63 6.56 37.63 6.56 97.3"/><path class="cls-2" d="M3,92.29h1.1V78.92H23.45a2.33,2.33,0,0,1,1.83,3.78L17.7,92.29h.09a2.51,2.51,0,0,1,2.52,2.51v9.55A2.62,2.62,0,0,1,18.05,107a2.51,2.51,0,0,1-2.77-2.51v-4A2.25,2.25,0,0,0,13,98.2h0a2.25,2.25,0,0,0-2.25,2.25v7.48a3,3,0,0,1-2.54,3,2.84,2.84,0,0,1-3.13-2.82L0,101V95.3A3,3,0,0,1,3,92.29Z"/><path class="cls-7" d="M101,37.9,6.58,71.84V36.41A2.92,2.92,0,0,1,9.5,33.49H98.12A2.92,2.92,0,0,1,101,36.41Z"/><path class="cls-13" d="M6.56,53.33h20a3.55,3.55,0,0,0,3.55-3.55h0a3.53,3.53,0,0,1,3.54-3.54h17a3.55,3.55,0,0,0,3.55-3.55h0a3.55,3.55,0,0,1,3.55-3.55h17.6a3.55,3.55,0,0,0,3.55-3.55v-2.1"/><path class="cls-2" d="M69.77,80V76.19a2.27,2.27,0,0,1,.66-1.6l8.41-4.33a2.26,2.26,0,0,1,2.26,2.26v3a2.26,2.26,0,0,1-2.26,2.26H76.22A2.26,2.26,0,0,0,74,80H69.77"/><path class="cls-2" d="M69.39,81.8H68.05a.82.82,0,0,1-.57-.24l-.79-.79a.79.79,0,0,1-.23-.56V78.6a.79.79,0,0,1,.8-.79h.54a.79.79,0,0,1,.8.79v.93a.79.79,0,0,0,.79.79h0V81.8"/><circle class="cls-2" cx="71.98" cy="82.13" r="3.45"/><path class="cls-9" d="M75.65,102.18l3.58-19A1.28,1.28,0,0,0,78,81.62H66.49v20.56Z"/><circle class="cls-2" cx="53.85" cy="85.13" r="6.78"/><path class="cls-2" d="M91.84,19.35H51c0-7.41,9.13-13.41,20.4-13.41S91.84,11.94,91.84,19.35Z"/><path class="cls-7" d="M93,19.35H52.19c0-7.41,9.14-13.41,20.41-13.41S93,11.94,93,19.35Z"/></g></g></svg>