<svg xmlns="http://www.w3.org/2000/svg" viewBox="0 0 267.47 373.15"><defs><style>.cls-1{fill:#aabd40;}.cls-2{fill:#6c4e00;}.cls-3,.cls-4{fill:none;}.cls-3{stroke:#6c4e00;stroke-linecap:square;stroke-linejoin:bevel;stroke-width:9.34px;}.cls-4{stroke:#809038;stroke-linecap:round;stroke-linejoin:round;stroke-width:5px;}</style></defs><g id="Layer_2" data-name="Layer 2"><g id="Layer_8" data-name="Layer 8"><path class="cls-1" d="M0,52.5v298a22.69,22.69,0,0,0,22.69,22.7h244.2V52.5H0"/><rect class="cls-2" x="16.84" y="285.35" width="16.96" height="67.44"/><rect class="cls-2" x="16.84" y="143.17" width="16.96" height="67.44"/><rect class="cls-2" x="16.21" width="16.96" height="67.44"/><rect class="cls-2" x="133.67" y="285.35" width="16.96" height="67.44"/><rect class="cls-2" x="250.51" y="285.35" width="16.96" height="67.44"/><polygon class="cls-3" points="25.32 341.87 139.81 296.91 25.32 296.91 139.81 341.87 25.32 341.87"/><polygon class="cls-3" points="142.16 341.87 256.64 296.91 142.16 296.91 256.64 341.87 142.16 341.87"/><line class="cls-3" x1="25.32" y1="285.35" x2="25.32" y2="4.71"/><line class="cls-4" x1="162.69" y1="53.5" x2="162.69" y2="23.25"/><line class="cls-4" x1="162.69" y1="53.5" x2="179.58" y2="32.85"/><line class="cls-4" x1="162.69" y1="53.98" x2="186.86" y2="53.98"/><line class="cls-4" x1="162.69" y1="53.5" x2="179.58" y2="32.85"/><line class="cls-4" x1="162.69" y1="53.98" x2="186.86" y2="53.98"/><line class="cls-4" x1="162.69" y1="53.5" x2="145.8" y2="32.85"/><line class="cls-4" x1="162.69" y1="53.98" x2="138.52" y2="53.98"/></g></g></svg>