<svg xmlns="http://www.w3.org/2000/svg" xmlns:xlink="http://www.w3.org/1999/xlink" viewBox="0 0 355.45 96.3"><defs><style>.cls-1,.cls-10,.cls-11,.cls-12,.cls-13,.cls-14,.cls-15,.cls-16,.cls-17,.cls-18,.cls-19,.cls-20,.cls-21,.cls-26,.cls-27,.cls-6,.cls-9{fill:none;}.cls-2,.cls-8{fill:#db0f81;}.cls-3{fill:#b30c69;}.cls-4{fill:#e51491;}.cls-5{clip-path:url(#clip-path);}.cls-10,.cls-11,.cls-12,.cls-13,.cls-14,.cls-15,.cls-16,.cls-17,.cls-18,.cls-19,.cls-20,.cls-21,.cls-22,.cls-29,.cls-6,.cls-8,.cls-9{stroke:#b30c69;}.cls-10,.cls-11,.cls-12,.cls-13,.cls-14,.cls-15,.cls-16,.cls-17,.cls-18,.cls-19,.cls-20,.cls-21,.cls-29,.cls-6,.cls-8,.cls-9{stroke-linecap:round;stroke-linejoin:round;}.cls-29,.cls-6{stroke-width:0.75px;}.cls-7{fill:#a30b58;}.cls-9{stroke-width:0.76px;}.cls-10{stroke-width:0.77px;}.cls-11{stroke-width:0.78px;}.cls-12{stroke-width:0.79px;}.cls-13{stroke-width:0.8px;}.cls-14{stroke-width:0.81px;}.cls-15{stroke-width:0.82px;}.cls-16{stroke-width:0.83px;}.cls-17{stroke-width:0.84px;}.cls-18{stroke-width:0.85px;}.cls-19{stroke-width:0.86px;}.cls-20{stroke-width:0.87px;}.cls-21,.cls-22,.cls-26{stroke-width:0.88px;}.cls-22{fill:#f5d5e5;}.cls-22,.cls-26,.cls-27{stroke-miterlimit:10;}.cls-23{fill:#820946;}.cls-24{fill:#0c0101;}.cls-25{fill:#f0ff11;}.cls-26,.cls-27{stroke:#000;}.cls-27{stroke-width:0.58px;}.cls-28{fill:#fff;}.cls-29{fill:#f442ac;}</style><clipPath id="clip-path" transform="translate(0 0.38)"><path class="cls-1" d="M347.61,76.83,354,68.4a7.4,7.4,0,0,0-3.18-11.34L203.47.47A7.21,7.21,0,0,0,200.91,0H126.83a7.08,7.08,0,0,0-1.71.21L5.51,29.94A7.32,7.32,0,0,0,0,37.07v5.28a7.36,7.36,0,0,0,3.92,6.53l57.43,30a7,7,0,0,0,3.3.82H341.87A7.21,7.21,0,0,0,347.61,76.83Z"/></clipPath></defs><g id="Layer_2" data-name="Layer 2"><g id="Layer_7" data-name="Layer 7"><circle cx="289.03" cy="66.61" r="24.47"/><polygon class="cls-2" points="25.11 11.01 33.95 10.1 44.94 21.61 30.44 25.34 25.11 11.01"/><path class="cls-3" d="M33.8,10.12,44.23,21,30.67,24.52,25.63,11l8.17-.83m.29-.79-9.5,1,5.62,15.11,15.45-4L34.09,9.33Z" transform="translate(0 0.38)"/><path class="cls-4" d="M347.61,76.83,354,68.4a7.4,7.4,0,0,0-3.18-11.34L203.47.47A7.21,7.21,0,0,0,200.91,0H126.83a7.08,7.08,0,0,0-1.71.21L5.51,29.94A7.32,7.32,0,0,0,0,37.07v5.28a7.36,7.36,0,0,0,3.92,6.53l57.43,30a7,7,0,0,0,3.3.82H341.87A7.21,7.21,0,0,0,347.61,76.83Z" transform="translate(0 0.38)"/><g class="cls-5"><polyline class="cls-6" points="152.33 0.38 152.33 30.29 180.04 67.7 243.71 67.7 279.55 28.43"/></g><path class="cls-7" d="M50.53,73.24l10.82,5.65a7,7,0,0,0,3.3.82H341.87a7.21,7.21,0,0,0,5.74-2.88l2.7-3.59Z" transform="translate(0 0.38)"/><polygon class="cls-8" points="146.86 6.16 118.8 6.76 118.64 15.98 116.47 24.59 146.86 25.8 146.86 6.16"/><path class="cls-7" d="M80.41,44.34,48.66,43.16,34.56,64.89l15.95,8.34,10.84,5.66a7,7,0,0,0,3.3.82h39.28l4.78-8.26Z" transform="translate(0 0.38)"/><line class="cls-6" x1="265.23" y1="67.7" x2="98.68" y2="67.7"/><line class="cls-6" x1="51.67" y1="19.41" x2="51.67" y2="25.07"/><line class="cls-9" x1="49.11" y1="20.01" x2="49.11" y2="25.55"/><line class="cls-10" x1="46.56" y1="20.61" x2="46.56" y2="26.02"/><line class="cls-11" x1="44" y1="21.21" x2="44" y2="26.49"/><line class="cls-12" x1="41.45" y1="21.81" x2="41.45" y2="26.97"/><line class="cls-13" x1="38.89" y1="22.41" x2="38.89" y2="27.44"/><line class="cls-14" x1="36.34" y1="23.01" x2="36.34" y2="27.92"/><line class="cls-15" x1="33.78" y1="23.61" x2="33.78" y2="28.39"/><line class="cls-16" x1="31.22" y1="24.21" x2="31.22" y2="28.86"/><line class="cls-17" x1="28.67" y1="24.81" x2="28.67" y2="29.34"/><line class="cls-18" x1="26.11" y1="25.4" x2="26.11" y2="29.81"/><line class="cls-19" x1="23.56" y1="26" x2="23.56" y2="30.29"/><line class="cls-20" x1="21" y1="26.6" x2="21" y2="30.76"/><line class="cls-21" x1="18.44" y1="27.2" x2="18.44" y2="31.23"/><polyline class="cls-21" points="147.19 6.16 136.56 11.77 119.76 11.8"/><line class="cls-21" x1="136.56" y1="11.77" x2="136.56" y2="24.97"/><line class="cls-22" x1="134.46" y1="11.96" x2="134.46" y2="25.26"/><line class="cls-22" x1="132.27" y1="11.9" x2="131.95" y2="25.16"/><line class="cls-22" x1="130.08" y1="11.85" x2="129.44" y2="25.06"/><line class="cls-22" x1="127.88" y1="11.79" x2="126.92" y2="24.96"/><line class="cls-22" x1="125.69" y1="11.74" x2="124.41" y2="24.86"/><line class="cls-22" x1="123.5" y1="11.69" x2="121.9" y2="24.76"/><line class="cls-22" x1="121.31" y1="11.63" x2="119.39" y2="24.67"/><path class="cls-7" d="M135.24,48.64V37.08A2.77,2.77,0,0,1,138,34.31h10.64a2.86,2.86,0,0,1,.58.06l35.08,7.46v3.24l-35.13,6.3a2.59,2.59,0,0,1-.48,0H138A2.77,2.77,0,0,1,135.24,48.64Z" transform="translate(0 0.38)"/><polyline class="cls-6" points="76.58 22.73 117.53 24.59 76.58 22.73 79.83 19.83 119.04 15.98 117.53 24.59"/><path class="cls-7" d="M290.06,45.31c-16.65,0-30.14,11.33-30.14,25.31a20.71,20.71,0,0,0,.17,2.62A21.67,21.67,0,0,0,262,79.71h56.19A22,22,0,0,0,320,73.24a22.75,22.75,0,0,0,.16-2.62C320.19,56.64,306.7,45.31,290.06,45.31Z" transform="translate(0 0.38)"/><circle class="cls-23" cx="65.67" cy="71.83" r="24.47"/><circle class="cls-24" cx="289.03" cy="71.83" r="24.47"/><circle class="cls-24" cx="65.67" cy="71.83" r="24.47"/><circle class="cls-25" cx="65.67" cy="71.83" r="17.01"/><circle class="cls-26" cx="65.67" cy="71.83" r="4.13"/><circle class="cls-27" cx="65.67" cy="71.83" r="2.7"/><circle class="cls-23" cx="65.67" cy="61.29" r="4.13"/><circle class="cls-24" cx="75.7" cy="68.57" r="4.13"/><circle class="cls-24" cx="71.87" cy="80.36" r="4.13"/><circle class="cls-24" cx="59.47" cy="80.36" r="4.13"/><circle class="cls-24" cx="55.64" cy="68.57" r="4.13"/><circle class="cls-24" cx="65.67" cy="61.29" r="4.13"/><path class="cls-23" d="M264.19,79.73a23,23,0,0,1-1.47-8c0-13.82,12.19-25,27.22-25s27.21,11.21,27.21,25a23.24,23.24,0,0,1-1.46,8h6.11a28.23,28.23,0,0,0,1.2-8c0-16.79-14.8-30.41-33.06-30.41S256.87,54.9,256.87,71.69a28.24,28.24,0,0,0,1.21,8Z" transform="translate(0 0.38)"/><circle class="cls-25" cx="289.03" cy="71.83" r="17.01"/><circle class="cls-26" cx="289.03" cy="71.83" r="4.13"/><circle class="cls-27" cx="289.03" cy="71.83" r="2.7"/><circle class="cls-23" cx="289.03" cy="61.29" r="4.13"/><circle class="cls-24" cx="299.06" cy="68.57" r="4.13"/><circle class="cls-24" cx="295.23" cy="80.36" r="4.13"/><circle class="cls-24" cx="282.84" cy="80.36" r="4.13"/><circle class="cls-24" cx="279.01" cy="68.57" r="4.13"/><circle class="cls-24" cx="289.03" cy="61.29" r="4.13"/><polygon class="cls-28" points="152.36 6.16 152.36 25.68 267.39 29.89 206.12 7.24 152.36 6.16"/><line class="cls-6" x1="152.94" y1="15.98" x2="216.12" y2="17.24"/><line class="cls-6" x1="206.54" y1="7.24" x2="227.6" y2="28.42"/><path class="cls-4" d="M45.75,10.44,41.81,6.49a3.6,3.6,0,0,0-2.56-1.06H9.77a3.61,3.61,0,0,0-2.61,6.11L8.53,13a3.53,3.53,0,0,0,.81.63L18.78,19a3.58,3.58,0,0,0,1.81.48H39.41a3.62,3.62,0,0,0,2.21-.75l3.77-2.92A3.62,3.62,0,0,0,45.75,10.44Z" transform="translate(0 0.38)"/><polygon class="cls-29" points="76.58 22.73 76.58 14.85 79.72 11.99 120.35 1.77 119.04 15.98 80.19 19.68 76.58 22.73"/><line class="cls-6" x1="79.83" y1="19.83" x2="79.83" y2="12.13"/><polygon class="cls-21" points="18.44 27.2 51.62 19.14 51.62 25.34 18.44 31.23 18.44 27.2"/><path class="cls-23" d="M51.17,49H77.59a4.27,4.27,0,0,1,3,1.21l21.9,21.29a4.28,4.28,0,0,1,1.15,4.2l-1.1,4h2.94a4.27,4.27,0,0,0,3.92-2.58l2.14-4.91a4.28,4.28,0,0,0-.91-4.74L82.77,39.83a4.28,4.28,0,0,0-3-1.24h-32a4.28,4.28,0,0,0-3.68,2.1L32.55,60.28a4.28,4.28,0,0,0,.52,5.06h0a4.28,4.28,0,0,0,6.9-.8l7.46-13.37A4.3,4.3,0,0,1,51.17,49Z" transform="translate(0 0.38)"/></g></g></svg>