<svg xmlns="http://www.w3.org/2000/svg" viewBox="0 0 109.32 180.33">
    <defs>
        <style>
            .cls-1{fill:#876340;}
            .cls-2{fill:#231f20;}
            .cls-10,.cls-13,.cls-3,
            .cls-4{fill:none;stroke-miterlimit:10;}
            .cls-3,.cls-4{stroke:#fffffd;}
            .cls-3{stroke-width:1px;}
            .cls-4{stroke-width:0.25px;}
            .cls-5{fill:#fffffd;}
            .cls-6{fill:#adadac;}
            .cls-7{fill:#fff;}
            .cls-8{fill:#a97c50;}
            .cls-9{fill:#aebee8;}
            .cls-10{stroke:#a97c50;stroke-width:1.29px;}
            .cls-11{fill:#010202;}.cls-12{fill:#303d5f;}
            .cls-13{stroke:#876340;stroke-width:0.86px;}
        </style>
    </defs>
    <g id="Layer_2" 
    data-name="Layer 2">
    <g id="Mask">
        <path class="cls-1" 
            d="M74.71,163.27v0l26.76,14.54v2.5H71.25V178.1a1.5,1.5,0,0,0-3,0v2.23H62.81V163.27Z"/>
            <path class="cls-1" 
            d="M34.34,163.27v0L7.59,177.83v2.5H37.8V178.1a1.51,1.51,0,0,1,3,0v2.23h5.43V163.27Z"/>
            <path class="cls-2" 
            d="M34.34,157.34l5.8-59.51h28.7l5.81,59.51,5.93,7.6-19.31,9V117.66a6.77,6.77,0,0,0-6.78-6.77h0a6.77,6.77,0,0,0-6.77,6.77v56.25l-19.31-9Z"/>
            <line class="cls-3" x1="71.85" y1="171.8" x2="61.27" y2="176.86"/>
            <line class="cls-4" x1="62.09" y1="176.86" x2="57.73" y2="176.86"/>
            <polygon class="cls-5" 
            points="58.22 175.7 57.33 174.72 57.4 176.04 56.08 175.97 57.06 176.86 56.08 177.75 57.4 177.68 57.33 179 58.22 178.02 59.11 179 59.04 177.68 60.36 177.75 59.38 176.86 60.36 175.97 59.04 176.04 59.11 174.72 58.22 175.7"/>
            <line class="cls-3" x1="37.03" y1="171.8" x2="47.61" y2="176.86"/>
            <line class="cls-4" x1="46.78" y1="176.86" x2="51.14" y2="176.86"/>
            <polygon class="cls-5" points="50.66 175.7 51.54 174.72 51.48 176.04 52.8 175.97 51.82 176.86 52.8 177.75 51.48 177.68 51.54 179 50.66 178.02 49.77 179 49.84 177.68 48.51 177.75 49.5 176.86 48.51 175.97 49.84 176.04 49.77 174.72 50.66 175.7"/>
            <path class="cls-6" d="M60.55,35.56H89.23c0-5.21-6.42-9.43-14.34-9.43S60.55,30.35,60.55,35.56Z"/>
            <path class="cls-7" d="M43.55,0h22a0,0,0,0,1,0,0V24.58a11,11,0,0,1-11,11h0a11,11,0,0,1-11-11V0A0,0,0,0,1,43.55,0Z" transform="translate(109.06 35.56) rotate(-180)"/>
            <rect class="cls-6" x="43.55" y="29.88" width="21.96" height="2.45" transform="translate(109.06 62.22) rotate(-180)"/>
            <rect class="cls-8" x="43.55" y="35.56" width="21.96" height="14.14" transform="translate(109.06 85.26) rotate(-180)"/>
            <rect class="cls-1" x="43.55" y="35.56" width="21.96" height="1.76" transform="translate(109.06 72.88) rotate(-180)"/>
            <polygon class="cls-9" points="44.64 97.83 65.6 97.83 96.93 49.7 13.31 49.7 44.64 97.83"/>
            <line class="cls-10" x1="71.2" y1="103.41" x2="34.37" y2="103.41"/>
            <line class="cls-10" x1="70.58" y1="97.83" x2="33.17" y2="111.45"/>
            <rect class="cls-11" x="36.35" y="118.39" width="2.59" height="2.27" transform="translate(75.28 239.05) rotate(-180)"/>
            <polygon class="cls-9" points="7.29 113.51 11.51 113.47 38.98 53.84 7.29 53.84 7.29 113.51"/>
            <path class="cls-1" 
            d="M3.74,108.49h1.1V95.12H24.18A2.34,2.34,0,0,1,26,98.91l-7.58,9.59h.09A2.51,2.51,0,0,1,21,111v9.55a2.61,2.61,0,0,1-2.25,2.64A2.51,2.51,0,0,1,16,120.7v-4a2.24,2.24,0,0,0-2.24-2.25h0a2.25,2.25,0,0,0-2.25,2.25v7.47a3,3,0,0,1-2.54,3,2.84,2.84,0,0,1-3.13-2.82L.73,117.22V111.5A3,3,0,0,1,3.74,108.49Z"/>
            <polygon class="cls-9" points="101.77 113.51 97.55 113.47 70.08 53.84 101.77 53.84 101.77 113.51"/>
            <path class="cls-1" 
            d="M105.32,108.49h-1.1V95.12H84.88a2.34,2.34,0,0,0-1.83,3.79l7.58,9.59h-.09A2.52,2.52,0,0,0,88,111v9.55a2.61,2.61,0,0,0,2.26,2.64,2.51,2.51,0,0,0,2.77-2.5v-4a2.25,2.25,0,0,1,2.25-2.25h0a2.25,2.25,0,0,1,2.25,2.25v7.47a3,3,0,0,0,2.54,3,2.84,2.84,0,0,0,3.13-2.82l5.11-7.07V111.5A3,3,0,0,0,105.32,108.49Z"/>
            <path class="cls-12" 
            d="M7.29,49.7h94.46a0,0,0,0,1,0,0v9.69a2.92,2.92,0,0,1-2.92,2.92H10.21a2.92,2.92,0,0,1-2.92-2.92V49.7a0,0,0,0,1,0,0Z" transform="translate(109.04 112.01) rotate(180)"/>
            <path class="cls-2" 
            d="M38.56,96.22V92.39a2.29,2.29,0,0,0-.66-1.6l-8.41-4.33a2.27,2.27,0,0,0-2.26,2.27v3A2.26,2.26,0,0,0,29.49,94h2.62a2.27,2.27,0,0,1,2.26,2.27h4.19"/>
            <path class="cls-11" d="M38.93,98h1.35a.77.77,0,0,0,.56-.23l.8-.79a.83.83,0,0,0,.23-.56V94.81a.8.8,0,0,0-.8-.8h-.54a.8.8,0,0,0-.8.8v.92a.79.79,0,0,1-.79.8h0V98"/>
            <circle class="cls-11" cx="36.35" cy="98.34" r="3.45"/>
            <path class="cls-1" d="M32.68,118.39l-3.58-19a1.28,1.28,0,0,1,1.26-1.52H41.84v20.56Z"/>
            <circle class="cls-7" cx="54.48" cy="101.34" r="6.78"/>
            <path class="cls-6" 
            d="M24.08,35.56H57.3c0-7.41-7.44-13.41-16.61-13.41S24.08,28.15,24.08,35.56Z"/>
            <path class="cls-7" 
            d="M23.13,35.56H56.36c0-7.41-7.44-13.41-16.62-13.41S23.13,28.15,23.13,35.56Z"/>
            <path class="cls-7" 
            d="M56.36,46.81H47.71v-7S56.36,37.82,56.36,46.81Z"/>
            <line class="cls-13" x1="6.44" y1="97.13" y2="97.13"/>
            <line class="cls-13" x1="7.44" y1="101.34" x2="0.99" y2="101.34"/>
            <line class="cls-13" x1="8.43" y1="105.55" x2="1.99" y2="105.55"/>
            <line class="cls-13" x1="102.88" y1="97.13" x2="109.32" y2="97.13"/>
            <line class="cls-13" x1="101.89" y1="101.34" x2="108.33" y2="101.34"/>
            <line class="cls-13" x1="100.89" y1="105.55" x2="107.34" y2="105.55"/>
            <ellipse class="cls-9" cx="40.69" cy="62.31" rx="14.19" ry="5.33"/>
            <ellipse class="cls-9" cx="68.71" cy="62.31" rx="13.83" ry="5.33"/>
            <polygon class="cls-7" points="68.6 70.07 64.58 72.19 65.35 67.71 62.09 64.54 66.59 63.88 68.6 59.81 70.61 63.88 75.11 64.54 71.85 67.71 72.62 72.19 68.6 70.07"/>
        </g>
    </g>
</svg>