<svg xmlns="http://www.w3.org/2000/svg" xmlns:xlink="http://www.w3.org/1999/xlink" viewBox="0 0 165.64 420.75"><defs><style>.cls-1,.cls-4,.cls-5{fill:none;}.cls-2,.cls-9{fill:#fff;}.cls-3{isolation:isolate;}.cls-4,.cls-5{stroke:#7a7563;stroke-miterlimit:10;}.cls-4{stroke-width:11.71px;}.cls-5{stroke-width:12.21px;}.cls-6{fill:#3e403d;}.cls-7{opacity:0.45;mix-blend-mode:overlay;fill:url(#New_Pattern_Swatch_3);}.cls-8{fill:#7a7563;}.cls-9{font-size:30px;font-family:DudeHankJr;letter-spacing:-0.02em;}.cls-10{letter-spacing:-0.04em;}.cls-11{letter-spacing:0.04em;}</style><pattern id="New_Pattern_Swatch_3" data-name="New Pattern Swatch 3" width="129.99" height="250" patternTransform="translate(0 -144)" patternUnits="userSpaceOnUse" viewBox="0 0 129.99 250"><rect class="cls-1" width="129.99" height="250"/><path class="cls-2" d="M3.36,250h-1c0-1.13.07-2.36.15-3.66a45.71,45.71,0,0,0,.1-5.31c-.26-3.94-.77-7.72-1.26-11.36-1.15-8.54-2.24-16.61-.29-26.21,1.4-6.89,3-13.45,4.53-19.79,4.75-19.56,9.23-38,6.4-60.61-1.08-8.56-2.78-17.24-4.43-25.64C4.49,81.7,1.3,65.45,2.06,49.21c.59-12.66.5-23.46.39-34.89C2.41,9.73,2.37,5,2.37,0h1c0,5,.05,9.72.09,14.31.1,11.45.2,22.26-.4,34.95-.75,16.12,2.43,32.31,5.5,48,1.65,8.41,3.36,17.11,4.43,25.71,2.86,22.75-1.64,41.32-6.42,61C5,190.24,3.44,196.79,2.05,203.66c-1.92,9.44-.85,17.42.29,25.87.5,3.67,1,7.46,1.27,11.44a47.7,47.7,0,0,1-.1,5.43C3.43,247.68,3.36,248.9,3.36,250Z"/><path class="cls-2" d="M18.27,250h-1c0-26.81,1.57-57.57,4.42-86.62.9-9.18.3-18.55-.28-27.62-.44-6.72-.88-13.67-.72-20.52.19-7.86.22-19.62-1.67-30.91a100,100,0,0,0-2.79-11.19c-1.65-5.72-3.36-11.64-3.44-17.59A31.5,31.5,0,0,1,16.11,40.7a31.55,31.55,0,0,0,3.34-14.48,71.49,71.49,0,0,0-1-11.5A88.44,88.44,0,0,1,17.27,0h1a87,87,0,0,0,1.17,14.57,72.05,72.05,0,0,1,1,11.65A32.4,32.4,0,0,1,17,41.1c-1.71,3.91-3.34,7.59-3.24,14.44.08,5.81,1.77,11.66,3.41,17.32A103,103,0,0,1,20,84.16c1.91,11.38,1.88,23.2,1.69,31.1-.17,6.81.28,13.74.71,20.44.58,9.1,1.19,18.52.28,27.78C19.83,192.5,18.27,223.22,18.27,250Z"/><path class="cls-2" d="M33.17,250h-1c0-2.44-.66-7.65-.72-8-1.13-7.37.08-11,1.62-15.66a60.84,60.84,0,0,0,2.53-9.51c2.81-16.14,1.6-33.85.44-51-.35-5.06-.67-9.84-.9-14.62-.27-5.7-.59-11.4-.91-17.1-.48-8.71-1-17.71-1.31-26.6a96.8,96.8,0,0,0-1.37-11.46c-.95-5.9-1.93-12-1.11-18,.68-4.9,2.6-9,4.45-13,3-6.4,5.76-12.43,3-20.77C32.57,28.06,32.17,16.22,32.17,0h1c0,16.12.39,27.89,5.68,44,2.86,8.72,0,14.93-3.06,21.51-1.82,3.93-3.7,8-4.36,12.75-.8,5.79.16,11.82,1.1,17.65a95.93,95.93,0,0,1,1.38,11.59c.33,8.87.83,17.87,1.32,26.58.31,5.7.63,11.4.9,17.1.23,4.77.56,9.55.9,14.61C38.2,183,39.41,200.72,36.57,217A60.73,60.73,0,0,1,34,226.64c-1.49,4.5-2.68,8.06-1.58,15.19C32.49,242.22,33.17,247.45,33.17,250Z"/><path class="cls-2" d="M48.07,250h-1a26.86,26.86,0,0,0-.72-4.6c-.85-4.11-1.91-9.22-.22-12.64,7.18-14.47,5.16-25.6,3-37.38-1.07-5.89-2.18-12-2.08-18.56.17-11.08-.36-22.31-.87-33.18-.63-13.53-1.29-27.53-.62-41.47C47.11,70.8,47.09,41,47.08,9.43V0h1V9.43c0,31.57,0,61.4-1.49,92.79-.68,13.89,0,27.86.61,41.38.52,10.87,1.05,22.12.88,33.23-.11,6.49,1,12.53,2,18.37,2.18,12,4.23,23.24-3.1,38-1.54,3.11-.52,8,.3,12A27.5,27.5,0,0,1,48.07,250Z"/><path class="cls-2" d="M63,250H62c0-2.1-.19-5.66-.42-9.79-.52-9.21-1.16-20.69,0-23.64,8.91-22.44,8.14-38,7.25-56a248.18,248.18,0,0,1-.11-32.08c.56-7.75-3.08-20.62-6.29-32C60.31,89,58.31,82,57.67,77c-.6-4.67.46-10.54,1.48-16.23,1-5.35,2-10.89,1.53-15.24-1-9.65-.32-18.23.38-27.32C61.51,12.4,62,6.38,62,0h1c0,6.42-.47,12.46-.92,18.3-.7,9.05-1.36,17.59-.38,27.15.45,4.49-.56,10.1-1.54,15.52-1,5.61-2.06,11.41-1.47,15.92.63,4.86,2.61,11.87,4.71,19.3,3.24,11.43,6.9,24.39,6.33,32.32a250,250,0,0,0,.11,32c.9,18.15,1.68,33.83-7.32,56.47-1.09,2.75-.43,14.58,0,23.22C62.77,244.3,63,247.87,63,250Z"/><path class="cls-2" d="M77.87,250h-1c0-3.24.06-9.75.12-16.64s.12-14.41.13-19.36c0-8.79.78-17.31,1.51-25.55,1.25-14.1,2.44-27.42.3-42.11a290.35,290.35,0,0,1-2.75-54.43c.29-7.48-.07-15-.43-22.31C75.38,61.88,75,53.91,75.38,46a83.71,83.71,0,0,1,2.25-13.78c1.21-5.5,2.45-11.19,2.22-16.73a16.2,16.2,0,0,0-1.19-5.21A26.81,26.81,0,0,1,76.87,0h1A26,26,0,0,0,79.6,9.93a17.67,17.67,0,0,1,1.25,5.5c.23,5.68-1,11.43-2.25,17A82.62,82.62,0,0,0,76.38,46c-.39,7.87,0,15.82.37,23.51.35,7.31.72,14.88.43,22.4a290,290,0,0,0,2.73,54.24c2.16,14.81,1,28.19-.29,42.35-.73,8.22-1.48,16.72-1.5,25.46,0,4.95-.08,12.38-.14,19.37S77.87,246.77,77.87,250Z"/><path class="cls-2" d="M92.77,250h-1c0-3.06-.33-7.21-.72-12-1-12.15-2.34-28.79.93-41.13a70.7,70.7,0,0,1,3.8-10.08c2.09-4.8,4.26-9.78,4.64-15.25.51-7.45-2-13.53-4.74-20-.9-2.14-1.83-4.36-2.65-6.66-5.1-14.18-5.17-27.11-.24-43.25C98.26,83.75,102.21,67.42,95,49c-5.26-13.51-4.6-23.5-3.85-35.08.29-4.37.58-8.89.58-13.93h1c0,5.07-.3,9.61-.59,14C91.44,25.45,90.79,35.35,96,48.64c7.28,18.71,3.3,35.22-2.23,53.32-4.93,16.12-4.86,28.47.22,42.61.82,2.28,1.74,4.48,2.64,6.61,2.75,6.55,5.34,12.73,4.81,20.42-.4,5.65-2.6,10.7-4.72,15.59a69.24,69.24,0,0,0-3.75,9.93c-3.23,12.17-1.88,28.71-.9,40.79C92.43,242.73,92.77,246.9,92.77,250Z"/><path class="cls-2" d="M107.67,250h-1c0-2.4,0-4.92.07-7.54.13-10.13.27-21.62-1.3-33.7-1.41-10.85.34-21.92,2-32.63,1.48-9.34,3-19,2.44-28.49-.78-13.08.91-26.12,2.54-38.73,1.16-9,2.36-18.33,2.68-27.68.57-16.59-1.66-32-4-48.4-.65-4.49-1.32-9.13-1.92-13.75-.3-2.31-.66-4.28-1-6.19A65.72,65.72,0,0,1,106.83,0h1a64.93,64.93,0,0,0,1.33,12.71c.34,1.92.7,3.91,1,6.24.6,4.61,1.27,9.25,1.92,13.74,2.27,15.68,4.62,31.9,4.05,48.58-.32,9.39-1.53,18.73-2.7,27.77-1.62,12.56-3.3,25.56-2.53,38.54.56,9.61-1,19.32-2.44,28.71-1.68,10.64-3.41,21.64-2,32.34,1.58,12.15,1.43,23.68,1.3,33.84C107.7,245.09,107.67,247.6,107.67,250Z"/><path class="cls-2" d="M122.57,250h-1c0-.81.27-2.75.58-5a58.59,58.59,0,0,0,.73-6.72c-1.73-36.52-.32-69.81,4.71-111.33,3.15-25.93.39-51-2.28-75.3-1.83-16.73-3.74-34-3.74-51.64h1c0,17.55,1.9,34.83,3.73,51.53,2.67,24.33,5.44,49.48,2.28,75.53-5,41.46-6.44,74.7-4.71,111.17a56.31,56.31,0,0,1-.73,6.9C122.84,247.25,122.57,249.26,122.57,250Z"/><path class="cls-2" d="M85.29,104.25l-.93-.36c2.7-7.1,6-22.11,1.33-33.29l.91-.39C91.41,81.68,88,97,85.29,104.25Z"/><path class="cls-2" d="M86,97a19.37,19.37,0,0,1,1.37-20.54l.79.6A18.38,18.38,0,0,0,86.91,96.5Z"/><path class="cls-2" d="M23.92,68.83c-2.46-7.2-1.87-19.22,1.33-27.35l.93.37c-3.13,7.94-3.71,19.65-1.32,26.65Z"/><path class="cls-2" d="M24.41,67l-.7-.71c6-6,3.54-15,.6-19.36l.82-.57C29.05,52.14,30.12,61.33,24.41,67Z"/><path class="cls-2" d="M99.44,226.22c-2.74-5.57-4.87-13.94-2.68-20.71l.95.31c-2.11,6.49,0,14.56,2.62,20Z"/><path class="cls-2" d="M99,221.53l-.92-.39c1.55-3.7.94-7.36-1.44-8.7l.49-.88C100,213.16,100.76,217.35,99,221.53Z"/><path class="cls-2" d="M58.35,161.46l-.28-1.06c-2-7.74-4.85-18.34-4-28.77l1,.08c-.79,10.26,2,20.76,4,28.43l.28,1.07Z"/><path class="cls-2" d="M58.19,157.35l-.71-.7c2-2.08,2.81-5.21,2.35-8.81-.5-3.92-2.47-7.57-4.91-9.08l.53-.85c2.67,1.66,4.83,5.6,5.36,9.8C61.31,151.62,60.38,155,58.19,157.35Z"/></pattern></defs><g class="cls-3"><g id="Layer_2" data-name="Layer 2"><g id="Layer_8" data-name="Layer 8"><line class="cls-4" x1="40.21" y1="142.75" x2="28.31" y2="420.5"/><line class="cls-4" x1="127.53" y1="142.75" x2="139.43" y2="420.5"/><line class="cls-4" x1="36.88" y1="228.49" x2="128.67" y2="161.18"/><line class="cls-4" x1="36.88" y1="161.18" x2="128.67" y2="228.49"/><line class="cls-5" x1="33.91" y1="331.38" x2="133.82" y2="264.07"/><line class="cls-5" x1="33.91" y1="264.07" x2="133.82" y2="331.38"/><rect class="cls-6" x="27.23" y="42.72" width="111.18" height="105.06"/><rect class="cls-7" x="27.23" y="42.72" width="111.18" height="105.06"/><polygon class="cls-8" points="0 42.72 82.82 0 165.64 42.72 0 42.72"/><text class="cls-9" transform="translate(33.19 100.93) scale(1.17 1)">W<tspan class="cls-10" x="24.87" y="0">A</tspan><tspan class="cls-11" x="42.12" y="0">TER</tspan></text><polyline class="cls-4" points="138.41 125.57 154.62 125.57 154.62 137.9"/></g></g></g></svg>