<svg xmlns="http://www.w3.org/2000/svg" xmlns:xlink="http://www.w3.org/1999/xlink" viewBox="0 0 674.36 133.93"><defs><style>.cls-1,.cls-11,.cls-12,.cls-13,.cls-15,.cls-16,.cls-18,.cls-19,.cls-20,.cls-3,.cls-7,.cls-8{fill:none;}.cls-2{fill:#be1e2d;}.cls-15,.cls-16,.cls-19,.cls-3{stroke:#231f20;}.cls-11,.cls-12,.cls-13,.cls-15,.cls-16,.cls-18,.cls-19,.cls-3,.cls-7,.cls-8{stroke-miterlimit:10;}.cls-3{stroke-width:6.5px;}.cls-4{fill:#e04f5c;}.cls-5{fill:#231f20;}.cls-6{fill:#9e1021;}.cls-11,.cls-13,.cls-18,.cls-20,.cls-7{stroke:#9e1021;}.cls-7{stroke-width:8.35px;}.cls-12,.cls-8{stroke:#be1e2d;}.cls-8{stroke-width:1.3px;}.cls-9{fill:#ffef9c;}.cls-10{fill:#414042;}.cls-11,.cls-16{stroke-width:3.24px;}.cls-12,.cls-19{stroke-width:2.16px;}.cls-13{stroke-width:5.09px;}.cls-14{fill:#7c7c7c;}.cls-15{stroke-width:5.4px;}.cls-17{clip-path:url(#clip-path);}.cls-18{stroke-width:1.08px;}.cls-20{stroke-linecap:round;stroke-linejoin:round;stroke-width:2.06px;}</style><clipPath id="clip-path"><polygon class="cls-1" points="57.65 102.52 57.65 132.63 0 132.63 0 126.78 44.33 102.52 57.65 102.52"/></clipPath></defs><g id="Layer_2" data-name="Layer 2"><g id="Layer_8" data-name="Layer 8"><rect class="cls-2" x="37.68" y="15.85" width="17.28" height="1.59"/><line class="cls-3" x1="234.24" y1="8.08" x2="134.33" y2="8.08"/><polygon class="cls-2" points="87.36 0 76.35 0 62.19 18.88 101.51 18.88 87.36 0"/><polygon class="cls-4" points="83.61 0 80.09 0 75.56 18.88 88.14 18.88 83.61 0"/><rect class="cls-5" x="37.68" y="20.22" width="17.28" height="11.67"/><rect class="cls-5" x="40.41" y="15.88" width="14.54" height="21.87"/><rect class="cls-2" x="148.41" y="8.08" width="70.18" height="94.44"/><rect class="cls-6" x="148.41" y="8.08" width="70.18" height="33.57" transform="translate(367 49.73) rotate(-180)"/><rect class="cls-6" x="148.41" y="85.31" width="70.18" height="17.21" transform="translate(367 187.83) rotate(-180)"/><rect class="cls-2" x="62.85" y="37.75" width="85.56" height="64.77"/><rect class="cls-6" x="62.85" y="85.31" width="85.56" height="17.21" transform="translate(211.26 187.83) rotate(-180)"/><polygon class="cls-2" points="46.93 73.6 62.85 102.52 62.85 37.75 46.93 66.67 46.93 73.6"/><polygon class="cls-6" points="62.85 85.31 62.85 102.52 53.38 85.31 62.85 85.31"/><line class="cls-7" x1="218.59" y1="102.52" x2="49.53" y2="102.52"/><polygon class="cls-6" points="76.35 37.75 87.36 37.75 101.51 18.88 62.19 18.88 76.35 37.75"/><path class="cls-5" d="M108.93,27.41c.93,0,1.69-1.09,1.69-2.44V23.59A3.37,3.37,0,0,1,114,20.22h0a3.37,3.37,0,0,1,3.37,3.37V25c0,1.35.76,2.44,1.69,2.44s1.68,1.09,1.68,2.43V31H107.25V29.84C107.25,28.5,108,27.41,108.93,27.41Z"/><path class="cls-8" d="M122,40.33v-15a8,8,0,0,0-8-8h0a8,8,0,0,0-8,8v15"/><circle class="cls-5" cx="105.77" cy="120.37" r="13.55"/><circle class="cls-2" cx="105.77" cy="120.37" r="11.61"/><circle class="cls-5" cx="105.77" cy="120.37" r="3.45"/><circle class="cls-5" cx="76.78" cy="120.37" r="13.55"/><circle class="cls-2" cx="76.78" cy="120.37" r="11.61"/><circle class="cls-5" cx="76.78" cy="120.37" r="3.45"/><circle class="cls-5" cx="304.52" cy="120.37" r="13.55"/><circle class="cls-2" cx="304.52" cy="120.37" r="11.61"/><circle class="cls-5" cx="304.52" cy="120.37" r="3.45"/><circle class="cls-5" cx="275.53" cy="120.37" r="13.55"/><circle class="cls-2" cx="275.53" cy="120.37" r="11.61"/><circle class="cls-5" cx="275.53" cy="120.37" r="3.45"/><rect class="cls-9" x="156.66" y="14.36" width="54.95" height="27.29" transform="translate(368.27 56.01) rotate(-180)"/><rect class="cls-2" x="218.59" y="41.65" width="18.2" height="52.7"/><rect class="cls-6" x="218.59" y="85.31" width="18.2" height="9.04" transform="translate(455.38 179.66) rotate(-180)"/><path class="cls-4" d="M50.63,68.16l12.22-3.77H236.79V75.87H62.85c-.13,0-8.7-2.52-12.22-3.73Z"/><rect class="cls-5" x="42.06" y="60.17" width="8.57" height="19.82"/><rect class="cls-10" x="42.06" y="68.14" width="8.57" height="3.98"/><path class="cls-6" d="M250.74,112h79.65V16H297.72A13.41,13.41,0,0,0,284.3,29.39h0a13.41,13.41,0,0,1-13.41,13.44H250.74Z"/><path class="cls-5" d="M253.09,112h79.65V16H300.06a13.41,13.41,0,0,0-13.41,13.43h0a13.41,13.41,0,0,1-13.41,13.44H253.09Z"/><path class="cls-11" d="M319.6,101.2V26.75H297.72a2.59,2.59,0,0,0-1.86.77,2.52,2.52,0,0,0-.76,1.85,24.21,24.21,0,0,1-24.21,24.25h-9.36V101.2Z"/><circle class="cls-5" cx="205" cy="111.99" r="21.93"/><circle class="cls-5" cx="205" cy="111.99" r="17.87"/><path class="cls-2" d="M205,94.66A17.34,17.34,0,1,1,187.67,112,17.35,17.35,0,0,1,205,94.66m0-1.08A18.42,18.42,0,1,0,223.41,112,18.41,18.41,0,0,0,205,93.58Z"/><circle class="cls-5" cx="205" cy="111.99" r="7.9"/><path class="cls-2" d="M205,104.63a7.36,7.36,0,1,1-7.36,7.36,7.37,7.37,0,0,1,7.36-7.36m0-1.08a8.44,8.44,0,1,0,8.44,8.44,8.44,8.44,0,0,0-8.44-8.44Z"/><line class="cls-12" x1="205" y1="111.99" x2="205" y2="94.35"/><line class="cls-12" x1="204.99" y1="111.99" x2="205.01" y2="94.35"/><line class="cls-12" x1="204.98" y1="111.99" x2="205.02" y2="94.35"/><line class="cls-12" x1="204.98" y1="111.99" x2="213.84" y2="96.73"/><line class="cls-12" x1="204.98" y1="111.99" x2="220.28" y2="103.21"/><line class="cls-12" x1="204.98" y1="111.99" x2="222.62" y2="112.03"/><line class="cls-12" x1="204.98" y1="111.99" x2="220.24" y2="120.85"/><line class="cls-12" x1="204.98" y1="111.99" x2="213.77" y2="127.3"/><line class="cls-12" x1="204.98" y1="111.99" x2="204.94" y2="129.64"/><line class="cls-12" x1="204.98" y1="111.99" x2="196.12" y2="127.26"/><line class="cls-12" x1="204.98" y1="111.99" x2="189.67" y2="120.78"/><line class="cls-12" x1="204.98" y1="111.99" x2="187.33" y2="111.95"/><line class="cls-12" x1="204.98" y1="111.99" x2="189.72" y2="103.14"/><line class="cls-12" x1="204.98" y1="111.99" x2="196.19" y2="96.69"/><circle class="cls-2" cx="205" cy="111.99" r="5.1"/><circle class="cls-5" cx="205" cy="111.99" r="2.43"/><circle class="cls-5" cx="156.66" cy="111.99" r="21.93"/><circle class="cls-5" cx="156.66" cy="111.99" r="17.87"/><path class="cls-2" d="M156.66,94.66A17.34,17.34,0,1,1,139.33,112a17.35,17.35,0,0,1,17.33-17.33m0-1.08A18.42,18.42,0,1,0,175.07,112a18.41,18.41,0,0,0-18.41-18.41Z"/><path class="cls-5" d="M156.66,119.89a7.9,7.9,0,1,1,7.9-7.9A7.9,7.9,0,0,1,156.66,119.89Z"/><path class="cls-2" d="M156.66,104.63A7.36,7.36,0,1,1,149.3,112a7.37,7.37,0,0,1,7.36-7.36m0-1.08A8.44,8.44,0,1,0,165.1,112a8.44,8.44,0,0,0-8.44-8.44Z"/><line class="cls-12" x1="156.66" y1="111.99" x2="156.66" y2="94.35"/><line class="cls-12" x1="156.65" y1="111.99" x2="156.67" y2="94.35"/><line class="cls-12" x1="156.64" y1="111.99" x2="156.68" y2="94.35"/><line class="cls-12" x1="156.64" y1="111.99" x2="165.5" y2="96.73"/><line class="cls-12" x1="156.64" y1="111.99" x2="171.94" y2="103.21"/><line class="cls-12" x1="156.64" y1="111.99" x2="174.29" y2="112.03"/><line class="cls-12" x1="156.64" y1="111.99" x2="171.9" y2="120.85"/><line class="cls-12" x1="156.64" y1="111.99" x2="165.43" y2="127.3"/><line class="cls-12" x1="156.64" y1="111.99" x2="156.6" y2="129.64"/><line class="cls-12" x1="156.64" y1="111.99" x2="147.78" y2="127.26"/><line class="cls-12" x1="156.64" y1="111.99" x2="141.34" y2="120.78"/><line class="cls-12" x1="156.64" y1="111.99" x2="138.99" y2="111.95"/><line class="cls-12" x1="156.64" y1="111.99" x2="141.38" y2="103.14"/><line class="cls-12" x1="156.64" y1="111.99" x2="147.85" y2="96.69"/><circle class="cls-2" cx="156.66" cy="111.99" r="5.1"/><circle class="cls-5" cx="156.66" cy="111.99" r="2.43"/><line class="cls-13" x1="184.14" y1="11.65" x2="184.14" y2="42.83"/><rect class="cls-14" x="199.9" y="109.57" width="5.1" height="5.34" transform="translate(404.9 224.48) rotate(-180)"/><rect class="cls-14" x="156.6" y="110.53" width="43.3" height="3.43"/><rect class="cls-14" x="151.5" y="109.57" width="5.1" height="5.34" transform="translate(308.1 224.48) rotate(-180)"/><rect class="cls-14" x="108.2" y="110.53" width="43.3" height="3.43"/><line class="cls-15" x1="129.85" y1="36.68" x2="129.85" y2="107.16"/><line class="cls-15" x1="97.17" y1="36.68" x2="97.17" y2="107.16"/><rect class="cls-10" x="63.75" y="98.26" width="47.49" height="18.84"/><rect class="cls-14" x="63.75" y="102.11" width="47.49" height="3.63" transform="translate(175 207.85) rotate(-180)"/><circle class="cls-14" cx="113.99" cy="85.31" r="6.74"/><circle class="cls-10" cx="113.99" cy="85.31" r="3.44"/><line class="cls-16" x1="236.79" y1="85.31" x2="119.35" y2="85.31"/><g class="cls-17"><polygon class="cls-2" points="57.65 102.52 57.65 132.63 0 132.63 0 126.78 44.33 102.52 57.65 102.52"/><line class="cls-11" x1="49.62" y1="102.52" x2="49.62" y2="127.26"/><line class="cls-11" x1="45.77" y1="102.52" x2="40.41" y2="127.26"/><line class="cls-11" x1="41.93" y1="102.52" x2="31.2" y2="127.26"/><line class="cls-11" x1="34.01" y1="106.11" x2="16.92" y2="127.26"/><line class="cls-18" x1="57.65" y1="127.26" y2="127.26"/></g><circle class="cls-5" cx="120.73" cy="105.02" r="4.39"/><path class="cls-19" d="M120.73,105V101a5.22,5.22,0,0,0-5.21-5.22H84.17A5.21,5.21,0,0,1,79,90.52h0a5.21,5.21,0,0,1,5.21-5.21h23.08"/><rect class="cls-5" x="230.05" y="98.26" width="20.69" height="7.48" transform="translate(480.79 204) rotate(-180)"/><rect class="cls-10" x="236.25" y="98.26" width="8.28" height="7.48"/><rect class="cls-5" x="230.72" y="94.35" width="3.24" height="3.91" transform="translate(464.68 192.61) rotate(-180)"/><line class="cls-19" x1="232.34" y1="96.3" x2="218.36" y2="96.3"/><circle class="cls-5" cx="396.11" cy="120.37" r="13.55"/><circle class="cls-2" cx="396.11" cy="120.37" r="11.61"/><circle class="cls-5" cx="396.11" cy="120.37" r="3.45"/><circle class="cls-5" cx="367.13" cy="120.37" r="13.55"/><circle class="cls-2" cx="367.13" cy="120.37" r="11.61"/><circle class="cls-5" cx="367.13" cy="120.37" r="3.45"/><circle class="cls-5" cx="477.08" cy="120.37" r="13.55"/><circle class="cls-2" cx="477.08" cy="120.37" r="11.61"/><circle class="cls-5" cx="477.08" cy="120.37" r="3.45"/><circle class="cls-5" cx="448.09" cy="120.37" r="13.55"/><circle class="cls-2" cx="448.09" cy="120.37" r="11.61"/><circle class="cls-5" cx="448.09" cy="120.37" r="3.45"/><rect class="cls-5" x="344.41" y="4.91" width="159.29" height="107.09" transform="translate(848.1 116.9) rotate(-180)"/><rect class="cls-5" x="344.41" y="4.91" width="159.29" height="107.09" transform="translate(848.1 116.9) rotate(-180)"/><rect class="cls-11" x="381.3" y="-10.4" width="85.5" height="137.71" transform="translate(482.5 -365.6) rotate(90)"/><rect class="cls-5" x="327.72" y="112.24" width="19.7" height="4.85" transform="translate(675.14 229.33) rotate(-180)"/><rect class="cls-10" x="335.27" y="112.24" width="4.59" height="4.85"/><circle class="cls-5" cx="566.77" cy="120.37" r="13.55"/><circle class="cls-2" cx="566.77" cy="120.37" r="11.61"/><circle class="cls-5" cx="566.77" cy="120.37" r="3.45"/><circle class="cls-5" cx="537.78" cy="120.37" r="13.55"/><circle class="cls-2" cx="537.78" cy="120.37" r="11.61"/><circle class="cls-5" cx="537.78" cy="120.37" r="3.45"/><circle class="cls-5" cx="647.74" cy="120.37" r="13.55"/><circle class="cls-2" cx="647.74" cy="120.37" r="11.61"/><circle class="cls-5" cx="647.74" cy="120.37" r="3.45"/><circle class="cls-5" cx="618.75" cy="120.37" r="13.55"/><circle class="cls-2" cx="618.75" cy="120.37" r="11.61"/><circle class="cls-5" cx="618.75" cy="120.37" r="3.45"/><rect class="cls-5" x="515.06" y="4.91" width="159.29" height="107.09" transform="translate(1189.42 116.9) rotate(-180)"/><rect class="cls-5" x="515.06" y="4.91" width="159.29" height="107.09" transform="translate(1189.42 116.9) rotate(-180)"/><rect class="cls-11" x="551.96" y="-10.4" width="85.5" height="137.71" transform="translate(653.16 -536.26) rotate(90)"/><rect class="cls-5" x="498.38" y="112.24" width="19.7" height="4.85" transform="translate(1016.45 229.33) rotate(-180)"/><rect class="cls-10" x="505.93" y="112.24" width="4.59" height="4.85"/><polyline class="cls-20" points="62.85 105.02 62.85 37.75 39.43 37.75 39.43 40.33 58.37 44.03 58.37 38.23"/></g></g></svg>