<svg xmlns="http://www.w3.org/2000/svg" xmlns:xlink="http://www.w3.org/1999/xlink" viewBox="0 0 444.07 254.23"><defs><style>.cls-1,.cls-10,.cls-14,.cls-16,.cls-18,.cls-19,.cls-22,.cls-23,.cls-26,.cls-28{fill:none;}.cls-2{fill:#d8ccb4;}.cls-3{fill:#c8b585;}.cls-4{fill:#785d45;}.cls-5{fill:#493f37;}.cls-6{isolation:isolate;}.cls-7{fill:#c2b59b;opacity:0.5;}.cls-16,.cls-7{mix-blend-mode:multiply;}.cls-8{fill:#a97c50;}.cls-9{fill:#6d6e71;}.cls-10,.cls-14,.cls-16,.cls-18,.cls-19,.cls-20,.cls-22,.cls-23,.cls-24{stroke-miterlimit:10;}.cls-10{stroke-width:8.58px;stroke:url(#VM-Vintage-Wood-05.3);}.cls-11{fill:url(#VM-Vintage-Wood-01.4);}.cls-12{fill:#414042;}.cls-13{fill:#fff;}.cls-14{stroke:#8b5e3c;stroke-width:0.58px;}.cls-15{fill:url(#VM-Vintage-Wood-05.3);}.cls-16{stroke:#6d6e71;stroke-width:1.6px;}.cls-17{fill:#594a42;}.cls-18,.cls-23{stroke:#be1e2d;}.cls-18{stroke-width:6.66px;}.cls-19{stroke:#a97c50;stroke-width:6.11px;}.cls-20,.cls-24{fill:#c49a6c;stroke:#414042;}.cls-20{stroke-width:0.74px;}.cls-21{fill:#231f20;}.cls-22{stroke:#c49a6c;stroke-width:6.77px;}.cls-23{stroke-width:5.47px;}.cls-24{stroke-width:0.61px;}.cls-25{fill:#a63331;}.cls-26,.cls-28{stroke:#593c27;stroke-linecap:round;stroke-linejoin:round;}.cls-26{stroke-width:0.86px;}.cls-27{fill:#aebee8;}.cls-28{stroke-width:0.64px;}</style><pattern id="VM-Vintage-Wood-05.3" data-name="VM-Vintage-Wood-05.3" width="250" height="163" patternTransform="translate(0 -144)" patternUnits="userSpaceOnUse" viewBox="0 0 250 163"><rect class="cls-1" width="250" height="163"/><rect class="cls-4" width="250" height="163"/><path class="cls-5" d="M91.7,92.21a3.09,3.09,0,0,1-.13.89c-.62,2.1-2.26,3.71-4.87,4.78-13.16,5.39-47.83-4.1-56.4-6.94-2.66-.88-4.85-1.75-7-2.6-6.25-2.5-11.2-4.48-23.31-4.48v-.75c12.33,0,17.36,2,23.73,4.56,2.1.84,4.28,1.71,6.91,2.58,8,2.64,42.9,12.17,55.61,7,2.36-1,3.83-2.41,4.39-4.29.45-1.57-.56-3-3-4.16-6-2.89-18.18-3.4-21.81-.91-1.75,1.21-2.21,2.29-1.37,3.21,2,2.26,11,3.17,14.57,1.48l.48.64c-3.7,1.77-13.3,1.11-15.82-1.68-.8-.89-1.19-2.35,1.53-4.22,3.94-2.7,16.56-2.24,22.9.84C90.48,89.27,91.7,90.67,91.7,92.21Z"/><path class="cls-5" d="M125,97.15v.74c-9.51,0-13.65-3.17-18-6.53a36.72,36.72,0,0,0-12.24-6.82c-10.22-3.24-18.27-3.77-25.35-1.65a28.19,28.19,0,0,0-5.83,2.7,27.65,27.65,0,0,1-6.2,2.84C47.44,91.23,34.82,87,25.61,84l-3.37-1.11.35-.69c1.07.34,2.2.72,3.38,1.11,9.58,3.19,21.49,7.15,31.07,4.45A26,26,0,0,0,63,85a28.62,28.62,0,0,1,6.05-2.79c9.59-2.87,19.44-.43,26,1.65a37.85,37.85,0,0,1,12.55,7C112,94.21,115.86,97.15,125,97.15Z"/><path class="cls-5" d="M35.81,96l-.14.74a59.3,59.3,0,0,1-17.33-4.35C13.72,90.56,9.73,89,0,89v-.75c9.93,0,14,1.61,18.73,3.48A58.56,58.56,0,0,0,35.81,96Z"/><path class="cls-5" d="M125,88.24V89h-4.74c-2.63,0-5.11,0-10.37-2.12l.42-.67c5.06,2,7.32,2,10,2Z"/><path class="cls-5" d="M125,83.19v.75c-2.77,0-5.82.12-8.78.22-5.91.22-12,.44-16.21-.22l.19-.74c4.06.65,10.12.43,16,.22C119.14,83.31,122.21,83.19,125,83.19Z"/><path class="cls-5" d="M125,106.05v.75c-8.66,0-11.9-3.46-15-6.8s-6.48-6.92-15.65-7.15l0-.75c9.62.24,13,3.91,16.37,7.45C113.85,102.89,116.81,106.05,125,106.05Z"/><path class="cls-5" d="M125,132.78v.74c-4.5,0-12,1.21-20,2.48-9.92,1.58-20.18,3.22-24.78,2.48a38.16,38.16,0,0,1-21-10.79C53,121.54,45.8,119.25,34,117c-8.53-1.65-17.51-1.49-26.2-1.35-2.53,0-5.15.09-7.74.09V115c2.58,0,5.2,0,7.73-.09,8.74-.14,17.79-.3,26.43,1.37,12,2.33,19.33,4.66,25.73,11a37.09,37.09,0,0,0,20.5,10.53c4.42.72,14.58-.9,24.4-2.47C112.84,134,120.41,132.78,125,132.78Z"/><path class="cls-5" d="M13.18,131C9,133.85.37,133.54,0,133.52l.05-.74c.08,0,8.62.31,12.52-2.31Z"/><path class="cls-5" d="M107.58,102l-.55.61c-8.43-4.85-13.09-3.39-19-1.54-1.46.46-3,.94-4.63,1.35-14.22,3.54-29.6,3.25-47-.89C23.46,98.41,14.72,97.89,0,97.89v-.74c14.5,0,23.68.54,36.64,3.61,17.24,4.1,32.45,4.39,46.48.9,1.63-.41,3.12-.88,4.56-1.33C93.62,98.47,98.73,96.86,107.58,102Z"/><path class="cls-5" d="M56.16,143.45c0,1.65-2.1,3.29-6.27,4.87-11.29,4.29-21.79,3.89-35.08,3.38-4.65-.18-9.47-.36-14.79-.36v-.75c5.34,0,10.17.19,14.84.36,13.15.5,23.55.9,34.63-3.3,3.85-1.47,5.83-3,5.73-4.31s-2.11-2.53-5.54-3.45c-6.53-1.74-16.3-1.72-19.11.92-1.05,1-1.05,2.3,0,3.9,1.36,2.08,4.49,2.63,7,2.46,2.63-.18,5.66-1.3,6.49-3.38l.89.23c-.85,2.12-3.71,3.65-7.3,3.9s-6.56-.85-7.88-2.86c-1.55-2.36-.79-3.88.12-4.73,3.34-3.14,14-2.79,20.12-1.15,3.86,1,6.06,2.49,6.18,4.12Z"/><path class="cls-5" d="M82.22,147.45c-12.09,14.93-38.16,13.86-52.63,11.9-7.07-1-12.45-.41-18.15.17A109,109,0,0,1,0,160.25v-.75a107,107,0,0,0,11.3-.73c5.77-.58,11.22-1.14,18.43-.16,14.24,1.93,39.88,3,51.68-11.57Z"/><path class="cls-5" d="M125,159.5v.75a171.29,171.29,0,0,0-22.17,1.16,74.34,74.34,0,0,1-10.23.66,83.23,83.23,0,0,1-8.75-.62c-5.7-.62-10.63-1.16-18.77,1.55l-.36-.69c8.38-2.79,13.42-2.24,19.26-1.6a81.57,81.57,0,0,0,8.63.61,72.33,72.33,0,0,0,10.08-.65A171,171,0,0,1,125,159.5Z"/><path class="cls-5" d="M125,141.68v.75c-4.82,0-10.36.21-16.23.42-10.1.37-20.53.75-28.11.11-5.88-.5-12.57-2.39-19.65-4.39-13.31-3.76-27.08-7.65-37.86-3.15l-.44-.67c11.15-4.64,25.11-.7,38.62,3.12,7,2,13.66,3.86,19.43,4.34,7.51.64,17.91.26,28-.11C114.61,141.89,120.16,141.68,125,141.68Z"/><path class="cls-5" d="M63.53,134.74l-.38.69c-33-11.64-41.38-5-48.78.95-3.9,3.11-7.58,6.05-14.35,6.05v-.75c6.38,0,9.93-2.83,13.69-5.83C21.32,129.78,29.94,122.9,63.53,134.74Z"/><path class="cls-5" d="M25.31,140.4c-4.34,6-9.83,5.95-21.86,5.91H0v-.75H3.46c12,0,17,.06,21-5.54Z"/><path class="cls-5" d="M125,145.55v.75c-11.09,0-31.72,0-44.6,11.11l-.69-.51C92.87,145.55,113.77,145.55,125,145.55Z"/><path class="cls-5" d="M125,154.46v.75a100.51,100.51,0,0,1-13.57-1c-7.07-.88-10.62-1.32-20.42,4.63l-.56-.6c10.11-6.14,13.79-5.68,21.13-4.77A98.63,98.63,0,0,0,125,154.46Z"/><path class="cls-5" d="M70.21,146.37c-10.2,9.54-39.86,9.18-61.52,8.91-3.11,0-6-.07-8.67-.07v-.75c2.62,0,5.57,0,8.68.07,20.26.25,50.88.63,60.79-8.65Z"/><path class="cls-5" d="M125,127.73v.75a79.13,79.13,0,0,0-18.87,2.17,94,94,0,0,1-14.93,2.23C79.05,133.67,70,127.25,62,121.59a93.65,93.65,0,0,0-9.07-6c-6-3.26-31.18-5-52.95-5v-.75c21.91,0,47.32,1.75,53.48,5.11a90.06,90.06,0,0,1,9.16,6c8.22,5.83,16.72,11.87,28.46,11.11a94,94,0,0,0,14.77-2.21A79.64,79.64,0,0,1,125,127.73Z"/><path class="cls-5" d="M125,109.92v.75h-2.87a21.88,21.88,0,0,0-9.28,2c-3.62,1.43-7.71,3.06-17.67,3.06V115c9.73,0,13.73-1.58,17.25-3a23,23,0,0,1,9.7-2.06Z"/><path class="cls-5" d="M42.91,125.82l-.28.71c-5.36-1.31-17.49-3.15-25-.71l-1,.33c-5,1.65-7.11,2.33-16.6,2.33v-.75c9.3,0,11.19-.62,16.25-2.27l1-.33C25,122.61,37.43,124.48,42.91,125.82Z"/><path class="cls-5" d="M49.91,123.91l-.44.67c-14.17-5.94-35.13-5.37-45.21-5.09-1.69.05-3.16.09-4.24.09v-.75c1.06,0,2.52,0,4.21-.09C14.38,118.46,35.51,117.88,49.91,123.91Z"/><path class="cls-5" d="M125,118.83v.75c-31.44,0-38-1.78-50-5-3-.81-6.42-1.73-10.65-2.72-16.89-4-30.72-5.06-64.33-5.06v-.75c33.72,0,47.6,1.1,64.6,5.09,4.24,1,7.66,1.91,10.67,2.73C87.17,117.07,93.72,118.83,125,118.83Z"/><path class="cls-5" d="M105.21,108.08a3.36,3.36,0,0,1-1.32,2.46c-4.49,4.13-14.76,1.9-24.7-.26C73,108.93,67.07,107.65,62.86,108l-.08-.75c4.37-.31,10.34,1,16.66,2.36,9.65,2.1,19.64,4.27,23.75.49,1.08-1,1.36-2,.82-2.9-1-1.71-4.6-3-8.23-3-2.89,0-5,.9-5.87,2.43l-.86-.3c1-1.81,3.45-2.86,6.72-2.88,4,0,8,1.45,9.09,3.44A2.44,2.44,0,0,1,105.21,108.08Z"/><path class="cls-5" d="M125,123.87v.75c-4.13,0-8.33.21-12.39.42-14.6.74-29.71,1.51-44.66-7.47l.57-.6c14.67,8.82,29.6,8.06,44,7.32C116.63,124.08,120.84,123.87,125,123.87Z"/><path class="cls-5" d="M20.33,121.69v.75a32.1,32.1,0,0,0-8.47,1.17,27,27,0,0,1-6.89,1H0v-.75H5a26.27,26.27,0,0,0,6.62-1A33.28,33.28,0,0,1,20.33,121.69Z"/><path class="cls-5" d="M125,96.89"/><rect class="cls-5" x="117.52" y="114.96" width="7.48" height="0.75"/><rect class="cls-5" x="117.52" y="101.01" width="7.48" height="0.75"/><rect class="cls-5" x="0.02" y="101.01" width="21.68" height="0.75"/><path class="cls-5" d="M155.64,90.25l-.36.69c-2.67-.88-4.85-1.75-7-2.6-6.26-2.5-11.2-4.48-23.31-4.48v-.75c12.33,0,17.36,2,23.73,4.56C150.83,88.51,153,89.38,155.64,90.25Z"/><path class="cls-5" d="M250,97.15v.74c-9.52,0-13.66-3.17-18-6.53a36.62,36.62,0,0,0-12.24-6.82c-10.21-3.24-18.27-3.77-25.34-1.65a28.19,28.19,0,0,0-5.83,2.7,27.65,27.65,0,0,1-6.2,2.84c-9.92,2.8-22.53-1.4-31.74-4.47l-3.38-1.11.35-.69c1.08.34,2.21.72,3.39,1.11,9.57,3.19,21.49,7.15,31.06,4.45A26.32,26.32,0,0,0,188,85a28.76,28.76,0,0,1,6-2.79c9.6-2.87,19.45-.43,26,1.65a37.79,37.79,0,0,1,12.54,7C237,94.21,240.84,97.15,250,97.15Z"/><path class="cls-5" d="M160.78,96l-.13.74a59.48,59.48,0,0,1-17.34-4.35C138.7,90.56,134.71,89,125,89v-.75c9.93,0,14,1.61,18.73,3.48A58.47,58.47,0,0,0,160.78,96Z"/><path class="cls-5" d="M250,88.24V89h-4.75c-2.63,0-5.11,0-10.36-2.12l.42-.67c5.06,2,7.32,2,9.94,2Z"/><path class="cls-5" d="M250,83.19v.75c-2.88,0-5.4.11-7.84.21a61.28,61.28,0,0,1-12.56-.3l.18-.73a61.13,61.13,0,0,0,12.33.28C244.54,83.3,247.08,83.19,250,83.19Z"/><path class="cls-5" d="M250,106.05v.75c-8.66,0-11.9-3.46-15-6.8s-6.49-6.92-15.65-7.15l0-.75c9.62.24,13.06,3.91,16.38,7.45C238.83,102.89,241.79,106.05,250,106.05Z"/><path class="cls-5" d="M250,132.78v.74c-4.5,0-12,1.21-20,2.48-9.91,1.58-20.17,3.22-24.77,2.48a38.16,38.16,0,0,1-21-10.79c-6.23-6.15-13.38-8.44-25.22-10.72-8.53-1.65-17.51-1.49-26.2-1.35-2.53,0-5.15.09-7.74.09V115c2.58,0,5.19,0,7.72-.09,8.75-.14,17.79-.3,26.44,1.37,12,2.33,19.33,4.66,25.73,11a37.05,37.05,0,0,0,20.5,10.53c4.41.72,14.57-.9,24.4-2.47C237.81,134,245.39,132.78,250,132.78Z"/><path class="cls-5" d="M138.15,131c-4.18,2.81-12.81,2.5-13.17,2.48l0-.74c.09,0,8.63.31,12.53-2.31Z"/><path class="cls-5" d="M232.56,102l-.55.61c-8.44-4.85-13.09-3.39-19-1.54-1.45.46-3,.94-4.62,1.35-14.22,3.54-29.61,3.25-47-.89-12.93-3.07-21.67-3.59-36.37-3.59v-.74c14.5,0,23.67.54,36.64,3.61,17.24,4.1,32.44,4.39,46.48.89,1.63-.4,3.12-.87,4.56-1.32C218.6,98.47,223.7,96.86,232.56,102Z"/><path class="cls-5" d="M181.14,143.45c0,1.65-2.11,3.29-6.27,4.87-11.3,4.29-21.79,3.89-35.08,3.38-4.66-.18-9.47-.36-14.79-.36v-.75c5.34,0,10.17.19,14.83.36,13.16.5,23.55.9,34.64-3.3,3.85-1.47,5.82-3,5.73-4.31s-2.12-2.53-5.54-3.45c-6.53-1.74-16.3-1.72-19.11.92-1.05,1-1.05,2.3,0,3.9l-.83.35c-1.55-2.36-.79-3.88.13-4.73,3.34-3.14,14-2.79,20.11-1.15,3.87,1,6.06,2.49,6.19,4.12Z"/><path class="cls-5" d="M207.2,147.45c-12.1,14.93-38.17,13.86-52.63,11.9-7.07-1-12.46-.41-18.15.17a109,109,0,0,1-11.42.73v-.75a107.15,107.15,0,0,0,11.3-.73c5.77-.58,11.22-1.14,18.42-.16,14.24,1.93,39.89,3,51.69-11.57Z"/><path class="cls-5" d="M250,159.5v.75a171.36,171.36,0,0,0-22.18,1.16,74.19,74.19,0,0,1-10.22.66,83.23,83.23,0,0,1-8.75-.62c-5.71-.62-10.63-1.16-18.77,1.55l-.36-.69c8.37-2.79,13.42-2.24,19.26-1.6a81.57,81.57,0,0,0,8.63.61,72.43,72.43,0,0,0,10.08-.65A171,171,0,0,1,250,159.5Z"/><path class="cls-5" d="M250,141.68v.75c-4.82,0-10.37.21-16.24.42-10.09.37-20.53.75-28.1.11-5.88-.5-12.57-2.39-19.65-4.39-13.31-3.76-27.08-7.65-37.87-3.15l-.43-.67c11.15-4.64,25.11-.7,38.61,3.12,7,2,13.67,3.86,19.44,4.34,7.5.64,17.9.26,28-.11C239.58,141.89,245.14,141.68,250,141.68Z"/><path class="cls-5" d="M188.51,134.74l-.38.69c-33-11.64-41.39-5-48.78.95-3.9,3.11-7.59,6.05-14.35,6.05v-.75c6.38,0,9.93-2.83,13.69-5.83C146.29,129.78,154.92,122.9,188.51,134.74Z"/><path class="cls-5" d="M150.29,140.4c-4.34,6-9.83,5.95-21.86,5.91H125v-.75h3.43c12,0,17,.06,21-5.54Z"/><path class="cls-5" d="M250,145.55v.75c-11.09,0-31.73,0-44.6,11.11l-.69-.51C217.85,145.55,238.75,145.55,250,145.55Z"/><path class="cls-5" d="M250,154.46v.75a100.38,100.38,0,0,1-13.57-1c-7.07-.88-10.62-1.32-20.42,4.63l-.57-.6c10.12-6.14,13.8-5.68,21.14-4.77A98.5,98.5,0,0,0,250,154.46Z"/><path class="cls-5" d="M195.18,146.37c-10.19,9.54-39.86,9.18-61.51,8.91-3.12,0-6.06-.07-8.67-.07v-.75c2.62,0,5.56,0,8.68.07,20.26.25,50.88.63,60.79-8.65Z"/><path class="cls-5" d="M250,127.73v.75a79.23,79.23,0,0,0-18.88,2.17,93.79,93.79,0,0,1-14.93,2.23C204,133.67,195,127.25,187,121.59a93.65,93.65,0,0,0-9.07-6c-6-3.26-31.18-5-52.95-5v-.75c21.91,0,47.31,1.75,53.48,5.11a92.33,92.33,0,0,1,9.16,6c8.22,5.83,16.71,11.87,28.46,11.11a93.62,93.62,0,0,0,14.76-2.21A79.73,79.73,0,0,1,250,127.73Z"/><path class="cls-5" d="M250,109.92v.75h-2.87a21.84,21.84,0,0,0-9.28,2c-3.62,1.43-7.72,3.06-17.67,3.06V115c9.73,0,13.73-1.58,17.25-3a23,23,0,0,1,9.7-2.06Z"/><path class="cls-5" d="M167.89,125.82l-.28.71c-5.36-1.31-17.49-3.15-25-.71l-1,.33c-5,1.65-7.12,2.33-16.6,2.33v-.75c9.3,0,11.19-.62,16.25-2.27l1-.33C150,122.61,162.41,124.48,167.89,125.82Z"/><path class="cls-5" d="M174.88,123.91l-.43.67c-14.17-5.94-35.14-5.37-45.21-5.09-1.7.05-3.16.09-4.24.09v-.75c1.06,0,2.52,0,4.21-.09C139.36,118.46,160.49,117.88,174.88,123.91Z"/><path class="cls-5" d="M250,118.83v.75c-31.44,0-38-1.78-50-5-3-.81-6.42-1.73-10.64-2.72-16.9-4-30.72-5.06-64.33-5.06v-.75c33.71,0,47.6,1.1,64.59,5.09,4.25,1,7.66,1.91,10.68,2.73C212.15,117.06,218.7,118.83,250,118.83Z"/><path class="cls-5" d="M228.87,110.54c-4.5,4.13-14.77,1.9-24.7-.26-6.23-1.35-12.12-2.63-16.33-2.33l-.09-.75c4.38-.31,10.35,1,16.67,2.36,9.65,2.1,19.63,4.27,23.74.49Z"/><path class="cls-5" d="M250,123.87v.75c-4.13,0-8.33.21-12.39.42-14.61.74-29.71,1.51-44.66-7.47l.56-.6c14.68,8.82,29.6,8.06,44,7.32C241.6,124.08,245.82,123.87,250,123.87Z"/><path class="cls-5" d="M145.3,121.69v.75a32,32,0,0,0-8.46,1.17,27.05,27.05,0,0,1-6.9,1H125v-.75h4.94a26.2,26.2,0,0,0,6.62-1A33.34,33.34,0,0,1,145.3,121.69Z"/><path class="cls-5" d="M249.92,96.89"/><rect class="cls-5" x="242.5" y="114.96" width="7.48" height="0.75"/><rect class="cls-5" x="242.5" y="101.01" width="7.48" height="0.75"/><rect class="cls-5" x="125" y="101.01" width="21.68" height="0.75"/><path class="cls-5" d="M187.76,101.76c-6,.17-13.35-1.26-20.84-4l.4-.68c7.35,2.73,14.59,4.13,20.41,4Z"/><path class="cls-5" d="M187.58,114.81l-.61.56a24.16,24.16,0,0,0-8.41-3.66l.25-.72A25,25,0,0,1,187.58,114.81Z"/><path class="cls-5" d="M195.3,141.34a43.22,43.22,0,0,0-6.77,3.83c-3.34,2.16-6.79,4.39-11,5.3l-.25-.72c4-.87,7.37-3.05,10.63-5.16a43.73,43.73,0,0,1,6.93-3.91Z"/><path class="cls-5" d="M152.17,145.74c-2.29,2.16-6.73,3.13-13.19,2.87l.05-.74c6.06.23,10.36-.67,12.43-2.61Z"/><path class="cls-5" d="M219.67,87.26l-.43.66a40.07,40.07,0,0,0-7.08-1.78c-10.27-1.79-16.88.83-25.79,5-10,4.74-21,1.84-28.38-1.42l.45-.66c7.2,3.17,17.8,6,27.46,1.44,8.82-4.16,15.88-7,26.46-5.12A39.91,39.91,0,0,1,219.67,87.26Z"/><path class="cls-5" d="M223.53,90l-.23.73c-5.14-1-7,.16-10,2.16-.87.57-1.85,1.22-3,1.87a31.93,31.93,0,0,1-18.86,3.37c-1.22-.13-2.45-.32-3.75-.51-3.48-.53-7.08-1.08-10.36-.49l-.2-.74c3.46-.61,7.16,0,10.74.49,1.28.19,2.5.38,3.69.51a30.85,30.85,0,0,0,18.2-3.24c1.14-.64,2.11-1.27,3-1.83C215.72,90.28,217.93,88.83,223.53,90Z"/><path class="cls-5" d="M211.14,89.94c-3.81,2.89-11.87,3.88-18.14,3.84V93c6.08,0,13.87-.9,17.48-3.63Z"/><path class="cls-5" d="M207.6,91.08l-.45.66c-2.65-1.15-7.8-.32-9.83,1.58l-.72-.49C198.91,90.67,204.56,89.77,207.6,91.08Z"/><path class="cls-5" d="M239.15,109.48c-3.66.08-6.45-1.31-9.16-2.66a27,27,0,0,0-5.66-2.29c-5.27-1.27-12.94-.39-18.23,2.1l-.47-.65c5.58-2.62,13.38-3.52,19-2.17a28,28,0,0,1,5.89,2.37c2.7,1.35,5.26,2.62,8.64,2.55Z"/><path class="cls-5" d="M227.28,105.57c-3.5,1.7-7.43,1-11.22.41a33.76,33.76,0,0,0-6.43-.67l0-.75a35.55,35.55,0,0,1,6.65.68c3.78.64,7.36,1.23,10.54-.32Z"/><path class="cls-5" d="M215.91,97.07a53.24,53.24,0,0,1-22,3.52l.06-.75a52,52,0,0,0,21.53-3.45Z"/><path class="cls-5" d="M99.57,90.21l-.6.58c-6.75-4.48-14.26-6.56-23.65-6.56v-.75C84.94,83.48,92.64,85.62,99.57,90.21Z"/><path class="cls-5" d="M57.34,93.2l-.08.75a102.75,102.75,0,0,1-11.2-1.36,54.87,54.87,0,0,1-7.38-2,42,42,0,0,0-8.93-2.19l.11-.75A43.4,43.4,0,0,1,39,89.88a54.69,54.69,0,0,0,7.23,2A102.66,102.66,0,0,0,57.34,93.2Z"/><path class="cls-5" d="M79.32,92.66l-.92.16a1.59,1.59,0,0,0-1-1.07c-2.35-1-7.81.43-10.09,1.25l-.38-.68c2-.74,8-2.4,10.89-1.23A2.36,2.36,0,0,1,79.32,92.66Z"/><path class="cls-5" d="M44.73,143.65l-.27.71c-3.29-.81-7.76.62-9.56,3.07l-.81-.38C36.13,144.28,41,142.72,44.73,143.65Z"/><path class="cls-5" d="M175.81,144.69c-5.3,2.72-12.82,2.36-17.92.78l.34-.69c4.72,1.45,12.07,1.85,17.08-.72Z"/><path class="cls-5" d="M173.57,144.79l-.4.67a14.34,14.34,0,0,0-10.18.73l-.49-.64A15.52,15.52,0,0,1,173.57,144.79Z"/><path class="cls-5" d="M223.18,128.29c-9,2.14-20.23,0-27.32-5.2l.64-.55c6.85,5,17.71,7.11,26.41,5Z"/><path class="cls-5" d="M156.3,161.58l-.22.73c-5.13-1-10.93-.73-16.54-.45-1.66.08-3.38.16-5,.21l0-.74c1.65-.05,3.37-.14,5-.22C145.16,160.83,151,160.54,156.3,161.58Z"/><path class="cls-5" d="M89.05,128.3c-8.13.54-15.15-3.34-18.62-5.7a35.59,35.59,0,0,1-4-3.37c-2.52-2.35-5.13-4.78-8.46-5.39l.22-.73c3.63.67,6.33,3.19,9,5.63A33.5,33.5,0,0,0,71,122c3.36,2.29,10.14,6,17.93,5.52Z"/><path class="cls-5" d="M139.14,93l-.17.73c-3.39-.51-7-.7-10.42-.88a79.07,79.07,0,0,1-14.21-1.62l.27-.72a77.23,77.23,0,0,0,14,1.59C132.1,92.25,135.7,92.44,139.14,93Z"/><path class="cls-5" d="M54.74,99.76l-.08.75A40.09,40.09,0,0,1,40.5,97l.48-.65A38.76,38.76,0,0,0,54.74,99.76Z"/><path class="cls-5" d="M61.59,143.71c0,.07,0,.13,0,.19-.14,2.06-2.57,3.83-6.35,4.62l-.24-.73c3.37-.7,5.54-2.21,5.65-3.93s-1.58-3.06-4.65-4l.33-.7C59.68,140.19,61.59,141.84,61.59,143.71Z"/><path class="cls-5" d="M124.8,138.38c-6.43,1.37-12.84,1.4-19.62,1.44-2.06,0-4.2,0-6.31.07l0-.75c2.12,0,4.26-.06,6.33-.07,6.72,0,13.07-.07,19.39-1.41Z"/><path class="cls-5" d="M250,79.14v.75c-12.33,0-17.36-2-23.73-4.56-2.1-.84-4.28-1.71-6.91-2.58-8-2.64-42.9-12.17-55.61-7-2.36,1-3.83,2.41-4.38,4.29-.46,1.57.55,3,3,4.16,5.95,2.89,18.17,3.4,21.8.91,1.75-1.2,2.21-2.29,1.38-3.21-2-2.26-11-3.17-14.58-1.48l-.48-.64c3.7-1.77,13.3-1.11,15.82,1.68.8.89,1.19,2.35-1.53,4.22-3.94,2.7-16.56,2.24-22.9-.84-2.81-1.36-4-3.08-3.45-5,.62-2.1,2.26-3.71,4.87-4.78,13.16-5.39,47.83,4.1,56.4,6.94,2.66.88,4.85,1.75,7,2.6C232.93,77.16,237.87,79.14,250,79.14Z"/><path class="cls-5" d="M227.77,80.15l-.36.69c-1.07-.34-2.2-.72-3.38-1.11-9.57-3.19-21.49-7.15-31.07-4.45A26,26,0,0,0,187,78a29.14,29.14,0,0,1-6.05,2.8c-9.59,2.86-19.44.42-26-1.66a37.85,37.85,0,0,1-12.55-7c-4.42-3.39-8.24-6.33-17.38-6.33v-.74c9.51,0,13.65,3.17,18,6.53a36.72,36.72,0,0,0,12.24,6.82c10.22,3.24,18.27,3.77,25.34,1.65a28,28,0,0,0,5.84-2.7,27.65,27.65,0,0,1,6.2-2.84c9.92-2.8,22.53,1.4,31.74,4.47Z"/><path class="cls-5" d="M250,74v.75c-9.93,0-14-1.61-18.73-3.48A58.56,58.56,0,0,0,214.19,67l.14-.74a59.3,59.3,0,0,1,17.33,4.35C236.28,72.44,240.27,74,250,74Z"/><path class="cls-5" d="M140.11,76.13l-.42.67c-5.06-2-7.32-2-9.95-2H125V74h4.74C132.37,74,134.85,74,140.11,76.13Z"/><path class="cls-5" d="M150,79.06l-.18.74c-4.07-.65-10.13-.43-16-.22-3,.11-6,.23-8.82.23v-.75c2.77,0,5.83-.12,8.78-.22C139.69,78.62,145.81,78.4,150,79.06Z"/><path class="cls-5" d="M155.69,70.15l0,.75c-9.62-.24-13-3.91-16.37-7.45-3.14-3.34-6.1-6.5-14.29-6.5V56.2c8.66,0,11.9,3.46,15,6.8S146.52,69.92,155.69,70.15Z"/><path class="cls-5" d="M250,47.29V48c-2.58,0-5.19,0-7.73.09-8.74.14-17.79.3-26.43-1.37-12-2.33-19.33-4.66-25.73-11a37.09,37.09,0,0,0-20.5-10.53c-4.41-.72-14.58.9-24.4,2.47-8,1.28-15.6,2.49-20.19,2.49v-.75c4.5,0,12-1.2,20-2.47,9.92-1.58,20.18-3.22,24.78-2.48a38.16,38.16,0,0,1,21,10.79C197.05,41.46,204.2,43.75,216,46c8.53,1.65,17.51,1.49,26.2,1.35C244.77,47.33,247.39,47.29,250,47.29Z"/><path class="cls-5" d="M250,29.47l-.05.75c-.08,0-8.62-.31-12.52,2.31l-.61-.57C241,29.14,249.63,29.46,250,29.47Z"/><path class="cls-5" d="M250,65.11v.74c-14.5,0-23.68-.54-36.64-3.62-17.24-4.09-32.45-4.38-46.48-.89-1.63.41-3.12.88-4.56,1.33-5.92,1.86-11,3.47-19.88-1.62l.55-.61c8.44,4.85,13.09,3.39,19,1.53,1.46-.45,3-.93,4.63-1.34,14.22-3.54,29.6-3.25,47,.89C226.54,64.59,235.28,65.11,250,65.11Z"/><path class="cls-5" d="M250,11.66v.75c-5.34,0-10.17-.19-14.83-.36-13.16-.5-23.56-.9-34.64,3.31-3.85,1.46-5.83,2.94-5.73,4.3s2.11,2.53,5.54,3.45c6.53,1.74,16.3,1.72,19.11-.92,1-1,1-2.3,0-3.9-1.36-2.08-4.49-2.63-7-2.46-2.63.18-5.66,1.3-6.49,3.38l-.89-.23c.85-2.12,3.71-3.65,7.3-3.9s6.57.85,7.88,2.86c1.55,2.36.79,3.88-.12,4.73-3.34,3.14-14,2.79-20.12,1.15-3.86-1-6.06-2.49-6.18-4.12s2-3.39,6.27-5c11.29-4.29,21.79-3.89,35.08-3.38C239.84,11.48,244.66,11.66,250,11.66Z"/><path class="cls-5" d="M250,2.75V3.5a107,107,0,0,0-11.3.73c-5.77.58-11.22,1.14-18.43.16C206,2.46,180.37,1.39,168.57,16l-.79-.41C179.87.62,206,1.69,220.41,3.65c7.07,1,12.45.41,18.15-.17A109,109,0,0,1,250,2.75Z"/><path class="cls-5" d="M185.28.69c-8.37,2.79-13.42,2.24-19.26,1.6a81.57,81.57,0,0,0-8.63-.61,72.33,72.33,0,0,0-10.08.65A171,171,0,0,1,125,3.5V2.75a171.29,171.29,0,0,0,22.17-1.16A72.8,72.8,0,0,1,157.4.93a83.23,83.23,0,0,1,8.75.62c5.7.62,10.63,1.16,18.77-1.55Z"/><path class="cls-5" d="M227.29,28.25c-11.15,4.64-25.11.7-38.62-3.12-7-2-13.66-3.86-19.43-4.34-7.51-.64-17.9-.26-28,.11-5.88.21-11.44.42-16.28.42v-.75c4.82,0,10.36-.21,16.23-.42,10.1-.37,20.53-.75,28.11-.11,5.88.5,12.57,2.39,19.65,4.39,13.31,3.76,27.08,7.65,37.86,3.15Z"/><path class="cls-5" d="M250,20.57v.75c-6.38,0-9.93,2.83-13.69,5.83-7.61,6.07-16.23,13-49.82,1.11l.38-.69c33,11.64,41.38,5,48.78-.95C239.53,23.51,243.21,20.57,250,20.57Z"/><path class="cls-5" d="M250,16.7v.75h-3.44c-12,0-17-.06-21,5.54l-.81-.38c4.34-6,9.83-6,21.86-5.91Z"/><path class="cls-5" d="M170.29,6.1C157.13,17.45,136.23,17.45,125,17.45V16.7c11.09,0,31.72,0,44.6-11.11Z"/><path class="cls-5" d="M159.55,4.71c-10.11,6.14-13.79,5.68-21.13,4.77A98.63,98.63,0,0,0,125,8.54V7.79a100.38,100.38,0,0,1,13.57,1c7.07.88,10.62,1.32,20.42-4.63Z"/><path class="cls-5" d="M250,7.79v.75c-2.62,0-5.57,0-8.68-.07-20.26-.25-50.88-.63-60.79,8.65l-.72-.49c10.2-9.54,39.86-9.18,61.52-8.91C244.42,7.76,247.37,7.79,250,7.79Z"/><path class="cls-5" d="M250,52.33v.75c-21.91,0-47.32-1.75-53.48-5.11a91.79,91.79,0,0,1-9.16-6c-8.22-5.83-16.71-11.87-28.46-11.11a93.62,93.62,0,0,0-14.76,2.21A79.8,79.8,0,0,1,125,35.27v-.75a79.13,79.13,0,0,0,18.87-2.17,94,94,0,0,1,14.93-2.23C171,29.33,180,35.75,188,41.41a93.65,93.65,0,0,0,9.07,6C203,50.62,228.21,52.33,250,52.33Z"/><path class="cls-5" d="M154.82,47.29V48c-9.73,0-13.73,1.58-17.25,3a23,23,0,0,1-9.7,2.06H125v-.75h2.87a21.88,21.88,0,0,0,9.28-2C140.77,48.92,144.86,47.29,154.82,47.29Z"/><path class="cls-5" d="M250,34.52v.75c-9.3,0-11.2.62-16.25,2.27l-1,.33c-7.74,2.52-20.14.65-25.62-.69l.28-.72c5.36,1.32,17.49,3.16,25,.72l1-.33C238.41,35.2,240.49,34.52,250,34.52Z"/><path class="cls-5" d="M250,43.42v.75c-1.06,0-2.52,0-4.21.09-10.15.28-31.28.86-45.68-5.17l.44-.67c14.17,5.94,35.13,5.37,45.21,5.09C247.44,43.46,248.9,43.42,250,43.42Z"/><path class="cls-5" d="M250,56.2V57c-33.72,0-47.6-1.1-64.6-5.09-4.24-1-7.66-1.91-10.67-2.73-11.88-3.2-18.43-5-49.71-5v-.75c31.44,0,38,1.78,50,5,3,.81,6.42,1.73,10.65,2.72C202.54,55.11,216.37,56.2,250,56.2Z"/><path class="cls-5" d="M187.22,55.8c-4.37.31-10.34-1-16.66-2.36-9.65-2.1-19.64-4.27-23.75-.49-1.08,1-1.36,2-.82,2.9,1,1.71,4.6,3,8.23,3,2.89,0,5-.9,5.87-2.43l.86.3c-1,1.81-3.45,2.86-6.72,2.88-4,0-7.95-1.45-9.09-3.44-.49-.84-.71-2.16,1-3.7,4.49-4.13,14.76-1.9,24.7.26,6.23,1.35,12.12,2.63,16.33,2.33Z"/><path class="cls-5" d="M182.05,45.43l-.57.6c-14.67-8.82-29.6-8.06-44-7.32-4.08.21-8.29.42-12.45.42v-.75c4.13,0,8.33-.21,12.39-.42C152,37.22,167.1,36.45,182.05,45.43Z"/><path class="cls-5" d="M250,38.38v.75H245a26.28,26.28,0,0,0-6.63,1,33.21,33.21,0,0,1-8.74,1.2v-.75a32.1,32.1,0,0,0,8.47-1.17,27,27,0,0,1,6.9-1Z"/><path class="cls-5" d="M125.06,66.11"/><rect class="cls-5" x="125" y="47.29" width="7.48" height="0.75"/><rect class="cls-5" x="125" y="61.24" width="7.48" height="0.75"/><rect class="cls-5" x="228.29" y="61.24" width="21.68" height="0.75"/><path class="cls-5" d="M125,79.14v.75c-12.33,0-17.36-2-23.73-4.56-2.1-.84-4.27-1.71-6.91-2.58l.36-.69c2.67.88,4.86,1.75,7,2.6C108,77.16,112.89,79.14,125,79.14Z"/><path class="cls-5" d="M102.79,80.15l-.35.69c-1.08-.34-2.21-.72-3.38-1.11-9.58-3.19-21.5-7.15-31.07-4.45A26.32,26.32,0,0,0,62,78a29.29,29.29,0,0,1-6,2.8c-9.6,2.86-19.45.42-26-1.66a37.79,37.79,0,0,1-12.54-7C13,68.79,9.16,65.85,0,65.85v-.74c9.52,0,13.66,3.17,18,6.53A36.62,36.62,0,0,0,30.3,78.46c10.21,3.24,18.27,3.77,25.34,1.65a28.19,28.19,0,0,0,5.83-2.7,27.65,27.65,0,0,1,6.2-2.84C77.59,71.77,90.2,76,99.41,79Z"/><path class="cls-5" d="M125,74v.75c-9.93,0-14-1.61-18.73-3.48a58.47,58.47,0,0,0-17-4.28l.13-.74a59.39,59.39,0,0,1,17.34,4.35C111.3,72.44,115.29,74,125,74Z"/><path class="cls-5" d="M15.13,76.13l-.42.67c-5.06-2-7.32-2-9.94-2H0V74H4.77C7.4,74,9.88,74,15.13,76.13Z"/><path class="cls-5" d="M25,79.06l-.18.74c-4.07-.65-10.13-.43-16-.22-3,.11-6,.23-8.82.23v-.75c2.78,0,5.83-.12,8.78-.22C14.72,78.62,20.83,78.4,25,79.06Z"/><path class="cls-5" d="M30.71,70.15l0,.75c-9.61-.24-13-3.91-16.37-7.45C11.17,60.11,8.21,57,0,57V56.2c8.66,0,11.9,3.46,15,6.8S21.55,69.92,30.71,70.15Z"/><path class="cls-5" d="M125,47.29V48c-2.58,0-5.19,0-7.72.09-8.75.14-17.79.3-26.44-1.37-12-2.33-19.33-4.66-25.73-11A37.06,37.06,0,0,0,44.62,25.26c-4.42-.72-14.58.9-24.41,2.47C12.19,29,4.61,30.22,0,30.22v-.74c4.5,0,12-1.21,20-2.48,9.91-1.58,20.17-3.22,24.77-2.48a38.13,38.13,0,0,1,21,10.79C72.07,41.46,79.22,43.75,91.06,46c8.53,1.65,17.51,1.49,26.2,1.35C119.79,47.33,122.41,47.29,125,47.29Z"/><path class="cls-5" d="M125,29.47l0,.75c-.09,0-8.63-.31-12.53,2.31l-.6-.57C116,29.14,124.66,29.46,125,29.47Z"/><path class="cls-5" d="M125,65.11v.74c-14.5,0-23.67-.54-36.63-3.61-17.25-4.1-32.45-4.39-46.49-.9-1.63.41-3.12.88-4.56,1.33-5.92,1.86-11,3.47-19.88-1.62l.55-.61c8.44,4.85,13.09,3.39,19,1.54,1.45-.46,3-.94,4.62-1.35,14.22-3.54,29.61-3.25,47,.89C101.56,64.59,110.3,65.11,125,65.11Z"/><path class="cls-5" d="M125,11.66v.75c-5.34,0-10.16-.19-14.83-.36-13.16-.5-23.55-.9-34.64,3.31-3.85,1.46-5.83,2.94-5.73,4.3s2.12,2.53,5.54,3.45c6.53,1.74,16.3,1.72,19.11-.92,1-1,1.06-2.3,0-3.9l.83-.35c1.55,2.36.79,3.88-.12,4.73-3.35,3.14-14,2.79-20.12,1.15-3.87-1-6.06-2.49-6.18-4.12s2-3.39,6.26-5c11.3-4.29,21.79-3.89,35.08-3.38C114.87,11.48,119.68,11.66,125,11.66Z"/><path class="cls-5" d="M125,2.75V3.5a107.15,107.15,0,0,0-11.3.73c-5.77.58-11.22,1.14-18.42.16C81,2.46,55.39,1.39,43.59,16l-.78-.41C54.9.62,81,1.69,95.43,3.65c7.07,1,12.46.41,18.15-.17A109.18,109.18,0,0,1,125,2.75Z"/><path class="cls-5" d="M60.3.69C51.93,3.48,46.88,2.93,41,2.29a81.57,81.57,0,0,0-8.63-.61,72.43,72.43,0,0,0-10.08.65A171,171,0,0,1,0,3.5V2.75A171.36,171.36,0,0,0,22.2,1.59,72.65,72.65,0,0,1,32.42.93a83.23,83.23,0,0,1,8.75.62C46.88,2.17,51.8,2.71,59.94,0Z"/><path class="cls-5" d="M102.31,28.25C91.16,32.89,77.2,29,63.7,25.13c-7-2-13.66-3.86-19.44-4.34-7.5-.64-17.9-.26-28,.11-5.88.21-11.44.42-16.28.42v-.75c4.82,0,10.37-.21,16.24-.42,10.09-.37,20.53-.75,28.1-.11,5.88.5,12.57,2.39,19.65,4.39,13.31,3.76,27.08,7.65,37.87,3.15Z"/><path class="cls-5" d="M125,20.57v.75c-6.37,0-9.92,2.83-13.68,5.83-7.61,6.07-16.24,13-49.82,1.11l.37-.69c33,11.64,41.39,5,48.78-.95C114.55,23.51,118.24,20.57,125,20.57Z"/><path class="cls-5" d="M125,16.7v.75h-3.43c-12,0-17-.06-21,5.54l-.81-.38c4.34-6,9.83-6,21.86-5.91Z"/><path class="cls-5" d="M45.31,6.1C32.16,17.45,11.25,17.45,0,17.45V16.7c11.09,0,31.73,0,44.6-11.11Z"/><path class="cls-5" d="M34.58,4.71c-10.12,6.14-13.8,5.68-21.13,4.77A98.8,98.8,0,0,0,0,8.54V7.79a100.38,100.38,0,0,1,13.57,1c7.07.88,10.62,1.32,20.42-4.63Z"/><path class="cls-5" d="M125,7.79v.75c-2.62,0-5.56,0-8.68-.07-20.26-.25-50.88-.63-60.79,8.65l-.71-.49C65,7.09,94.68,7.45,116.34,7.72,119.45,7.76,122.39,7.79,125,7.79Z"/><path class="cls-5" d="M125,52.33v.75c-21.91,0-47.31-1.75-53.47-5.11a91.28,91.28,0,0,1-9.17-6C54.15,36.14,45.65,30.1,33.91,30.86a93.59,93.59,0,0,0-14.77,2.21A79.73,79.73,0,0,1,0,35.27v-.75A79.16,79.16,0,0,0,18.9,32.35a93.79,93.79,0,0,1,14.93-2.23C46,29.33,55,35.75,63,41.41a93.65,93.65,0,0,0,9.07,6C78.06,50.62,103.23,52.33,125,52.33Z"/><path class="cls-5" d="M29.84,47.29V48c-9.73,0-13.73,1.58-17.25,3a23,23,0,0,1-9.7,2.06H0v-.75H2.89a21.84,21.84,0,0,0,9.28-2C15.79,48.92,19.89,47.29,29.84,47.29Z"/><path class="cls-5" d="M125,34.52v.75c-9.3,0-11.19.62-16.25,2.27l-1,.33c-7.75,2.52-20.15.65-25.62-.69l.27-.71c5.36,1.31,17.49,3.15,25,.71l1-.33C113.43,35.2,115.52,34.52,125,34.52Z"/><path class="cls-5" d="M125,43.42v.75c-1.06,0-2.52,0-4.21.09-10.15.28-31.28.86-45.67-5.17l.43-.67c14.18,5.94,35.14,5.37,45.21,5.09C122.46,43.46,123.92,43.42,125,43.42Z"/><path class="cls-5" d="M125,56.2V57c-33.71,0-47.6-1.1-64.59-5.09-4.25-1-7.66-1.91-10.68-2.73-11.88-3.2-18.42-5-49.71-5v-.75c31.44,0,38,1.78,50,5,3,.81,6.42,1.73,10.64,2.72C77.57,55.11,91.39,56.2,125,56.2Z"/><path class="cls-5" d="M62.25,55.8c-4.38.31-10.35-1-16.66-2.36C35.93,51.34,26,49.17,21.84,53l-.71-.49c4.5-4.13,14.77-1.9,24.7.26,6.24,1.35,12.12,2.63,16.33,2.33Z"/><path class="cls-5" d="M57.07,45.43l-.56.6c-14.68-8.82-29.6-8.06-44-7.32-4.07.21-8.29.42-12.45.42v-.75c4.13,0,8.33-.21,12.39-.42C27,37.22,42.12,36.45,57.07,45.43Z"/><path class="cls-5" d="M125,38.38v.75h-4.94a26.2,26.2,0,0,0-6.62,1,33.34,33.34,0,0,1-8.74,1.2v-.75a32,32,0,0,0,8.46-1.17,27.12,27.12,0,0,1,6.9-1Z"/><path class="cls-5" d="M.08,66.11"/><rect class="cls-5" x="0.02" y="47.29" width="7.48" height="0.75"/><rect class="cls-5" x="0.02" y="61.24" width="7.48" height="0.75"/><rect class="cls-5" x="103.32" y="61.24" width="21.68" height="0.75"/><path class="cls-5" d="M83.08,65.27l-.4.68c-7.35-2.73-14.59-4.13-20.41-4l0-.75C68.2,61.07,75.59,62.5,83.08,65.27Z"/><path class="cls-5" d="M71.44,51.29l-.25.72a25,25,0,0,1-8.77-3.82l.61-.56A24.24,24.24,0,0,0,71.44,51.29Z"/><path class="cls-5" d="M72.69,13.25c-4,.87-7.37,3.05-10.63,5.16a43.29,43.29,0,0,1-6.93,3.91l-.43-.66a43.22,43.22,0,0,0,6.77-3.83c3.34-2.16,6.79-4.39,11-5.3Z"/><path class="cls-5" d="M111,14.39l0,.74c-6.07-.23-10.37.67-12.44,2.61l-.71-.48C100.12,15.1,104.56,14.13,111,14.39Z"/><path class="cls-5" d="M92,73.25l-.45.66c-7.2-3.17-17.8-6-27.45-1.44-8.83,4.16-15.89,7-26.47,5.12a39.91,39.91,0,0,1-7.31-1.85l.43-.66a39.21,39.21,0,0,0,7.08,1.77c10.27,1.8,16.88-.82,25.79-5C73.66,67.09,84.6,70,92,73.25Z"/><path class="cls-5" d="M72.93,66.64c-3.46.61-7.16,0-10.74-.49-1.28-.19-2.5-.38-3.69-.51a30.85,30.85,0,0,0-18.2,3.24c-1.14.63-2.11,1.27-3,1.83-3,2-5.26,3.46-10.86,2.32l.23-.73c5.14,1,7-.16,10-2.16.87-.57,1.85-1.22,3-1.87A31.94,31.94,0,0,1,58.62,64.9c1.22.13,2.45.32,3.75.51,3.48.53,7.08,1.08,10.36.49Z"/><path class="cls-5" d="M57,69.22V70c-6.08,0-13.87.89-17.48,3.63l-.64-.54C42.67,70.17,50.73,69.18,57,69.22Z"/><path class="cls-5" d="M53.4,70.17c-2.31,2.16-8,3.06-11,1.75l.45-.66c2.66,1.15,7.8.32,9.83-1.58Z"/><path class="cls-5" d="M44.37,57c-5.58,2.62-13.38,3.52-19,2.17a27.69,27.69,0,0,1-5.89-2.38c-2.7-1.34-5.26-2.61-8.64-2.55l0-.74c3.66-.08,6.45,1.31,9.16,2.66a27,27,0,0,0,5.66,2.29c5.27,1.27,12.94.39,18.23-2.1Z"/><path class="cls-5" d="M40.4,58.44a35.64,35.64,0,0,1-6.65-.68c-3.78-.64-7.36-1.23-10.54.32l-.49-.65c3.5-1.7,7.43-1,11.22-.41a33.84,33.84,0,0,0,6.43.67Z"/><path class="cls-5" d="M56.09,62.41l-.06.75A52,52,0,0,0,34.5,66.61l-.41-.68A53.26,53.26,0,0,1,56.09,62.41Z"/><path class="cls-5" d="M174.68,79.52c-9.62,0-17.32-2.14-24.25-6.73l.6-.58c6.75,4.48,14.26,6.56,23.65,6.56Z"/><path class="cls-5" d="M220.25,74.62l-.11.75A43.4,43.4,0,0,1,211,73.12a54.69,54.69,0,0,0-7.23-2,102.79,102.79,0,0,0-11.07-1.34l.07-.75a102.75,102.75,0,0,1,11.2,1.36,54.87,54.87,0,0,1,7.38,2A42,42,0,0,0,220.25,74.62Z"/><path class="cls-5" d="M183.1,70.68c-2,.74-8,2.4-10.89,1.23a2.36,2.36,0,0,1-1.53-1.57l.92-.16a1.59,1.59,0,0,0,1,1.07c2.35,1,7.81-.43,10.09-1.25Z"/><path class="cls-5" d="M215.91,16c-2,2.77-6.91,4.33-10.64,3.4l.28-.71c3.28.82,7.75-.62,9.56-3.07Z"/><path class="cls-5" d="M92.11,17.53l-.34.69c-4.72-1.45-12.07-1.85-17.07.72l-.51-.63C79.5,15.58,87,16,92.11,17.53Z"/><path class="cls-5" d="M87.5,17.45a15.52,15.52,0,0,1-11.07.76l.4-.67A14.34,14.34,0,0,0,87,16.81Z"/><path class="cls-5" d="M54.14,39.91l-.64.55c-6.85-5-17.71-7.11-26.41-5l-.27-.72C35.82,32.57,47.05,34.7,54.14,39.91Z"/><path class="cls-5" d="M115.55,1.67c-1.66.05-3.38.14-5,.22-5.68.28-11.56.57-16.82-.48l.23-.72c5.12,1,10.92.73,16.53.45,1.66-.08,3.38-.16,5.05-.21Z"/><path class="cls-5" d="M192,49.16l-.22.73c-3.62-.67-6.33-3.19-9-5.63A32.69,32.69,0,0,0,179,41c-3.35-2.29-10.14-6-17.93-5.52L161,34.7c8.13-.54,15.15,3.34,18.62,5.7a35.59,35.59,0,0,1,4,3.37C186.09,46.12,188.7,48.55,192,49.16Z"/><path class="cls-5" d="M135.66,71.81l-.27.72a77.23,77.23,0,0,0-14-1.59c-3.49-.19-7.09-.38-10.53-.9l.17-.73c3.39.51,7,.7,10.42.88A79.07,79.07,0,0,1,135.66,71.81Z"/><path class="cls-5" d="M209.5,66l-.48.65a38.76,38.76,0,0,0-13.75-3.44l.07-.75A40,40,0,0,1,209.5,66Z"/><path class="cls-5" d="M195,15.21c-3.37.7-5.54,2.21-5.65,3.93s1.58,3.06,4.65,4l-.33.7c-3.47-1-5.39-2.78-5.26-4.73s2.57-3.83,6.35-4.62Z"/><path class="cls-5" d="M151.16,23.86c-2.12.05-4.26.06-6.33.07-6.72,0-13.07.07-19.39,1.41l-.24-.72c6.43-1.37,12.84-1.4,19.62-1.44,2.06,0,4.2,0,6.31-.07Z"/><path class="cls-5" d="M156.68,58.67l-.67.52a10.44,10.44,0,0,0-9.71-2.07l-.33-.7A11.68,11.68,0,0,1,156.68,58.67Z"/><path class="cls-5" d="M173.86,56.39l0,.75a49.4,49.4,0,0,0-9.88.66l-.19-.73A50.21,50.21,0,0,1,173.86,56.39Z"/><rect class="cls-5" x="135.93" y="54.4" width="5.42" height="0.75"/><path class="cls-5" d="M104.51,108.44c-5.73.75-10.58-.68-13-3.83l.8-.39c2.19,2.88,6.68,4.18,12,3.48Z"/></pattern><pattern id="VM-Vintage-Wood-01.4" data-name="VM-Vintage-Wood-01.4" width="163" height="250" patternTransform="translate(0 -144)" patternUnits="userSpaceOnUse" viewBox="0 0 163 250"><rect class="cls-1" width="163" height="250"/><rect class="cls-2" width="163" height="250"/><path class="cls-3" d="M70.79,91.7a3.09,3.09,0,0,1-.89-.13c-2.1-.62-3.71-2.26-4.78-4.87-5.39-13.16,4.1-47.83,6.94-56.4.88-2.66,1.75-4.85,2.6-7,2.5-6.25,4.48-11.2,4.48-23.31h.75c0,12.33-2,17.36-4.56,23.73-.84,2.1-1.71,4.28-2.58,6.91-2.64,8-12.17,42.9-7,55.61,1,2.36,2.41,3.83,4.29,4.39,1.57.45,3-.56,4.16-3,2.89-6,3.4-18.18.91-21.81-1.21-1.75-2.29-2.21-3.21-1.37-2.26,2-3.17,11-1.48,14.57l-.64.48c-1.77-3.7-1.11-13.3,1.68-15.82.89-.8,2.35-1.19,4.22,1.53,2.7,3.94,2.24,16.56-.84,22.9C73.73,90.48,72.33,91.7,70.79,91.7Z"/><path class="cls-3" d="M65.85,125h-.74c0-9.51,3.17-13.65,6.53-18a36.72,36.72,0,0,0,6.82-12.24c3.24-10.22,3.76-18.27,1.65-25.35a28.19,28.19,0,0,0-2.7-5.83,27.65,27.65,0,0,1-2.84-6.2C71.77,47.44,76,34.82,79,25.61c.39-1.17.76-2.3,1.11-3.37l.69.35c-.34,1.07-.72,2.2-1.11,3.38C76.54,35.55,72.58,47.46,75.28,57A26,26,0,0,0,78,63a28.62,28.62,0,0,1,2.79,6.05c2.87,9.59.43,19.44-1.65,26a37.85,37.85,0,0,1-7,12.55C68.79,112,65.85,115.86,65.85,125Z"/><path class="cls-3" d="M67,35.81l-.74-.14a59.3,59.3,0,0,1,4.35-17.33C72.44,13.72,74,9.73,74,0h.75c0,9.93-1.61,14-3.48,18.73A58.56,58.56,0,0,0,67,35.81Z"/><path class="cls-3" d="M74.76,125H74v-4.74c0-2.63,0-5.11,2.12-10.37l.67.42c-2,5.06-2,7.32-2,10Z"/><path class="cls-3" d="M79.81,125h-.75c0-2.77-.12-5.82-.22-8.78-.22-5.91-.44-12,.22-16.21l.74.19c-.65,4.06-.43,10.12-.22,16C79.69,119.14,79.81,122.21,79.81,125Z"/><path class="cls-3" d="M57,125H56.2c0-8.66,3.46-11.9,6.8-15s6.92-6.48,7.15-15.65l.75,0c-.24,9.62-3.91,13-7.45,16.37C60.11,113.85,57,116.81,57,125Z"/><path class="cls-3" d="M30.22,125h-.74c0-4.5-1.21-12-2.48-20-1.58-9.92-3.22-20.18-2.48-24.78a38.16,38.16,0,0,1,10.79-21C41.46,53,43.75,45.8,46,34c1.65-8.53,1.49-17.51,1.35-26.2-.05-2.53-.09-5.15-.09-7.74H48c0,2.58,0,5.2.09,7.73.14,8.74.3,17.79-1.37,26.43-2.32,12-4.66,19.33-11,25.73a37.09,37.09,0,0,0-10.53,20.5c-.72,4.42.9,14.58,2.47,24.4C29,112.84,30.22,120.41,30.22,125Z"/><path class="cls-3" d="M32,13.18C29.15,9,29.46.37,29.48,0l.74.05c0,.08-.31,8.62,2.31,12.52Z"/><path class="cls-3" d="M61.05,107.58l-.61-.55c4.85-8.43,3.39-13.09,1.54-19-.46-1.46-.94-3-1.35-4.63-3.54-14.22-3.25-29.6.89-47C64.59,23.46,65.11,14.72,65.11,0h.74c0,14.5-.54,23.68-3.62,36.64-4.09,17.24-4.38,32.45-.88,46.48.4,1.63.87,3.12,1.32,4.56C64.53,93.62,66.14,98.73,61.05,107.58Z"/><path class="cls-3" d="M19.55,56.16c-1.65,0-3.29-2.1-4.87-6.27C10.39,38.6,10.79,28.1,11.3,14.81c.18-4.65.36-9.47.36-14.79h.75c0,5.34-.19,10.17-.36,14.84-.5,13.15-.9,23.55,3.3,34.63,1.47,3.85,3,5.83,4.31,5.73s2.53-2.11,3.45-5.54c1.74-6.53,1.72-16.3-.92-19.11-1-1.05-2.3-1.05-3.9,0-2.08,1.36-2.63,4.49-2.46,7,.18,2.63,1.3,5.66,3.38,6.49l-.23.89c-2.12-.85-3.65-3.71-3.9-7.3s.85-6.56,2.86-7.88c2.36-1.55,3.88-.79,4.73.12,3.14,3.34,2.79,14,1.15,20.12-1,3.86-2.49,6.06-4.12,6.18Z"/><path class="cls-3" d="M15.55,82.22C.62,70.13,1.69,44.06,3.65,29.59c1-7.07.41-12.45-.17-18.15A109,109,0,0,1,2.75,0H3.5a107,107,0,0,0,.73,11.3c.58,5.77,1.14,11.22.16,18.43C2.46,44,1.39,69.63,16,81.43Z"/><path class="cls-3" d="M3.5,125H2.75a171.29,171.29,0,0,0-1.16-22.17A74.34,74.34,0,0,1,.93,92.6a83.23,83.23,0,0,1,.62-8.75C2.17,78.15,2.71,73.22,0,65.08l.69-.36C3.48,73.1,2.93,78.14,2.29,84a81.57,81.57,0,0,0-.61,8.63,72.33,72.33,0,0,0,.65,10.08A171,171,0,0,1,3.5,125Z"/><path class="cls-3" d="M21.32,125h-.75c0-4.82-.21-10.36-.42-16.23-.37-10.1-.75-20.53-.11-28.11.5-5.88,2.39-12.57,4.39-19.65,3.76-13.31,7.65-27.08,3.15-37.86l.67-.44c4.64,11.15.7,25.11-3.12,38.62-2,7-3.86,13.66-4.34,19.43-.64,7.51-.26,17.91.11,28C21.11,114.61,21.32,120.16,21.32,125Z"/><path class="cls-3" d="M28.26,63.53l-.69-.38c11.64-33,5-41.38-.95-48.78C23.51,10.47,20.57,6.79,20.57,0h.75c0,6.38,2.83,9.93,5.83,13.69C33.22,21.32,40.1,29.94,28.26,63.53Z"/><path class="cls-3" d="M22.6,25.31c-6-4.34-6-9.83-5.91-21.86,0-1.08,0-2.22,0-3.43h.75c0,1.21,0,2.35,0,3.44,0,12-.06,17,5.54,21Z"/><path class="cls-3" d="M17.45,125H16.7c0-11.09,0-31.72-11.11-44.6l.51-.69C17.45,92.87,17.45,113.77,17.45,125Z"/><path class="cls-3" d="M8.54,125H7.79a100.51,100.51,0,0,1,1-13.57c.88-7.07,1.32-10.62-4.63-20.42l.6-.56c6.14,10.11,5.68,13.79,4.77,21.13A98.63,98.63,0,0,0,8.54,125Z"/><path class="cls-3" d="M16.63,70.21C7.09,60,7.45,30.35,7.72,8.69c0-3.11.07-6,.07-8.67h.75c0,2.62,0,5.57-.07,8.68C8.22,29,7.84,59.58,17.12,69.49Z"/><path class="cls-3" d="M35.27,125h-.75a79.13,79.13,0,0,0-2.17-18.87A94,94,0,0,1,30.12,91.2C29.33,79.05,35.75,70,41.41,62a93.65,93.65,0,0,0,6-9.07c3.26-6,5-31.18,5-52.95h.75c0,21.91-1.75,47.32-5.11,53.48a90.06,90.06,0,0,1-6,9.16C36.14,70.88,30.1,79.38,30.86,91.12a94,94,0,0,0,2.21,14.77A79.64,79.64,0,0,1,35.27,125Z"/><path class="cls-3" d="M53.08,125h-.75v-2.87a21.88,21.88,0,0,0-2-9.28c-1.43-3.62-3.06-7.71-3.06-17.67H48c0,9.73,1.58,13.73,3,17.25a23,23,0,0,1,2.06,9.7Z"/><path class="cls-3" d="M37.18,42.91l-.71-.28c1.31-5.36,3.15-17.49.71-25l-.33-1c-1.65-5-2.33-7.11-2.33-16.6h.75c0,9.3.62,11.19,2.27,16.25l.33,1C40.39,25,38.52,37.43,37.18,42.91Z"/><path class="cls-3" d="M39.09,49.91l-.67-.44c5.94-14.17,5.37-35.13,5.09-45.21,0-1.69-.09-3.16-.09-4.24h.75c0,1.06,0,2.52.09,4.21C44.54,14.38,45.12,35.51,39.09,49.91Z"/><path class="cls-3" d="M44.17,125h-.75c0-31.44,1.78-38,5-50,.81-3,1.73-6.42,2.72-10.65C55.11,47.46,56.2,33.63,56.2,0H57c0,33.72-1.1,47.6-5.09,64.6-1,4.24-1.91,7.66-2.73,10.67C45.94,87.17,44.17,93.72,44.17,125Z"/><path class="cls-3" d="M54.92,105.21a3.36,3.36,0,0,1-2.46-1.32c-4.13-4.49-1.9-14.76.26-24.7,1.35-6.23,2.63-12.12,2.33-16.33l.75-.08c.31,4.37-1,10.34-2.36,16.66-2.1,9.65-4.27,19.64-.49,23.75,1,1.08,2,1.36,2.9.82,1.71-1,3-4.6,3-8.23,0-2.89-.9-5-2.43-5.87l.3-.86c1.81,1,2.86,3.45,2.88,6.72,0,4-1.45,8-3.44,9.09A2.44,2.44,0,0,1,54.92,105.21Z"/><path class="cls-3" d="M39.13,125h-.75c0-4.13-.21-8.33-.42-12.39C37.22,98,36.45,82.9,45.43,68l.6.57c-8.82,14.67-8.06,29.6-7.32,44C38.92,116.63,39.13,120.84,39.13,125Z"/><path class="cls-3" d="M41.31,20.33h-.75a32.1,32.1,0,0,0-1.17-8.47,27,27,0,0,1-1-6.89V0h.75V5a26.27,26.27,0,0,0,1,6.62A33.28,33.28,0,0,1,41.31,20.33Z"/><path class="cls-3" d="M66.11,125"/><rect class="cls-3" x="47.29" y="117.52" width="0.75" height="7.48"/><rect class="cls-3" x="61.24" y="117.52" width="0.75" height="7.48"/><rect class="cls-3" x="61.24" y="0.02" width="0.75" height="21.68"/><path class="cls-3" d="M72.75,155.64l-.69-.36c.88-2.67,1.75-4.85,2.6-7,2.5-6.26,4.48-11.2,4.48-23.31h.75c0,12.33-2,17.36-4.56,23.73C74.49,150.83,73.62,153,72.75,155.64Z"/><path class="cls-3" d="M65.85,250h-.74c0-9.52,3.17-13.66,6.53-18a36.62,36.62,0,0,0,6.82-12.24c3.24-10.21,3.76-18.27,1.65-25.34a28.19,28.19,0,0,0-2.7-5.83,27.65,27.65,0,0,1-2.84-6.2c-2.8-9.92,1.4-22.53,4.47-31.74l1.11-3.38.69.35c-.34,1.08-.72,2.21-1.11,3.39-3.19,9.57-7.15,21.49-4.45,31.06A26.32,26.32,0,0,0,78,188a28.76,28.76,0,0,1,2.79,6c2.87,9.6.43,19.45-1.65,26a37.79,37.79,0,0,1-7,12.54C68.79,237,65.85,240.84,65.85,250Z"/><path class="cls-3" d="M67,160.78l-.74-.13a59.48,59.48,0,0,1,4.35-17.34c1.83-4.61,3.4-8.6,3.4-18.31h.75c0,9.93-1.61,14-3.48,18.73A58.47,58.47,0,0,0,67,160.78Z"/><path class="cls-3" d="M74.76,250H74v-4.75c0-2.63,0-5.11,2.12-10.36l.67.42c-2,5.06-2,7.32-2,9.94Z"/><path class="cls-3" d="M79.81,250h-.75c0-2.88-.11-5.4-.21-7.84a61.28,61.28,0,0,1,.3-12.56l.73.18a61.13,61.13,0,0,0-.28,12.33C79.7,244.54,79.81,247.08,79.81,250Z"/><path class="cls-3" d="M57,250H56.2c0-8.66,3.46-11.9,6.8-15s6.92-6.49,7.15-15.65l.75,0c-.24,9.62-3.91,13.06-7.45,16.38C60.11,238.83,57,241.79,57,250Z"/><path class="cls-3" d="M30.22,250h-.74c0-4.5-1.21-12-2.48-20-1.58-9.91-3.22-20.17-2.48-24.77a38.16,38.16,0,0,1,10.79-21c6.15-6.23,8.44-13.38,10.72-25.22,1.65-8.53,1.49-17.51,1.35-26.2-.05-2.53-.09-5.15-.09-7.74H48c0,2.58,0,5.19.09,7.72.14,8.75.3,17.79-1.37,26.44-2.32,12-4.66,19.33-11,25.73a37.05,37.05,0,0,0-10.53,20.5c-.72,4.41.9,14.57,2.47,24.4C29,237.81,30.22,245.39,30.22,250Z"/><path class="cls-3" d="M32,138.15c-2.81-4.18-2.5-12.81-2.48-13.17l.74,0c0,.09-.31,8.63,2.31,12.53Z"/><path class="cls-3" d="M61.05,232.56l-.61-.55c4.85-8.44,3.39-13.09,1.54-19-.46-1.45-.94-3-1.35-4.62-3.54-14.22-3.25-29.61.89-47,3.07-12.93,3.59-21.67,3.59-36.37h.74c0,14.5-.54,23.67-3.62,36.64-4.09,17.24-4.38,32.44-.88,46.48.4,1.63.87,3.12,1.32,4.56C64.53,218.6,66.14,223.7,61.05,232.56Z"/><path class="cls-3" d="M19.55,181.14c-1.65,0-3.29-2.11-4.87-6.27-4.29-11.3-3.89-21.79-3.38-35.08.18-4.66.36-9.47.36-14.79h.75c0,5.34-.19,10.17-.36,14.83-.5,13.16-.9,23.55,3.3,34.64,1.47,3.85,3,5.82,4.31,5.73s2.53-2.12,3.45-5.54c1.74-6.53,1.72-16.3-.92-19.11-1-1.05-2.3-1.05-3.9,0l-.35-.83c2.36-1.55,3.88-.79,4.73.13,3.14,3.34,2.79,14,1.15,20.11-1,3.87-2.49,6.06-4.12,6.19Z"/><path class="cls-3" d="M15.55,207.2C.62,195.1,1.69,169,3.65,154.57c1-7.07.41-12.46-.17-18.15A109,109,0,0,1,2.75,125H3.5a107.15,107.15,0,0,0,.73,11.3c.58,5.77,1.14,11.22.16,18.42C2.46,169,1.39,194.61,16,206.41Z"/><path class="cls-3" d="M3.5,250H2.75A171.36,171.36,0,0,0,1.59,227.8a74.19,74.19,0,0,1-.66-10.22,83.23,83.23,0,0,1,.62-8.75c.62-5.71,1.16-10.63-1.55-18.77l.69-.36c2.79,8.37,2.24,13.42,1.6,19.26a81.57,81.57,0,0,0-.61,8.63,72.43,72.43,0,0,0,.65,10.08A171,171,0,0,1,3.5,250Z"/><path class="cls-3" d="M21.32,250h-.75c0-4.82-.21-10.37-.42-16.24-.37-10.09-.75-20.53-.11-28.1.5-5.88,2.39-12.57,4.39-19.65,3.76-13.31,7.65-27.08,3.15-37.87l.67-.43c4.64,11.15.7,25.11-3.12,38.61-2,7-3.86,13.67-4.34,19.44-.64,7.5-.26,17.9.11,28C21.11,239.58,21.32,245.14,21.32,250Z"/><path class="cls-3" d="M28.26,188.51l-.69-.38c11.64-33,5-41.39-.95-48.78-3.11-3.9-6.05-7.59-6.05-14.35h.75c0,6.38,2.83,9.93,5.83,13.69C33.22,146.29,40.1,154.92,28.26,188.51Z"/><path class="cls-3" d="M22.6,150.29c-6-4.34-6-9.83-5.91-21.86,0-1.09,0-2.23,0-3.43h.75c0,1.2,0,2.35,0,3.43,0,12-.06,17,5.54,21Z"/><path class="cls-3" d="M17.45,250H16.7c0-11.09,0-31.73-11.11-44.6l.51-.69C17.45,217.85,17.45,238.75,17.45,250Z"/><path class="cls-3" d="M8.54,250H7.79a100.38,100.38,0,0,1,1-13.57c.88-7.07,1.32-10.62-4.63-20.42l.6-.57c6.14,10.12,5.68,13.8,4.77,21.14A98.5,98.5,0,0,0,8.54,250Z"/><path class="cls-3" d="M16.63,195.18C7.09,185,7.45,155.32,7.72,133.67c0-3.12.07-6.06.07-8.67h.75c0,2.62,0,5.56-.07,8.68-.25,20.26-.63,50.88,8.65,60.79Z"/><path class="cls-3" d="M35.27,250h-.75a79.23,79.23,0,0,0-2.17-18.88,93.79,93.79,0,0,1-2.23-14.93C29.33,204,35.75,195,41.41,187a93.65,93.65,0,0,0,6-9.07c3.26-6,5-31.18,5-52.95h.75c0,21.91-1.75,47.31-5.11,53.48a92.33,92.33,0,0,1-6,9.16c-5.83,8.22-11.87,16.71-11.11,28.46a93.62,93.62,0,0,0,2.21,14.76A79.73,79.73,0,0,1,35.27,250Z"/><path class="cls-3" d="M53.08,250h-.75v-2.87a21.84,21.84,0,0,0-2-9.28c-1.43-3.62-3.06-7.72-3.06-17.67H48c0,9.73,1.58,13.73,3,17.25a23,23,0,0,1,2.06,9.7Z"/><path class="cls-3" d="M37.18,167.89l-.71-.28c1.31-5.36,3.15-17.49.71-25l-.33-1c-1.65-5-2.33-7.12-2.33-16.6h.75c0,9.3.62,11.19,2.27,16.25l.33,1C40.39,150,38.52,162.41,37.18,167.89Z"/><path class="cls-3" d="M39.09,174.88l-.67-.43c5.94-14.17,5.37-35.14,5.09-45.21,0-1.7-.09-3.16-.09-4.24h.75c0,1.06,0,2.52.09,4.21C44.54,139.36,45.12,160.49,39.09,174.88Z"/><path class="cls-3" d="M44.17,250h-.75c0-31.44,1.78-38,5-50,.81-3,1.73-6.42,2.72-10.64,4-16.9,5.06-30.72,5.06-64.33H57c0,33.71-1.1,47.6-5.09,64.59-1,4.25-1.91,7.66-2.73,10.68C45.94,212.15,44.17,218.7,44.17,250Z"/><path class="cls-3" d="M52.46,228.87c-4.13-4.5-1.9-14.77.26-24.7,1.35-6.23,2.63-12.12,2.33-16.33l.75-.09c.31,4.38-1,10.35-2.36,16.67-2.1,9.65-4.27,19.63-.49,23.74Z"/><path class="cls-3" d="M39.13,250h-.75c0-4.13-.21-8.33-.42-12.39-.74-14.61-1.51-29.71,7.47-44.66l.6.56c-8.82,14.68-8.06,29.6-7.32,44C38.92,241.6,39.13,245.82,39.13,250Z"/><path class="cls-3" d="M41.31,145.3h-.75a32,32,0,0,0-1.17-8.46,27.05,27.05,0,0,1-1-6.9V125h.75v4.94a26.2,26.2,0,0,0,1,6.62A33.34,33.34,0,0,1,41.31,145.3Z"/><path class="cls-3" d="M66.11,249.92"/><rect class="cls-3" x="47.29" y="242.5" width="0.75" height="7.48"/><rect class="cls-3" x="61.24" y="242.5" width="0.75" height="7.48"/><rect class="cls-3" x="61.24" y="125" width="0.75" height="21.68"/><path class="cls-3" d="M61.24,187.76c-.17-6,1.25-13.35,4-20.84l.68.4c-2.73,7.35-4.13,14.59-4,20.41Z"/><path class="cls-3" d="M48.19,187.58l-.56-.61a24.16,24.16,0,0,0,3.66-8.41l.72.25A25,25,0,0,1,48.19,187.58Z"/><path class="cls-3" d="M21.66,195.3a43.22,43.22,0,0,0-3.83-6.77c-2.16-3.34-4.39-6.79-5.3-11l.72-.25c.87,4,3.05,7.37,5.16,10.63a43.73,43.73,0,0,1,3.91,6.93Z"/><path class="cls-3" d="M17.26,152.17c-2.16-2.29-3.13-6.73-2.87-13.19l.74.05c-.23,6.06.67,10.36,2.61,12.43Z"/><path class="cls-3" d="M75.74,219.67l-.66-.43a39.21,39.21,0,0,0,1.77-7.08c1.8-10.27-.82-16.88-5-25.79-4.74-10-1.84-21,1.42-28.38l.66.45c-3.17,7.2-6,17.8-1.44,27.46,4.16,8.82,7,15.88,5.12,26.46A39.91,39.91,0,0,1,75.74,219.67Z"/><path class="cls-3" d="M73,223.53l-.73-.23c1-5.14-.16-7-2.16-10-.58-.87-1.22-1.85-1.87-3a31.93,31.93,0,0,1-3.37-18.86c.13-1.22.32-2.45.52-3.75.52-3.48,1.07-7.08.48-10.36l.74-.2c.61,3.46,0,7.16-.49,10.74-.19,1.28-.38,2.5-.51,3.69a30.85,30.85,0,0,0,3.24,18.2c.64,1.14,1.27,2.11,1.83,3C72.72,215.72,74.17,217.93,73,223.53Z"/><path class="cls-3" d="M73.06,211.14c-2.89-3.81-3.88-11.87-3.84-18.14H70c0,6.08.89,13.87,3.63,17.48Z"/><path class="cls-3" d="M71.92,207.6l-.66-.45c1.14-2.65.32-7.8-1.58-9.83l.49-.72C72.33,198.91,73.23,204.56,71.92,207.6Z"/><path class="cls-3" d="M53.52,239.15c-.08-3.66,1.31-6.45,2.66-9.16a27,27,0,0,0,2.29-5.66c1.27-5.27.39-12.94-2.1-18.23l.65-.47c2.62,5.58,3.52,13.38,2.17,19a27.48,27.48,0,0,1-2.38,5.89c-1.34,2.7-2.61,5.26-2.54,8.64Z"/><path class="cls-3" d="M57.43,227.28c-1.7-3.5-1-7.43-.41-11.22a33.76,33.76,0,0,0,.67-6.43l.75,0a35.55,35.55,0,0,1-.68,6.65c-.64,3.78-1.23,7.36.31,10.54Z"/><path class="cls-3" d="M65.93,215.91a53.24,53.24,0,0,1-3.52-22l.74.06a52.17,52.17,0,0,0,3.46,21.53Z"/><path class="cls-3" d="M72.79,99.57l-.58-.6c4.48-6.75,6.56-14.26,6.56-23.65h.75C79.52,84.94,77.38,92.64,72.79,99.57Z"/><path class="cls-3" d="M69.8,57.34l-.75-.08a102.75,102.75,0,0,1,1.36-11.2,54.87,54.87,0,0,1,2-7.38,42,42,0,0,0,2.19-8.93l.75.11A43.4,43.4,0,0,1,73.12,39a54.69,54.69,0,0,0-2,7.23A102.66,102.66,0,0,0,69.8,57.34Z"/><path class="cls-3" d="M70.34,79.32l-.16-.92a1.59,1.59,0,0,0,1.07-1c1-2.35-.43-7.81-1.25-10.09l.68-.38c.74,2,2.4,8,1.23,10.89A2.36,2.36,0,0,1,70.34,79.32Z"/><path class="cls-3" d="M19.35,44.73l-.71-.27c.81-3.29-.62-7.76-3.07-9.56l.38-.81C18.72,36.13,20.28,41,19.35,44.73Z"/><path class="cls-3" d="M18.31,175.81c-2.72-5.3-2.36-12.82-.78-17.92l.69.34c-1.45,4.72-1.85,12.07.72,17.08Z"/><path class="cls-3" d="M18.21,173.57l-.67-.4A14.34,14.34,0,0,0,16.81,163l.64-.49A15.52,15.52,0,0,1,18.21,173.57Z"/><path class="cls-3" d="M34.71,223.18c-2.15-9,0-20.23,5.2-27.32l.55.64c-5,6.85-7.11,17.71-5,26.41Z"/><path class="cls-3" d="M1.42,156.3l-.73-.22c1-5.13.73-10.93.45-16.54-.08-1.66-.16-3.38-.21-5l.74,0c.05,1.65.14,3.37.22,5C2.17,145.16,2.46,151,1.42,156.3Z"/><path class="cls-3" d="M34.7,89.05C34.17,80.92,38,73.9,40.4,70.43a35.59,35.59,0,0,1,3.37-4c2.35-2.52,4.78-5.13,5.4-8.46l.72.22c-.67,3.63-3.19,6.33-5.63,9A33.5,33.5,0,0,0,41,71c-2.29,3.36-6,10.14-5.52,17.93Z"/><path class="cls-3" d="M70,139.14l-.73-.17c.51-3.39.7-7,.88-10.42a79.07,79.07,0,0,1,1.62-14.21l.72.27a77.23,77.23,0,0,0-1.59,14C70.75,132.1,70.56,135.7,70,139.14Z"/><path class="cls-3" d="M63.24,54.74l-.75-.08A40.09,40.09,0,0,1,66,40.5l.65.48A38.76,38.76,0,0,0,63.24,54.74Z"/><path class="cls-3" d="M19.29,61.59H19.1C17,61.44,15.27,59,14.48,55.23l.73-.24c.7,3.37,2.21,5.54,3.93,5.65s3.06-1.58,4-4.65l.7.33C22.81,59.68,21.16,61.59,19.29,61.59Z"/><path class="cls-3" d="M24.62,124.8c-1.37-6.43-1.4-12.84-1.44-19.62,0-2.06,0-4.2-.07-6.31l.75,0c.05,2.12.06,4.26.07,6.33,0,6.72.07,13.07,1.41,19.39Z"/><path class="cls-3" d="M83.86,250h-.75c0-12.33,2-17.36,4.56-23.73.84-2.1,1.71-4.28,2.58-6.91,2.64-8,12.17-42.9,7-55.61-1-2.36-2.41-3.83-4.29-4.38-1.57-.46-3,.55-4.16,3-2.89,5.95-3.4,18.17-.91,21.8,1.2,1.75,2.29,2.21,3.21,1.38,2.26-2,3.17-11,1.48-14.58l.64-.48c1.77,3.7,1.11,13.3-1.68,15.82-.89.8-2.35,1.19-4.22-1.53-2.7-3.94-2.24-16.56.84-22.9,1.36-2.81,3.08-4,5-3.45,2.1.62,3.71,2.26,4.78,4.87,5.39,13.16-4.1,47.83-6.94,56.4-.88,2.66-1.75,4.85-2.6,7C85.84,232.93,83.86,237.87,83.86,250Z"/><path class="cls-3" d="M82.85,227.77l-.69-.36c.34-1.07.72-2.2,1.11-3.38,3.19-9.57,7.15-21.49,4.45-31.07A26,26,0,0,0,85,187a29.14,29.14,0,0,1-2.8-6.05c-2.86-9.59-.42-19.44,1.66-26a37.85,37.85,0,0,1,7-12.55c3.39-4.42,6.33-8.24,6.33-17.38h.74c0,9.51-3.17,13.65-6.53,18a36.72,36.72,0,0,0-6.82,12.24c-3.24,10.22-3.76,18.27-1.65,25.34a28,28,0,0,0,2.7,5.84,27.65,27.65,0,0,1,2.84,6.2c2.8,9.92-1.4,22.53-4.47,31.74C83.57,225.57,83.2,226.69,82.85,227.77Z"/><path class="cls-3" d="M89,250h-.75c0-9.93,1.61-14,3.48-18.73A58.56,58.56,0,0,0,96,214.19l.74.14a59.3,59.3,0,0,1-4.35,17.33C90.56,236.28,89,240.27,89,250Z"/><path class="cls-3" d="M86.87,140.11l-.67-.42c2-5.06,2-7.32,2-9.95V125H89v4.74C89,132.37,89,134.85,86.87,140.11Z"/><path class="cls-3" d="M83.94,150l-.74-.18c.65-4.07.43-10.13.22-16-.11-3-.23-6-.23-8.82h.75c0,2.77.12,5.83.22,8.78C84.38,139.69,84.6,145.81,83.94,150Z"/><path class="cls-3" d="M92.85,155.69l-.75,0c.24-9.62,3.91-13,7.45-16.37,3.34-3.14,6.5-6.1,6.5-14.29h.75c0,8.66-3.46,11.9-6.8,15S93.08,146.52,92.85,155.69Z"/><path class="cls-3" d="M115.71,250H115c0-2.58,0-5.19-.09-7.73-.15-8.74-.3-17.79,1.37-26.43,2.32-12,4.66-19.33,11-25.73a37.09,37.09,0,0,0,10.53-20.5c.72-4.41-.9-14.58-2.47-24.4-1.28-8-2.49-15.6-2.49-20.19h.74c0,4.5,1.21,12,2.48,20,1.58,9.92,3.22,20.18,2.48,24.78a38.16,38.16,0,0,1-10.79,21c-6.15,6.23-8.44,13.38-10.72,25.22-1.65,8.53-1.49,17.51-1.35,26.2C115.66,244.77,115.71,247.39,115.71,250Z"/><path class="cls-3" d="M133.52,250l-.74-.05c0-.08.31-8.62-2.31-12.52l.57-.61C133.85,241,133.54,249.63,133.52,250Z"/><path class="cls-3" d="M97.89,250h-.74c0-14.5.54-23.68,3.61-36.64,4.1-17.24,4.39-32.45.89-46.48-.4-1.63-.87-3.12-1.32-4.56-1.86-5.92-3.47-11,1.62-19.88l.61.55c-4.85,8.44-3.39,13.09-1.54,19,.46,1.46.94,3,1.35,4.63,3.54,14.22,3.25,29.6-.89,47C98.41,226.54,97.89,235.28,97.89,250Z"/><path class="cls-3" d="M151.34,250h-.75c0-5.34.19-10.17.36-14.83.5-13.16.9-23.56-3.31-34.64-1.46-3.85-2.94-5.83-4.3-5.73s-2.53,2.11-3.45,5.54c-1.74,6.53-1.72,16.3.92,19.11,1,1,2.3,1,3.9,0,2.08-1.36,2.63-4.49,2.46-7-.18-2.63-1.3-5.66-3.38-6.49l.23-.89c2.12.85,3.65,3.71,3.9,7.3s-.85,6.57-2.86,7.88c-2.36,1.55-3.88.79-4.73-.12-3.14-3.34-2.79-14-1.15-20.12,1-3.86,2.49-6.06,4.12-6.18s3.39,2,5,6.27c4.29,11.29,3.89,21.79,3.38,35.08C151.52,239.84,151.34,244.66,151.34,250Z"/><path class="cls-3" d="M160.25,250h-.75a107,107,0,0,0-.73-11.3c-.58-5.77-1.14-11.22-.16-18.43,1.93-14.23,3-39.88-11.57-51.68l.41-.79c14.93,12.09,13.86,38.17,11.9,52.63-1,7.07-.41,12.45.17,18.15A109,109,0,0,1,160.25,250Z"/><path class="cls-3" d="M162.31,185.28c-2.79-8.37-2.24-13.42-1.6-19.26a81.57,81.57,0,0,0,.61-8.63,72.33,72.33,0,0,0-.65-10.08A171,171,0,0,1,159.5,125h.75a169.42,169.42,0,0,0,1.16,22.17,72.8,72.8,0,0,1,.66,10.23,83.23,83.23,0,0,1-.62,8.75c-.62,5.7-1.16,10.63,1.55,18.77Z"/><path class="cls-3" d="M134.75,227.29c-4.64-11.15-.7-25.11,3.12-38.62,2-7,3.86-13.66,4.34-19.43.64-7.51.26-17.9-.11-28-.21-5.88-.42-11.44-.42-16.28h.75c0,4.82.21,10.36.42,16.23.37,10.1.75,20.53.11,28.11-.5,5.88-2.39,12.57-4.39,19.65-3.76,13.31-7.65,27.08-3.15,37.86Z"/><path class="cls-3" d="M142.43,250h-.75c0-6.38-2.83-9.93-5.83-13.69-6.07-7.61-12.95-16.23-1.11-49.82l.69.38c-11.64,33-5,41.38.95,48.78C139.49,239.53,142.43,243.21,142.43,250Z"/><path class="cls-3" d="M146.3,250h-.75c0-1.21,0-2.35,0-3.44,0-12,.06-17-5.54-21l.38-.81c6,4.34,5.95,9.83,5.91,21.86C146.3,247.63,146.3,248.77,146.3,250Z"/><path class="cls-3" d="M156.9,170.29c-11.35-13.16-11.35-34.06-11.35-45.29h.75c0,11.09,0,31.72,11.11,44.6Z"/><path class="cls-3" d="M158.29,159.55c-6.14-10.11-5.68-13.79-4.77-21.13a98.63,98.63,0,0,0,.94-13.42h.75a100.38,100.38,0,0,1-1,13.57c-.88,7.07-1.32,10.62,4.63,20.42Z"/><path class="cls-3" d="M155.21,250h-.75c0-2.62,0-5.57.07-8.68.25-20.26.63-50.88-8.65-60.79l.49-.72c9.54,10.2,9.18,39.86,8.91,61.52C155.24,244.42,155.21,247.37,155.21,250Z"/><path class="cls-3" d="M110.67,250h-.75c0-21.91,1.75-47.32,5.11-53.48a91.79,91.79,0,0,1,6-9.16c5.83-8.22,11.87-16.71,11.11-28.46a93.62,93.62,0,0,0-2.21-14.76,79.8,79.8,0,0,1-2.2-19.12h.75a79.13,79.13,0,0,0,2.17,18.87,94,94,0,0,1,2.23,14.93C133.67,171,127.25,180,121.59,188a93.65,93.65,0,0,0-6,9.07C112.38,203,110.67,228.21,110.67,250Z"/><path class="cls-3" d="M115.71,154.82H115c0-9.73-1.58-13.73-3-17.25a23,23,0,0,1-2.06-9.7V125h.75v2.87a21.88,21.88,0,0,0,2,9.28C114.08,140.77,115.71,144.86,115.71,154.82Z"/><path class="cls-3" d="M128.48,250h-.75c0-9.3-.62-11.2-2.27-16.25l-.33-1c-2.52-7.74-.65-20.14.69-25.62l.71.28c-1.31,5.36-3.15,17.49-.71,25l.33,1C127.8,238.41,128.48,240.49,128.48,250Z"/><path class="cls-3" d="M119.58,250h-.75c0-1.06,0-2.52-.09-4.21-.28-10.15-.86-31.28,5.17-45.68l.67.44c-5.94,14.17-5.37,35.13-5.09,45.21C119.54,247.44,119.58,248.9,119.58,250Z"/><path class="cls-3" d="M106.8,250h-.75c0-33.72,1.1-47.6,5.09-64.6,1-4.24,1.91-7.66,2.73-10.67,3.2-11.88,5-18.43,5-49.71h.75c0,31.44-1.78,38-5,50-.81,3-1.73,6.42-2.72,10.65C107.89,202.54,106.8,216.37,106.8,250Z"/><path class="cls-3" d="M107.2,187.22c-.31-4.37,1-10.34,2.36-16.66,2.1-9.65,4.27-19.64.49-23.75-1-1.08-2-1.36-2.9-.82-1.71,1-3,4.6-3,8.23,0,2.89.9,5,2.43,5.87l-.3.86c-1.81-1-2.86-3.45-2.88-6.72,0-4,1.45-7.95,3.44-9.09.84-.49,2.16-.71,3.7,1,4.13,4.49,1.9,14.76-.26,24.7-1.35,6.23-2.63,12.12-2.33,16.33Z"/><path class="cls-3" d="M117.57,182.05l-.6-.57c8.82-14.67,8.06-29.6,7.32-44-.21-4.08-.42-8.29-.42-12.45h.75c0,4.13.21,8.33.42,12.39C125.78,152,126.55,167.1,117.57,182.05Z"/><path class="cls-3" d="M124.62,250h-.75V245a26.28,26.28,0,0,0-1-6.63,33.21,33.21,0,0,1-1.2-8.74h.75a32.1,32.1,0,0,0,1.17,8.47,27,27,0,0,1,1,6.9Z"/><path class="cls-3" d="M96.89,125.06"/><rect class="cls-3" x="114.96" y="125" width="0.75" height="7.48"/><rect class="cls-3" x="101.01" y="125" width="0.75" height="7.48"/><rect class="cls-3" x="101.01" y="228.29" width="0.75" height="21.68"/><path class="cls-3" d="M83.86,125h-.75c0-12.33,2-17.36,4.56-23.73.84-2.1,1.71-4.27,2.58-6.91l.69.36c-.88,2.67-1.75,4.86-2.6,7C85.84,108,83.86,112.89,83.86,125Z"/><path class="cls-3" d="M82.85,102.79l-.69-.35c.34-1.08.72-2.21,1.11-3.38,3.19-9.58,7.15-21.5,4.45-31.07A26.32,26.32,0,0,0,85,62a29.29,29.29,0,0,1-2.8-6c-2.86-9.6-.42-19.45,1.66-26a37.79,37.79,0,0,1,7-12.54C94.21,13,97.15,9.16,97.15,0h.74c0,9.52-3.17,13.66-6.53,18A36.62,36.62,0,0,0,84.54,30.3c-3.24,10.21-3.76,18.27-1.65,25.34a28.19,28.19,0,0,0,2.7,5.83,27.65,27.65,0,0,1,2.84,6.2C91.23,77.59,87,90.2,84,99.41Z"/><path class="cls-3" d="M89,125h-.75c0-9.93,1.61-14,3.48-18.73a58.47,58.47,0,0,0,4.28-17l.74.13a59.39,59.39,0,0,1-4.35,17.34C90.56,111.3,89,115.29,89,125Z"/><path class="cls-3" d="M86.87,15.13l-.67-.42c2-5.06,2-7.32,2-9.94V0H89V4.77C89,7.4,89,9.88,86.87,15.13Z"/><path class="cls-3" d="M83.94,25l-.74-.18c.65-4.07.43-10.13.22-16-.11-3-.23-6-.23-8.82h.75c0,2.78.12,5.83.22,8.78C84.38,14.72,84.6,20.83,83.94,25Z"/><path class="cls-3" d="M92.85,30.71l-.75,0c.24-9.61,3.91-13,7.45-16.37,3.34-3.14,6.5-6.1,6.5-14.29h.75c0,8.66-3.46,11.9-6.8,15S93.08,21.55,92.85,30.71Z"/><path class="cls-3" d="M115.71,125H115c0-2.58,0-5.19-.09-7.72-.15-8.75-.3-17.79,1.37-26.44,2.32-12,4.66-19.33,11-25.73a37.06,37.06,0,0,0,10.53-20.49c.72-4.42-.9-14.58-2.47-24.41-1.28-8-2.49-15.6-2.49-20.19h.74c0,4.5,1.21,12,2.48,20,1.58,9.91,3.22,20.17,2.48,24.77a38.13,38.13,0,0,1-10.79,21c-6.15,6.23-8.44,13.38-10.72,25.22-1.65,8.53-1.49,17.51-1.35,26.2C115.66,119.79,115.71,122.41,115.71,125Z"/><path class="cls-3" d="M133.52,125l-.74,0c0-.09.31-8.63-2.31-12.53l.57-.6C133.85,116,133.54,124.66,133.52,125Z"/><path class="cls-3" d="M97.89,125h-.74c0-14.5.54-23.67,3.61-36.63,4.1-17.25,4.39-32.45.89-46.49-.4-1.63-.87-3.12-1.32-4.56-1.86-5.92-3.47-11,1.62-19.88l.61.55c-4.85,8.44-3.39,13.09-1.54,19,.46,1.45.94,3,1.35,4.62,3.54,14.22,3.25,29.61-.89,47C98.41,101.56,97.89,110.3,97.89,125Z"/><path class="cls-3" d="M151.34,125h-.75c0-5.34.19-10.16.36-14.83.5-13.16.9-23.55-3.31-34.64-1.46-3.85-2.94-5.83-4.3-5.73s-2.53,2.12-3.45,5.54c-1.74,6.53-1.72,16.3.92,19.11,1,1,2.3,1.06,3.9,0l.35.83c-2.36,1.55-3.88.79-4.73-.12-3.14-3.35-2.79-14-1.15-20.12,1-3.87,2.49-6.06,4.12-6.18s3.39,2,5,6.26c4.29,11.3,3.89,21.79,3.38,35.08C151.52,114.87,151.34,119.68,151.34,125Z"/><path class="cls-3" d="M160.25,125h-.75a107.15,107.15,0,0,0-.73-11.3c-.58-5.77-1.14-11.22-.16-18.42,1.93-14.24,3-39.89-11.57-51.69l.41-.78C162.38,54.9,161.31,81,159.35,95.43c-1,7.07-.41,12.46.17,18.15A109.18,109.18,0,0,1,160.25,125Z"/><path class="cls-3" d="M162.31,60.3c-2.79-8.37-2.24-13.42-1.6-19.26a81.57,81.57,0,0,0,.61-8.63,72.43,72.43,0,0,0-.65-10.08A171,171,0,0,1,159.5,0h.75a169.48,169.48,0,0,0,1.16,22.18,72.65,72.65,0,0,1,.66,10.22,83.23,83.23,0,0,1-.62,8.75c-.62,5.71-1.16,10.63,1.55,18.77Z"/><path class="cls-3" d="M134.75,102.31c-4.64-11.15-.7-25.11,3.12-38.61,2-7,3.86-13.66,4.34-19.44.64-7.5.26-17.9-.11-28-.21-5.88-.42-11.44-.42-16.28h.75c0,4.82.21,10.37.42,16.24.37,10.09.75,20.53.11,28.1-.5,5.88-2.39,12.57-4.39,19.65-3.76,13.31-7.65,27.08-3.15,37.87Z"/><path class="cls-3" d="M142.43,125h-.75c0-6.37-2.83-9.92-5.83-13.68-6.07-7.61-12.95-16.24-1.11-49.82l.69.37c-11.64,33-5,41.39.95,48.78C139.49,114.55,142.43,118.24,142.43,125Z"/><path class="cls-3" d="M146.3,125h-.75c0-1.2,0-2.35,0-3.43,0-12,.06-17-5.54-21l.38-.81c6,4.34,5.95,9.83,5.91,21.86C146.3,122.66,146.3,123.8,146.3,125Z"/><path class="cls-3" d="M156.9,45.31C145.55,32.16,145.55,11.25,145.55,0h.75c0,11.09,0,31.73,11.11,44.6Z"/><path class="cls-3" d="M158.29,34.58c-6.14-10.12-5.68-13.8-4.77-21.13A98.8,98.8,0,0,0,154.46,0h.75a100.38,100.38,0,0,1-1,13.57c-.88,7.07-1.32,10.62,4.63,20.42Z"/><path class="cls-3" d="M155.21,125h-.75c0-2.62,0-5.56.07-8.68.25-20.26.63-50.88-8.65-60.79l.49-.71c9.54,10.19,9.18,39.86,8.91,61.52C155.24,119.45,155.21,122.39,155.21,125Z"/><path class="cls-3" d="M110.67,125h-.75c0-21.91,1.75-47.31,5.11-53.47a93.05,93.05,0,0,1,6-9.17c5.83-8.21,11.87-16.71,11.11-28.45a93.59,93.59,0,0,0-2.21-14.77A79.73,79.73,0,0,1,127.73,0h.75a79.16,79.16,0,0,0,2.17,18.88,93.79,93.79,0,0,1,2.23,14.93C133.67,46,127.25,55,121.59,63a93.65,93.65,0,0,0-6,9.07C112.38,78.06,110.67,103.23,110.67,125Z"/><path class="cls-3" d="M115.71,29.84H115c0-9.73-1.58-13.73-3-17.25a23,23,0,0,1-2.06-9.7V0h.75V2.89a21.84,21.84,0,0,0,2,9.28C114.08,15.79,115.71,19.89,115.71,29.84Z"/><path class="cls-3" d="M128.48,125h-.75c0-9.3-.62-11.19-2.27-16.25l-.33-1c-2.52-7.75-.65-20.15.69-25.62l.71.27c-1.31,5.36-3.15,17.49-.71,25l.33,1C127.8,113.43,128.48,115.52,128.48,125Z"/><path class="cls-3" d="M119.58,125h-.75c0-1.06,0-2.52-.09-4.21-.28-10.15-.86-31.28,5.17-45.67l.67.43c-5.94,14.18-5.37,35.14-5.09,45.21C119.54,122.46,119.58,123.92,119.58,125Z"/><path class="cls-3" d="M106.8,125h-.75c0-33.71,1.1-47.6,5.09-64.59,1-4.25,1.91-7.66,2.73-10.68,3.2-11.88,5-18.42,5-49.71h.75c0,31.44-1.78,38-5,50-.81,3-1.73,6.42-2.72,10.64C107.89,77.57,106.8,91.39,106.8,125Z"/><path class="cls-3" d="M107.2,62.25c-.31-4.38,1-10.35,2.36-16.66,2.1-9.66,4.27-19.64.49-23.75l.49-.71c4.13,4.5,1.9,14.77-.26,24.7C108.93,52.07,107.65,58,108,62.16Z"/><path class="cls-3" d="M117.57,57.07l-.6-.56c8.82-14.68,8.06-29.6,7.32-44-.21-4.07-.42-8.29-.42-12.45h.75c0,4.13.21,8.33.42,12.39C125.78,27,126.55,42.12,117.57,57.07Z"/><path class="cls-3" d="M124.62,125h-.75v-4.94a26.2,26.2,0,0,0-1-6.62,33.34,33.34,0,0,1-1.2-8.74h.75a32,32,0,0,0,1.17,8.46,27.12,27.12,0,0,1,1,6.9Z"/><path class="cls-3" d="M96.89.08"/><rect class="cls-3" x="114.96" y="0.02" width="0.75" height="7.48"/><rect class="cls-3" x="101.01" y="0.02" width="0.75" height="7.48"/><rect class="cls-3" x="101.01" y="103.32" width="0.75" height="21.68"/><path class="cls-3" d="M97.73,83.08l-.68-.4c2.73-7.35,4.13-14.59,4-20.41l.75,0C101.93,68.2,100.51,75.59,97.73,83.08Z"/><path class="cls-3" d="M111.71,71.44l-.72-.25a25,25,0,0,1,3.82-8.77l.56.61A24.24,24.24,0,0,0,111.71,71.44Z"/><path class="cls-3" d="M149.75,72.69c-.87-4-3.05-7.37-5.16-10.63a43.29,43.29,0,0,1-3.91-6.93l.66-.43a43.22,43.22,0,0,0,3.83,6.77c2.16,3.34,4.39,6.79,5.3,11Z"/><path class="cls-3" d="M148.61,111l-.74,0c.23-6.07-.67-10.37-2.61-12.44l.48-.71C147.9,100.12,148.87,104.56,148.61,111Z"/><path class="cls-3" d="M89.75,92l-.66-.45c3.17-7.2,6-17.8,1.44-27.45-4.16-8.83-7-15.89-5.12-26.47a39.91,39.91,0,0,1,1.85-7.31l.66.43a39.21,39.21,0,0,0-1.77,7.08c-1.8,10.27.82,16.88,5,25.79C95.91,73.66,93,84.6,89.75,92Z"/><path class="cls-3" d="M96.36,72.93c-.61-3.46,0-7.16.49-10.74.19-1.28.38-2.5.51-3.69a30.85,30.85,0,0,0-3.24-18.2c-.63-1.14-1.27-2.11-1.83-3-2-3-3.46-5.26-2.32-10.86l.73.23c-1,5.14.16,7,2.16,10,.57.87,1.22,1.85,1.87,3A31.94,31.94,0,0,1,98.1,58.62c-.13,1.22-.32,2.45-.51,3.75-.53,3.48-1.08,7.08-.49,10.36Z"/><path class="cls-3" d="M93.78,57H93c0-6.08-.9-13.87-3.63-17.48l.54-.64C92.83,42.67,93.82,50.73,93.78,57Z"/><path class="cls-3" d="M92.83,53.4c-2.16-2.31-3.06-8-1.75-11l.66.45c-1.15,2.66-.32,7.8,1.58,9.83Z"/><path class="cls-3" d="M106,44.37c-2.62-5.58-3.52-13.38-2.17-19a27.69,27.69,0,0,1,2.38-5.89c1.34-2.7,2.61-5.26,2.55-8.64l.74,0c.08,3.66-1.31,6.45-2.66,9.16a27,27,0,0,0-2.29,5.66c-1.27,5.27-.39,12.94,2.1,18.23Z"/><path class="cls-3" d="M104.56,40.4a35.64,35.64,0,0,1,.68-6.65c.64-3.78,1.23-7.36-.31-10.54l.64-.49c1.7,3.5,1,7.43.41,11.22a33.84,33.84,0,0,0-.67,6.43Z"/><path class="cls-3" d="M100.59,56.09,99.85,56A52.17,52.17,0,0,0,96.39,34.5l.68-.41A53.26,53.26,0,0,1,100.59,56.09Z"/><path class="cls-3" d="M83.48,174.68c0-9.62,2.14-17.32,6.73-24.25l.58.6c-4.48,6.75-6.56,14.26-6.56,23.65Z"/><path class="cls-3" d="M88.38,220.25l-.75-.11A43.4,43.4,0,0,1,89.88,211a54.69,54.69,0,0,0,2-7.23,102.79,102.79,0,0,0,1.34-11.07l.75.07a102.75,102.75,0,0,1-1.36,11.2,54.87,54.87,0,0,1-2,7.38A42,42,0,0,0,88.38,220.25Z"/><path class="cls-3" d="M92.32,183.1c-.74-2-2.4-8-1.23-10.89a2.36,2.36,0,0,1,1.57-1.53l.16.92a1.59,1.59,0,0,0-1.07,1c-1,2.35.43,7.81,1.25,10.09Z"/><path class="cls-3" d="M147.05,215.91c-2.77-2-4.33-6.91-3.4-10.64l.71.28c-.82,3.28.62,7.75,3.07,9.56Z"/><path class="cls-3" d="M145.47,92.11l-.69-.34c1.45-4.72,1.85-12.07-.72-17.07l.63-.51C147.42,79.5,147.05,87,145.47,92.11Z"/><path class="cls-3" d="M145.55,87.5a15.52,15.52,0,0,1-.76-11.07l.67.4A14.34,14.34,0,0,0,146.19,87Z"/><path class="cls-3" d="M123.09,54.14l-.55-.64c5-6.85,7.11-17.71,5-26.41l.72-.27C130.44,35.82,128.3,47.05,123.09,54.14Z"/><path class="cls-3" d="M161.33,115.55c-.05-1.66-.14-3.38-.22-5-.28-5.68-.57-11.56.48-16.82l.72.23c-1,5.12-.73,10.92-.45,16.53.08,1.66.16,3.38.21,5.05Z"/><path class="cls-3" d="M113.84,192l-.73-.22c.67-3.62,3.19-6.33,5.63-9A32.69,32.69,0,0,0,122,179c2.29-3.35,6-10.14,5.52-17.93l.75-.08c.54,8.13-3.34,15.15-5.7,18.62a35.59,35.59,0,0,1-3.37,4C116.88,186.09,114.45,188.7,113.84,192Z"/><path class="cls-3" d="M91.19,135.66l-.72-.27a77.23,77.23,0,0,0,1.59-14c.19-3.49.38-7.09.9-10.53l.73.17c-.51,3.39-.7,7-.88,10.42A79.07,79.07,0,0,1,91.19,135.66Z"/><path class="cls-3" d="M97,209.5l-.65-.48a38.76,38.76,0,0,0,3.44-13.75l.75.07A40,40,0,0,1,97,209.5Z"/><path class="cls-3" d="M147.79,195c-.7-3.37-2.21-5.54-3.93-5.65s-3.06,1.58-4,4.65l-.7-.33c1.05-3.47,2.78-5.39,4.73-5.26s3.83,2.57,4.62,6.35Z"/><path class="cls-3" d="M139.14,151.16c0-2.12-.06-4.26-.07-6.33,0-6.72-.07-13.07-1.41-19.39l.72-.24c1.37,6.43,1.4,12.84,1.44,19.62,0,2.06,0,4.2.07,6.31Z"/><path class="cls-3" d="M104.33,156.68l-.52-.67a10.44,10.44,0,0,0,2.07-9.71l.7-.33A11.68,11.68,0,0,1,104.33,156.68Z"/><path class="cls-3" d="M106.61,173.86l-.75,0a49.4,49.4,0,0,0-.66-9.88l.73-.19A50.21,50.21,0,0,1,106.61,173.86Z"/><rect class="cls-3" x="107.85" y="135.93" width="0.75" height="5.42"/><path class="cls-3" d="M54.56,104.51c-.75-5.73.68-10.58,3.83-13l.39.8c-2.88,2.19-4.18,6.68-3.48,12Z"/></pattern></defs><g class="cls-6"><g id="Layer_2" data-name="Layer 2"><g id="Layer_8" data-name="Layer 8"><polygon class="cls-7" points="289.19 234.04 52.35 234.04 84.27 252.82 262.64 252.82 289.19 234.04"/><rect class="cls-8" x="54.42" y="51.03" width="6.33" height="81.86" transform="translate(-49.84 76.7) rotate(-49.86)"/><path class="cls-9" d="M28,66.39a26.25,26.25,0,0,1,6.53-5.66,4.71,4.71,0,0,0,.85-7.55c-.61-.58-1.25-1.14-1.91-1.69-12-10.15-26.09-13.26-31.4-7S2.17,64.16,14.2,74.31c.66.55,1.32,1.08,2,1.59a4.71,4.71,0,0,0,7.3-2.11A26.24,26.24,0,0,1,28,66.39Z"/><line class="cls-10" x1="303.09" y1="165.68" x2="335.41" y2="152.5"/><line class="cls-10" x1="286.11" y1="193.11" x2="442.99" y2="234.04"/><path class="cls-11" d="M47.53,88.15H13.9S7.32,99.92,7.32,113.36c0,13.6,6.47,25.21,6.47,25.21H47.64s6.47-11.61,6.47-25.21C54.11,99.92,47.53,88.15,47.53,88.15Z"/><rect class="cls-12" x="13.88" y="84.89" width="33.67" height="3.26"/><rect class="cls-12" x="13.88" y="138.57" width="33.67" height="3.26"/><rect class="cls-12" x="6.42" y="111.03" width="48.59" height="3.26"/><path class="cls-13" d="M34.47,5.12v138.8h78V0c-9.92,4.58-23.72,7.42-39,7.42-13,0-24.95-2.06-34.34-5.5A3.43,3.43,0,0,0,34.47,5.12Z"/><path class="cls-13" d="M112.46,0V143.92h78V0c-9.92,4.58-23.73,7.42-39,7.42S122.38,4.58,112.46,0Z"/><path class="cls-13" d="M190.46,0V143.92h78V5.12a3.43,3.43,0,0,0-4.65-3.2c-9.38,3.44-21.33,5.5-34.34,5.5C214.18,7.42,200.38,4.58,190.46,0Z"/><line class="cls-14" x1="112.46" x2="112.46" y2="143.92"/><line class="cls-14" x1="190.46" x2="190.46" y2="143.92"/><polygon class="cls-15" points="300.57 198.19 33.23 198.19 24.72 142.19 309.08 142.19 300.57 198.19"/><line class="cls-16" x1="27.65" y1="161.52" x2="306.15" y2="161.52"/><line class="cls-16" x1="30.71" y1="181.66" x2="303.09" y2="181.66"/><circle class="cls-17" cx="93.33" cy="194.55" r="26.05"/><line class="cls-18" x1="93.33" y1="194.55" x2="93.33" y2="140.09"/><line class="cls-18" x1="93.3" y1="194.55" x2="93.36" y2="140.09"/><line class="cls-19" x1="93.27" y1="194.55" x2="93.39" y2="140.09"/><line class="cls-19" x1="93.27" y1="194.55" x2="120.61" y2="147.45"/><line class="cls-19" x1="93.27" y1="194.55" x2="140.5" y2="167.43"/><line class="cls-19" x1="93.27" y1="194.55" x2="147.73" y2="194.68"/><line class="cls-19" x1="93.27" y1="194.55" x2="140.37" y2="221.9"/><line class="cls-19" x1="93.27" y1="194.55" x2="120.39" y2="241.79"/><line class="cls-19" x1="93.27" y1="194.55" x2="93.14" y2="249.02"/><line class="cls-19" x1="93.27" y1="194.55" x2="65.93" y2="241.66"/><line class="cls-19" x1="93.27" y1="194.55" x2="46.04" y2="221.68"/><line class="cls-19" x1="93.27" y1="194.55" x2="38.8" y2="194.43"/><line class="cls-19" x1="93.27" y1="194.55" x2="46.16" y2="167.21"/><line class="cls-19" x1="93.27" y1="194.55" x2="66.15" y2="147.32"/><circle class="cls-20" cx="93.33" cy="194.55" r="15.74"/><circle class="cls-21" cx="93.33" cy="194.55" r="7.49"/><path class="cls-12" d="M92.22,140.09a54.47,54.47,0,1,1-54.47,54.46,54.46,54.46,0,0,1,54.47-54.46m0-5.21a59.68,59.68,0,1,0,59.67,59.67,59.74,59.74,0,0,0-59.67-59.67Z"/><circle class="cls-22" cx="92.22" cy="194.55" r="54.47"/><circle class="cls-17" cx="93.33" cy="194.55" r="7.49"/><circle class="cls-17" cx="251.53" cy="204.33" r="21.37"/><line class="cls-23" x1="251.53" y1="204.33" x2="251.53" y2="159.64"/><line class="cls-23" x1="251.5" y1="204.33" x2="251.56" y2="159.64"/><line class="cls-19" x1="251.48" y1="204.33" x2="251.58" y2="159.64"/><line class="cls-19" x1="251.48" y1="204.33" x2="273.91" y2="165.68"/><line class="cls-19" x1="251.48" y1="204.33" x2="290.23" y2="182.08"/><line class="cls-19" x1="251.48" y1="204.33" x2="296.17" y2="204.44"/><line class="cls-19" x1="251.48" y1="204.33" x2="290.13" y2="226.77"/><line class="cls-19" x1="251.48" y1="204.33" x2="273.73" y2="243.08"/><line class="cls-19" x1="251.48" y1="204.33" x2="251.37" y2="249.02"/><line class="cls-19" x1="251.48" y1="204.33" x2="229.04" y2="242.98"/><line class="cls-19" x1="251.48" y1="204.33" x2="212.73" y2="226.59"/><line class="cls-19" x1="251.48" y1="204.33" x2="206.79" y2="204.23"/><line class="cls-19" x1="251.48" y1="204.33" x2="212.83" y2="181.9"/><line class="cls-19" x1="251.48" y1="204.33" x2="229.22" y2="165.58"/><circle class="cls-24" cx="251.53" cy="204.33" r="12.92"/><circle class="cls-21" cx="251.53" cy="204.33" r="6.14"/><circle class="cls-17" cx="251.53" cy="204.33" r="6.14"/><path class="cls-12" d="M250.61,159.64a44.69,44.69,0,1,1-44.68,44.69,44.69,44.69,0,0,1,44.68-44.69m0-4.27a49,49,0,1,0,49,49,49,49,0,0,0-49-49Z"/><circle class="cls-22" cx="250.61" cy="204.33" r="44.69"/><path class="cls-11" d="M193.3,140.37H159.68s-6.58,11.77-6.58,25.21c0,13.6,6.46,25.2,6.46,25.2h33.86s6.46-11.6,6.46-25.2C199.88,152.14,193.3,140.37,193.3,140.37Z"/><rect class="cls-12" x="159.65" y="137.11" width="33.67" height="3.26"/><rect class="cls-12" x="159.65" y="190.78" width="33.67" height="3.26"/><rect class="cls-12" x="152.2" y="163.24" width="48.59" height="3.26"/><polyline class="cls-10" points="276.01 84.89 280.35 130.38 316.32 130.38"/><polyline class="cls-10" points="286.11 147.06 286.11 132.76 299.36 132.76 299.36 152.5"/><rect class="cls-25" x="57.35" y="49.64" width="30.47" height="27.39" rx="1.72"/><line class="cls-26" x1="65.86" y1="46.99" x2="65.86" y2="53.57"/><line class="cls-26" x1="79.31" y1="46.99" x2="79.31" y2="53.57"/><line class="cls-26" x1="65.86" y1="73.09" x2="65.86" y2="79.67"/><line class="cls-26" x1="79.31" y1="73.09" x2="79.31" y2="79.67"/><line class="cls-26" x1="54.29" y1="63.33" x2="60.88" y2="63.33"/><line class="cls-26" x1="84.77" y1="63.33" x2="91.35" y2="63.33"/><rect class="cls-27" x="202.16" y="110.34" width="22.75" height="20.44" rx="1.28"/><line class="cls-28" x1="208.51" y1="108.36" x2="208.51" y2="113.28"/><line class="cls-28" x1="218.55" y1="108.36" x2="218.55" y2="113.28"/><line class="cls-28" x1="208.51" y1="127.85" x2="208.51" y2="132.76"/><line class="cls-28" x1="218.55" y1="127.85" x2="218.55" y2="132.76"/><line class="cls-28" x1="199.88" y1="120.56" x2="204.79" y2="120.56"/><line class="cls-28" x1="222.63" y1="120.56" x2="227.54" y2="120.56"/></g></g></g></svg>