<svg xmlns="http://www.w3.org/2000/svg" viewBox="0 0 767.93 41.63"><defs><style>.cls-1{fill:none;stroke:#e3272f;stroke-miterlimit:10;stroke-width:3px;}.cls-2{fill:#e3272f;}</style></defs><g id="Layer_2" data-name="Layer 2"><g id="Layer_8" data-name="Layer 8"><line class="cls-1" x1="131.83" y1="23.86" y2="23.86"/><line class="cls-1" x1="767.93" y1="23.86" x2="636.1" y2="23.86"/><path class="cls-2" d="M164.68,1.64,182.1,36.47l12.4-24.64a2,2,0,0,1,1.6-.88,2.05,2.05,0,0,1,1.75.88l12.33,24.64L227.59,1.64a1.87,1.87,0,0,1,2.3-.7,1.31,1.31,0,0,1,.84,1.87L211.78,40.63a2,2,0,0,1-1.39.94H210a1.5,1.5,0,0,1-.84-.24.81.81,0,0,1-.28-.23,1.78,1.78,0,0,1-.28-.35.2.2,0,0,0-.07-.18l-12.4-24.76L183.7,40.57a.43.43,0,0,1-.14.3,1.15,1.15,0,0,1-.35.41.28.28,0,0,0-.14,0,1.75,1.75,0,0,1-1,.24,2,2,0,0,1-1-.29l-.13-.12-.07-.06a1.29,1.29,0,0,1-.42-.7L161.62,2.81a1.31,1.31,0,0,1,.83-1.87A1.8,1.8,0,0,1,164.68,1.64Z"/><path class="cls-2" d="M245,2a1.57,1.57,0,0,1,1.67-1.4A1.6,1.6,0,0,1,248.43,2V40.16a1.61,1.61,0,0,1-1.74,1.41A1.58,1.58,0,0,1,245,40.16Z"/><path class="cls-2" d="M274.56,41.57h-.14a1.58,1.58,0,0,1-1.67-1.41V2a1.57,1.57,0,0,1,1.67-1.4A1.6,1.6,0,0,1,276.16,2V38.7H299.5a1.46,1.46,0,1,1,0,2.87Z"/><path class="cls-2" d="M320.75,41.57h-.28a1.54,1.54,0,0,1-1.53-1.41V2a1.58,1.58,0,0,1,1.67-1.4h9.13c13.45,0,24.39,9.25,24.39,20.55s-10.94,20.43-24.39,20.43Zm9-2.87c11.57,0,21-7.85,21-17.56s-9.4-17.63-21-17.69h-7.38V38.7Z"/><path class="cls-2" d="M394.36,1.64l17.42,34.83,12.4-24.64a2,2,0,0,1,1.6-.88,2,2,0,0,1,1.74.88l12.33,24.64L457.27,1.64a1.86,1.86,0,0,1,2.3-.7,1.31,1.31,0,0,1,.84,1.87l-19,37.82a1.93,1.93,0,0,1-1.39.94h-.35a1.47,1.47,0,0,1-.83-.24.81.81,0,0,1-.28-.23,1.78,1.78,0,0,1-.28-.35.2.2,0,0,0-.07-.18l-12.4-24.76L413.38,40.57a.43.43,0,0,1-.14.3,1.15,1.15,0,0,1-.35.41.28.28,0,0,0-.14,0,1.79,1.79,0,0,1-1,.24,2,2,0,0,1-1-.29l-.14-.12-.07-.06a1.29,1.29,0,0,1-.42-.7L391.29,2.81a1.31,1.31,0,0,1,.84-1.87A1.8,1.8,0,0,1,394.36,1.64Z"/><path class="cls-2" d="M476.3,2A1.57,1.57,0,0,1,478,.59h25.08A1.53,1.53,0,0,1,504.72,2a1.53,1.53,0,0,1-1.67,1.46H479.71V19.67h20.41a1.59,1.59,0,0,1,1.68,1.47,1.58,1.58,0,0,1-1.68,1.4H479.71V38.7h23.34a1.45,1.45,0,1,1,0,2.87H477.83a1.53,1.53,0,0,1-1.53-1.41Z"/><path class="cls-2" d="M522.35,33.9a1.67,1.67,0,0,1,2.16-.18c3.62,2.46,9.68,5.33,16,5.27a20.83,20.83,0,0,0,10.73-2.69c2.72-1.64,4.18-3.81,4.18-6.09s-1.32-4.1-4-5.62a36.33,36.33,0,0,0-11.28-3.34h-.14a34.46,34.46,0,0,1-11.5-3.45c-3-1.64-5-4.1-5-7.14s2-5.8,5.09-7.67A22.72,22.72,0,0,1,540.4,0c6.4,0,11.21,2.63,15,4.74a1.19,1.19,0,0,1,.42,1.82,1.65,1.65,0,0,1-2.09.35c-3.83-2.11-8-4.33-13.37-4.33a19.78,19.78,0,0,0-10,2.46c-2.44,1.52-3.83,3.51-3.83,5.62s1.18,3.57,3.62,5,6.06,2.4,10.45,3.11h.14c4.88.76,9.2,1.93,12.4,3.74s5.37,4.45,5.37,7.73-2.23,6.21-5.51,8.2a24.35,24.35,0,0,1-12.54,3.22c-7.45-.06-13.93-3.22-18-5.92A1.2,1.2,0,0,1,522.35,33.9Z"/><path class="cls-2" d="M589.58,3.45h-14.7A1.58,1.58,0,0,1,573.21,2a1.58,1.58,0,0,1,1.67-1.4h32.75A1.58,1.58,0,0,1,609.3,2a1.58,1.58,0,0,1-1.67,1.46h-14.7V40.16a1.7,1.7,0,0,1-3.35,0Z"/></g></g></svg>