<svg xmlns="http://www.w3.org/2000/svg" xmlns:xlink="http://www.w3.org/1999/xlink" viewBox="0 0 336.25 480.18"><defs><style>.cls-1,.cls-10,.cls-11,.cls-15,.cls-2,.cls-8{fill:none;}.cls-2{stroke:#231f20;stroke-width:0.3px;}.cls-3{isolation:isolate;}.cls-4{fill:#010e1f;}.cls-5{fill:#5dc2a6;}.cls-6{fill:#ff4fc2;}.cls-7{mix-blend-mode:multiply;fill:url(#Hatching_Double);}.cls-15,.cls-8{stroke:#fff;}.cls-10,.cls-11,.cls-15,.cls-8{stroke-linecap:round;stroke-linejoin:round;}.cls-8{stroke-width:4.23px;}.cls-9{clip-path:url(#clip-path);}.cls-10{stroke:#e51491;stroke-width:12.18px;}.cls-11{stroke:#010e1f;stroke-width:7.05px;}.cls-12{fill:#f9ef91;}.cls-13{fill:#f7941e;}.cls-14{fill:#e51491;}.cls-15{stroke-width:4.06px;}</style><pattern id="Hatching_Double" data-name="Hatching Double" width="72" height="72" patternTransform="translate(-62.06 -95.08)" patternUnits="userSpaceOnUse" viewBox="0 0 72 72"><rect class="cls-1" width="72" height="72"/><line class="cls-2" x1="63.7" y1="76.7" x2="67.18" y2="70.62"/><line class="cls-2" x1="65.44" y1="69.63" x2="61.96" y2="75.7"/><line class="cls-2" x1="49" y1="77.5" x2="46.62" y2="70.92"/><line class="cls-2" x1="44.74" y1="71.6" x2="47.12" y2="78.18"/><line class="cls-2" x1="36.43" y1="75.84" x2="38.15" y2="69.05"/><line class="cls-2" x1="36.21" y1="68.56" x2="34.49" y2="75.35"/><line class="cls-2" x1="14.87" y1="75.31" x2="16.78" y2="68.58"/><line class="cls-2" x1="14.85" y1="68.03" x2="12.95" y2="74.77"/><line class="cls-2" x1="8.79" y1="74.93" x2="6.77" y2="68.22"/><line class="cls-2" x1="4.85" y1="68.8" x2="6.87" y2="75.5"/><line class="cls-2" x1="51.02" y1="69.29" x2="55.45" y2="74.71"/><line class="cls-2" x1="57" y1="73.44" x2="52.57" y2="68.03"/><line class="cls-2" x1="71.73" y1="26.3" x2="78.25" y2="23.75"/><line class="cls-2" x1="-0.27" y1="26.3" x2="6.25" y2="23.75"/><line class="cls-2" x1="4.19" y1="40.15" x2="1.63" y2="46.66"/><line class="cls-2" x1="3.49" y1="47.39" x2="6.05" y2="40.88"/><line class="cls-2" x1="69.21" y1="5.66" x2="75.38" y2="8.98"/><line class="cls-2" x1="76.32" y1="7.22" x2="70.16" y2="3.9"/><line class="cls-2" x1="69.26" y1="20.09" x2="74.56" y2="15.52"/><line class="cls-2" x1="73.25" y1="14" x2="67.95" y2="18.58"/><line class="cls-2" x1="71.73" y1="26.3" x2="78.25" y2="23.75"/><line class="cls-2" x1="77.52" y1="21.89" x2="71" y2="24.44"/><line class="cls-2" x1="68.93" y1="34.91" x2="75.75" y2="36.45"/><line class="cls-2" x1="76.2" y1="34.5" x2="69.37" y2="32.96"/><line class="cls-2" x1="68.96" y1="56.28" x2="75.75" y2="58"/><line class="cls-2" x1="76.24" y1="56.06" x2="69.46" y2="54.34"/><line class="cls-2" x1="70" y1="66.25" x2="76.65" y2="64.06"/><line class="cls-2" x1="76.02" y1="62.16" x2="69.37" y2="64.35"/><line class="cls-2" x1="63.7" y1="4.7" x2="67.18" y2="-1.38"/><line class="cls-2" x1="65.44" y1="-2.37" x2="61.96" y2="3.7"/><line class="cls-2" x1="49" y1="5.5" x2="46.62" y2="-1.08"/><line class="cls-2" x1="44.74" y1="-0.4" x2="47.12" y2="6.18"/><line class="cls-2" x1="36.43" y1="3.84" x2="38.15" y2="-2.95"/><line class="cls-2" x1="36.21" y1="-3.44" x2="34.49" y2="3.35"/><line class="cls-2" x1="30.79" y1="3.68" x2="24.34" y2="0.95"/><line class="cls-2" x1="23.56" y1="2.79" x2="30" y2="5.53"/><line class="cls-2" x1="14.87" y1="3.31" x2="16.78" y2="-3.42"/><line class="cls-2" x1="14.85" y1="-3.97" x2="12.95" y2="2.77"/><line class="cls-2" x1="8.79" y1="2.93" x2="6.77" y2="-3.78"/><line class="cls-2" x1="4.85" y1="-3.2" x2="6.87" y2="3.5"/><line class="cls-2" x1="65.44" y1="69.63" x2="61.96" y2="75.7"/><line class="cls-2" x1="63.7" y1="76.7" x2="67.18" y2="70.62"/><line class="cls-2" x1="51.02" y1="69.29" x2="55.45" y2="74.71"/><line class="cls-2" x1="57" y1="73.44" x2="52.57" y2="68.03"/><line class="cls-2" x1="44.74" y1="71.6" x2="47.12" y2="78.18"/><line class="cls-2" x1="49" y1="77.5" x2="46.62" y2="70.92"/><line class="cls-2" x1="36.21" y1="68.56" x2="34.49" y2="75.35"/><line class="cls-2" x1="36.43" y1="75.84" x2="38.15" y2="69.05"/><line class="cls-2" x1="14.85" y1="68.03" x2="12.95" y2="74.77"/><line class="cls-2" x1="14.87" y1="75.31" x2="16.78" y2="68.58"/><line class="cls-2" x1="4.85" y1="68.8" x2="6.87" y2="75.5"/><line class="cls-2" x1="8.79" y1="74.93" x2="6.77" y2="68.22"/><line class="cls-2" x1="18.44" y1="47.13" x2="14.96" y2="53.2"/><line class="cls-2" x1="16.7" y1="54.2" x2="20.18" y2="48.12"/><line class="cls-2" x1="48.5" y1="14.94" x2="44.07" y2="9.53"/><line class="cls-2" x1="42.52" y1="10.79" x2="46.95" y2="16.21"/><line class="cls-2" x1="36.24" y1="13.1" x2="38.62" y2="19.68"/><line class="cls-2" x1="40.5" y1="19" x2="38.12" y2="12.42"/><line class="cls-2" x1="62.79" y1="61.18" x2="56.34" y2="58.45"/><line class="cls-2" x1="55.56" y1="60.29" x2="62" y2="63.03"/><line class="cls-2" x1="62.98" y1="43.22" x2="61.08" y2="49.96"/><line class="cls-2" x1="63" y1="50.5" x2="64.9" y2="43.77"/><line class="cls-2" x1="52.57" y1="37.87" x2="54.58" y2="44.58"/><line class="cls-2" x1="56.5" y1="44" x2="54.48" y2="37.3"/><line class="cls-2" x1="33.02" y1="32.58" x2="36.5" y2="26.5"/><line class="cls-2" x1="34.76" y1="25.51" x2="31.29" y2="31.58"/><line class="cls-2" x1="18.52" y1="25.79" x2="22.95" y2="31.21"/><line class="cls-2" x1="24.5" y1="29.94" x2="20.07" y2="24.53"/><line class="cls-2" x1="10.74" y1="27.6" x2="13.12" y2="34.18"/><line class="cls-2" x1="15" y1="33.5" x2="12.62" y2="26.92"/><line class="cls-2" x1="62.71" y1="25.56" x2="60.99" y2="32.35"/><line class="cls-2" x1="62.93" y1="32.84" x2="64.65" y2="26.05"/><line class="cls-2" x1="46.89" y1="29.19" x2="53.34" y2="31.93"/><line class="cls-2" x1="54.12" y1="30.09" x2="47.67" y2="27.35"/><line class="cls-2" x1="30.07" y1="59.37" x2="32.08" y2="66.08"/><line class="cls-2" x1="34" y1="65.5" x2="31.98" y2="58.8"/><line class="cls-2" x1="48.97" y1="60.45" x2="42.04" y2="61.42"/><line class="cls-2" x1="42.32" y1="63.4" x2="49.25" y2="62.43"/><line class="cls-2" x1="49.11" y1="48.23" x2="47.55" y2="55.05"/><line class="cls-2" x1="49.5" y1="55.5" x2="51.06" y2="48.68"/><line class="cls-2" x1="30.22" y1="45.3" x2="26.48" y2="51.22"/><line class="cls-2" x1="28.17" y1="52.29" x2="31.91" y2="46.37"/><line class="cls-2" x1="31.89" y1="36.7" x2="25.47" y2="39.5"/><line class="cls-2" x1="26.28" y1="41.34" x2="32.69" y2="38.54"/><line class="cls-2" x1="18.37" y1="42.31" x2="20.28" y2="35.58"/><line class="cls-2" x1="18.35" y1="35.03" x2="16.45" y2="41.77"/><line class="cls-2" x1="43.92" y1="38.92" x2="41.9" y2="32.22"/><line class="cls-2" x1="39.98" y1="32.8" x2="42" y2="39.5"/><line class="cls-2" x1="30.2" y1="15.76" x2="24.61" y2="19.97"/><line class="cls-2" x1="25.82" y1="21.57" x2="31.41" y2="17.36"/><line class="cls-2" x1="20.94" y1="15.94" x2="18.99" y2="9.22"/><line class="cls-2" x1="17.07" y1="9.77" x2="19.02" y2="16.5"/><line class="cls-2" x1="10.4" y1="9.42" x2="9.99" y2="16.41"/><line class="cls-2" x1="11.99" y1="16.53" x2="12.39" y2="9.54"/><line class="cls-2" x1="23.25" y1="57.28" x2="19" y2="62.84"/><line class="cls-2" x1="20.58" y1="64.05" x2="24.84" y2="58.49"/><line class="cls-2" x1="15.46" y1="61.69" x2="10.61" y2="56.64"/><line class="cls-2" x1="9.17" y1="58.03" x2="14.01" y2="63.08"/><line class="cls-2" x1="55.5" y1="24.5" x2="59.9" y2="19.06"/><line class="cls-2" x1="58.35" y1="17.8" x2="53.95" y2="23.24"/><line class="cls-2" x1="58.53" y1="14.33" x2="59.31" y2="7.38"/><line class="cls-2" x1="57.33" y1="7.15" x2="56.54" y2="14.11"/><line class="cls-2" x1="35.56" y1="49.29" x2="42" y2="52.03"/><line class="cls-2" x1="42.79" y1="50.18" x2="36.34" y2="47.45"/><line class="cls-2" x1="51.02" y1="-2.71" x2="55.45" y2="2.71"/><line class="cls-2" x1="57" y1="1.44" x2="52.57" y2="-3.97"/><line class="cls-2" x1="-2.79" y1="5.66" x2="3.38" y2="8.98"/><line class="cls-2" x1="4.32" y1="7.22" x2="-1.84" y2="3.9"/><line class="cls-2" x1="-2.74" y1="20.09" x2="2.56" y2="15.52"/><line class="cls-2" x1="1.25" y1="14" x2="-4.05" y2="18.58"/><line class="cls-2" x1="-0.27" y1="26.3" x2="6.25" y2="23.75"/><line class="cls-2" x1="5.52" y1="21.89" x2="-1" y2="24.44"/><line class="cls-2" x1="-3.07" y1="34.91" x2="3.75" y2="36.45"/><line class="cls-2" x1="4.2" y1="34.5" x2="-2.63" y2="32.96"/><line class="cls-2" x1="-3.04" y1="56.28" x2="3.75" y2="58"/><line class="cls-2" x1="4.24" y1="56.06" x2="-2.54" y2="54.34"/><line class="cls-2" x1="-2" y1="66.25" x2="4.65" y2="64.06"/><line class="cls-2" x1="4.02" y1="62.16" x2="-2.63" y2="64.35"/><line class="cls-2" x1="65.44" y1="-2.37" x2="61.96" y2="3.7"/><line class="cls-2" x1="63.7" y1="4.7" x2="67.18" y2="-1.38"/><line class="cls-2" x1="51.02" y1="-2.71" x2="55.45" y2="2.71"/><line class="cls-2" x1="57" y1="1.44" x2="52.57" y2="-3.97"/><line class="cls-2" x1="44.74" y1="-0.4" x2="47.12" y2="6.18"/><line class="cls-2" x1="49" y1="5.5" x2="46.62" y2="-1.08"/><line class="cls-2" x1="36.21" y1="-3.44" x2="34.49" y2="3.35"/><line class="cls-2" x1="36.43" y1="3.84" x2="38.15" y2="-2.95"/><line class="cls-2" x1="14.85" y1="-3.97" x2="12.95" y2="2.77"/><line class="cls-2" x1="14.87" y1="3.31" x2="16.78" y2="-3.42"/><line class="cls-2" x1="4.85" y1="-3.2" x2="6.87" y2="3.5"/><line class="cls-2" x1="8.79" y1="2.93" x2="6.77" y2="-3.78"/></pattern><clipPath id="clip-path"><path class="cls-1" d="M279.58,470.67s116.79-269-81.4-467.14L68.48,326.2S177,343.27,279.58,470.67Z"/></clipPath></defs><g class="cls-3"><g id="Layer_2" data-name="Layer 2"><g id="Layer_8" data-name="Layer 8"><path class="cls-4" d="M279.58,470.67s116.79-269-81.4-467.14L68.48,326.2S177,343.27,279.58,470.67Z"/><path class="cls-5" d="M131.41,169.66,198.18,3.53c93.74,93.73,117,203.29,115.51,292.74C247.82,210.45,151.14,173.23,131.41,169.66Z"/><path class="cls-6" d="M166,83.57l32.17-80C248.93,54.27,279,109.66,295.71,164,240.74,106.49,177.22,87.11,166,83.57Z"/><path class="cls-7" d="M166,83.57l32.17-80C248.93,54.27,279,109.66,295.71,164,240.74,106.49,177.22,87.11,166,83.57Z"/><path class="cls-4" d="M0,479.58s243,2,296.65-1.32c42.65-2.66,39.55-7.59,39.55-7.59H0Z"/><path class="cls-8" d="M313.76,363.1s-118.1-66-258.46-44.8"/><g class="cls-9"><path class="cls-10" d="M300.16,314.65s-4.53-57.31-25.38-108.29c-63.34-154.83-24.35,124.26-70.86,33.24-23.67-46.33-3.79-129.09-52.5-142.86"/></g><path class="cls-11" d="M279.58,470.67s116.79-269-81.4-467.14"/><path class="cls-12" d="M153.86,294c-14.21-1.83-24.54-7.39-24.54-14h50.93V293a75.1,75.1,0,0,1-16.2,1.69A79,79,0,0,1,153.86,294Z"/><path class="cls-13" d="M223.25,440,200,459.46l21.41,11.63a1.2,1.2,0,0,1-.58,2.25H187.63a3.61,3.61,0,0,1-3.61-3.6V466.4l4.32-7.93,11-20.19a7.22,7.22,0,0,0-1.15-8.47L171.44,402.2h31.9l21,28A7.21,7.21,0,0,1,223.25,440Z"/><path class="cls-13" d="M164.07,402.2l-26.75,27.61a7.22,7.22,0,0,0-1.15,8.47l11,20.19,4.17,7.66v3.61a3.6,3.6,0,0,1-3.6,3.6h-33.2a1.2,1.2,0,0,1-.57-2.25l21.49-11.68L112.26,440a7.2,7.2,0,0,1-1.13-9.86l31.57-41.94,0,0L132.2,402.2Z"/><path class="cls-13" d="M65.09,318.06l2.61,3.05,4.47,5.21.38.45a3,3,0,0,0,4.27.33l.07-.07h0l3.17-2.72,32.45,47.95a7.22,7.22,0,0,0,12-1.67l11-23.86,1.38-3,18.25,28h25.19L197.78,345l.79,1.73,11,23.86a7.22,7.22,0,0,0,12,1.67l33.45-23,2,1.69h0l.07.07a3,3,0,0,0,4.27-.32l.38-.45L266.2,345l2.61-3.05a3.13,3.13,0,0,0,0-4.18,3,3,0,0,0-4.49.12l-2.72,3.18-.44.51a2.7,2.7,0,0,1-3.81.29h0a3.41,3.41,0,0,1-1.24-2.7l1.39-1.62,5.41-6.31a3.63,3.63,0,0,0-.11-4.83,3.42,3.42,0,0,0-4.94.25l-10.2,2.46-4.47,5.21a3.62,3.62,0,0,0,.39,5.1l1,.87.86.74-21.63,0V318.89h0v-1.47a3.51,3.51,0,0,0-3.51-3.51H180.25V293a75.1,75.1,0,0,1-16.2,1.69,79,79,0,0,1-10.19-.65v19.88H113.78a3.51,3.51,0,0,0-3.5,3.51v11.65h0v6L89.17,316.52l.13-.11,1-.87a3.62,3.62,0,0,0,.39-5.1l-4.47-5.21L76,302.77a3.41,3.41,0,0,0-4.94-.25,3.62,3.62,0,0,0-.11,4.82l5.41,6.32,1.39,1.61A7.35,7.35,0,0,1,76.54,318h0a2.7,2.7,0,0,1-3.81-.3l-.44-.51L69.57,314a3,3,0,0,0-4.49-.12A3.13,3.13,0,0,0,65.09,318.06Zm104.16-7.62H158.86V302S169.25,299.63,169.25,310.44Z"/><polygon class="cls-14" points="203.39 402.2 203.34 402.2 171.44 402.2 164.07 402.2 132.2 402.2 142.75 388.26 155.22 371.76 180.36 371.76 203.39 402.2"/><path class="cls-4" d="M158.86,298.74s14.46-3.34,14.46,11.7H158.86Z"/><path class="cls-4" d="M158.86,302s10.39-2.4,10.39,8.41H158.86Z"/><path class="cls-8" d="M271,344.06q-5.24-2-10.53-3.83"/><path class="cls-14" d="M158.86,306.13h3c2.39,0,5.51,1.93,5.51,4.31h-8.54Z"/><path class="cls-15" d="M72.8,316.09q-8.44.87-17,2.16"/></g></g></g></svg>